<svg xmlns="http://www.w3.org/2000/svg" xmlns:xlink="http://www.w3.org/1999/xlink" width="200" height="150" viewBox="0 0 200 150">
  <defs>
    <clipPath id="clip-ambassador">
      <rect width="200" height="150"/>
    </clipPath>
  </defs>
  <g id="ambassador" clip-path="url(#clip-ambassador)">
    <g id="Group_945" data-name="Group 945" transform="translate(25)">
      <path id="Path_2456" data-name="Path 2456" d="M765.194,84.631c-.944-45.551,32.1-77.02,68.366-79.7,21.556-1.573,40.438,4.72,56.565,19.2,13.689,12.43,21.871,27.85,23.916,46.181,2.675,22.972-3.619,43.349-19.511,60.5-12.588,13.532-28.165,21.556-46.653,23.444-21.714,2.2-40.988-3.776-57.352-18.252C774.32,121.45,765.981,103.2,765.194,84.631Zm74.66,68.681c40.28.315,72.772-32.256,73.559-71.828a73.5,73.5,0,1,0-146.96-2.675C765.981,119.562,799.023,153.47,839.854,153.312Z" transform="translate(-765.175 -4.7)" fill="#001d53"/>
      <path id="Path_2457" data-name="Path 2457" d="M841.1,151.538c-38.707-.315-70.569-31.626-70.1-71.2a70.18,70.18,0,1,1,70.1,71.2Zm0-26.355c23.916.315,44.45-19.668,44.293-44.45a44.317,44.317,0,0,0-88.585-2.2C795.7,105.358,817.1,125.5,841.1,125.183ZM779.652,69.8v-.315c.315,0,.629-.157,1.1-.157h2.675l9.441-.944c.315,0,.787-.315.787-.472,0-.315-.315-.629-.472-.944-.472-.472-1.1-.787-1.573-1.259-1.259-1.1-2.518-2.36-3.934-3.462s-2.675-2.36-4.091-3.462c-.157-.157-.157-.472-.315-.629.315,0,.472-.157.787,0,1.573.472,3.147,1.1,4.72,1.731,1.416.472,2.99.944,4.406,1.416a1.711,1.711,0,0,1,1.1,1.573,2.236,2.236,0,0,0,.315.944,3.433,3.433,0,0,0,.787-.629c.629-2.045,1.416-3.934,2.045-5.979v-.472c-.157,0-.472-.157-.629,0s-.472.315-.629.629a1.458,1.458,0,0,1-1.888.472,2.658,2.658,0,0,0-.787-.315l-8.969-2.832c-1.1-.315-1.888-.787-1.888-2.045a.5.5,0,0,0-.472-.472,1.193,1.193,0,0,0-.629.315c-.157.157-.157.472-.315.787-.315.944-.472,1.888-.787,2.832-.157.629-.315,1.416.315,1.888.944.944,2.045,1.888,2.99,2.832,1.416,1.259,2.832,2.36,4.248,3.619a1.2,1.2,0,0,1,.315.787c0,.157-.315.315-.629.315-2.2.157-4.563.315-6.766.629-1.1.157-2.045.157-2.99.315-.315,0-.787.315-.787.472-.629,1.416-1.259,2.832-1.888,4.406a2.66,2.66,0,0,0,.315.787s.472,0,.629-.157c.944-1.416,2.045-1.416,3.3-.472h.157c3.147.944,6.294,2.045,9.283,2.99a1.692,1.692,0,0,1,1.259,1.416c0,.315.315.472.472.787.157-.315.472-.472.629-.787l.944-2.832a2,2,0,0,0-.157-.944c-.315.157-.629.157-.787.472a1.742,1.742,0,0,1-2.2.629c-2.2-.787-4.563-1.416-6.923-2.2A7.572,7.572,0,0,0,779.652,69.8ZM792.4,123.767a6.66,6.66,0,0,0,.787,1.1l4.248,3.776c.157.157.629.157.944.315,0-.315,0-.787-.157-.944-.315-.629-.472-1.259,0-1.731,1.1-1.1,2.045-2.2,3.147-3.3.472-.472.787-.472,1.259,0,.944.787,1.731,1.573,2.675,2.518.472.472.629.944.157,1.416-.944,1.1-2.045,2.2-2.99,3.3a1.22,1.22,0,0,1-1.573.315c-.315-.157-.629,0-.944,0a5.246,5.246,0,0,0,.472.944l4.248,3.776c.315.157.629.157.944.315,0-.315,0-.787-.157-.944a1.235,1.235,0,0,1,0-1.731c2.518-2.832,5.192-5.664,7.71-8.654a1.186,1.186,0,0,1,1.888-.315c.157.157.629,0,.944,0-.157-.315-.157-.787-.472-.944a56.4,56.4,0,0,0-4.563-4.091,2.275,2.275,0,0,0-1.1-.315,1.5,1.5,0,0,0,.315,1.1c.315.472.629,1.1.157,1.573-.944,1.1-1.888,2.2-2.675,3.147-.472.472-.787.472-1.259,0-.944-.787-1.888-1.731-2.832-2.518a.74.74,0,0,1-.157-1.259c.944-.944,1.731-1.888,2.675-2.832a1.492,1.492,0,0,1,2.045-.315c.315.157.629,0,.944,0-.157-.315-.157-.629-.315-.944-1.416-1.416-2.99-2.675-4.406-3.934-.157-.157-.629-.157-.944-.157a1.179,1.179,0,0,0,.157.787c.472.629.472,1.1-.157,1.573-2.36,2.518-4.72,5.192-6.923,7.867-.787.944-1.573,1.731-2.99,1.1ZM895.065,85.217c.629,0,.944-.157,1.259,0s.787.315,1.1.472c-.315.315-.472.787-.787.944-2.045,1.1-4.091,2.045-6.137,3.147a2.007,2.007,0,0,0-.787,1.1c-.157.944-.315,2.045-.472,2.99a1.179,1.179,0,0,0,.157.787c.157.157.629,0,.787-.157.787-.472,1.416-.944,2.045-1.259,1.259-.787,2.675-1.573,3.934-2.36a.827.827,0,0,1,1.416.315c.157.472.315.787.472,1.259a3.839,3.839,0,0,0,5.979.944,8.568,8.568,0,0,0,2.045-4.72c.315-2.36.472-4.72.629-7.081,0-.315-.157-.472-.157-.787-.157.157-.472.157-.629.315a2.014,2.014,0,0,1-2.2.944,3.465,3.465,0,0,1-1.259-.157c-2.99-.315-5.822-.629-8.811-.787a2.748,2.748,0,0,1-2.2-1.1c-.472-.629-.787-.315-.944.315,0,.315-.157.787-.157,1.1-.157,1.416-.315,2.675-.472,4.091,0,.315.157.787.157,1.1.315-.157.787-.315.787-.629a1.34,1.34,0,0,1,1.731-.787ZM799.006,53.355c.157,0,.315.157.472.157a6.566,6.566,0,0,0,1.259-.944c1.573-1.731,2.99-3.3,4.406-5.035a6.965,6.965,0,0,0,1.731-4.72,3.635,3.635,0,0,0-3.934-3.619,11.591,11.591,0,0,0-2.2.629c-.157,0-.629.157-.629,0a1.179,1.179,0,0,1-.157-.787c0-.315.157-.472.315-.787a2.466,2.466,0,0,0-.944-2.675,2.692,2.692,0,0,0-2.99-.944,23.286,23.286,0,0,0-3.3,2.045c-1.731,1.731-3.3,3.619-4.878,5.507-.157.315-.157.629-.315.944a2.678,2.678,0,0,0,1.1-.157c.472-.315.944-.472,1.416,0,2.517,2.2,5.192,4.563,7.71,6.766C798.849,50.68,800.265,51.467,799.006,53.355Zm94.8-8.5c-.315-1.259-.315-2.99-1.416-4.406-1.573-2.045-2.99-4.091-4.563-5.979-.157-.157-.629-.315-.787-.472,0,.315-.315.629-.157.944a1.457,1.457,0,0,1-.629,1.888c-2.832,2.2-5.507,4.248-8.182,6.451-.629.472-1.416.944-2.2.315-.157-.157-.629,0-.787,0a1.179,1.179,0,0,0,.157.787c1.416,1.888,2.832,3.619,4.248,5.35a8.2,8.2,0,0,0,11.8,1.1A9.549,9.549,0,0,0,893.806,44.859ZM815.37,136.669c-.157,2.675,2.518,5.822,5.507,6.766,6.294,2.045,10.857-1.731,11.643-7.71.315-2.518-.787-4.72-2.675-6.608a8.394,8.394,0,0,0-10.857-.944C816.628,130.061,815.527,132.578,815.37,136.669Zm80.482-62.938a8.555,8.555,0,0,0,8.811-9.283,8.868,8.868,0,0,0-9.126-7.71,8.775,8.775,0,0,0-8.182,9.126C887.512,69.011,891.289,74.2,895.852,73.731ZM855.1,129.589c.944-.157,1.416,0,1.731.787.315.629.629,1.416.944,2.045,1.259,2.518,2.517,5.035,3.776,7.71a1.929,1.929,0,0,1-.315,2.518c-.157.157-.157.629-.315.787a2,2,0,0,0,.944-.157,17.191,17.191,0,0,0,2.36-1.259c2.832-1.416,5.664-2.675,8.5-4.091a.991.991,0,0,0,.472-1.259c-.157-.787-.315-1.573-.472-2.2a6.382,6.382,0,0,0-.787-1.416c-.157.472-.629.944-.629,1.416A5.546,5.546,0,0,1,866.9,139.5c-.472.157-1.259,0-1.416-.315-.787-1.416-1.416-2.832-2.046-4.248-.315-.472,0-.944.629-1.259,1.259-.472,2.045-.157,3.3,1.259.157.315.629.315.944.472,0-.315.157-.787,0-1.1-.787-1.731-1.574-3.462-2.518-5.192-.157-.315-.629-.472-.944-.787a4.864,4.864,0,0,0-.315,1.259,2.475,2.475,0,0,1-.944,2.99c-.787.629-1.1.629-1.573-.315a40.232,40.232,0,0,1-1.731-3.776,1.775,1.775,0,0,1,.157-1.259,7.519,7.519,0,0,1,4.406-1.573,3.323,3.323,0,0,1,1.573.629c.315.157.629.629.944.944.157.157.472.157.787.315a6.816,6.816,0,0,1,.157-.787,25.468,25.468,0,0,0-1.573-2.832c-.315-.472-.629-.472-1.259-.315-2.518,1.259-5.192,2.36-7.71,3.619-.944.472-1.888.787-2.832,1.259-.315.157-.315.629-.629.787A2.657,2.657,0,0,0,855.1,129.589Zm-4.878-96.531a.487.487,0,0,1,.157-.315,6.006,6.006,0,0,0,4.878-3.3,3.7,3.7,0,0,0,0-3.619c-.787-1.573-2.36-2.518-3.776-3.619a30.229,30.229,0,0,1-2.36-2.2,1.9,1.9,0,0,1-.157-2.36,3.558,3.558,0,0,1,2.36-1.1c1.888.787,3.462,2.045,3.619,4.248,0,.315.315.472.472.629.157-.157.629-.472.629-.629a22.269,22.269,0,0,0,.629-3.147c.157-.944-.157-1.1-.944-.787a1.737,1.737,0,0,1-1.259,0,6.781,6.781,0,0,0-3.776-1.259,4.849,4.849,0,0,0-4.563,2.675,4.339,4.339,0,0,0,.315,4.563,36.051,36.051,0,0,0,3.619,3.3c.629.629,1.416,1.1,2.046,1.731a2.27,2.27,0,0,1-.472,3.147c-1.1.787-3.776.472-4.563-.629a5.852,5.852,0,0,1-1.573-3.462c0-.315-.315-.472-.472-.787-.157.315-.472.472-.629.787v.315a18.567,18.567,0,0,1-.629,3.147q-.236,1.18.944.944a2.009,2.009,0,0,1,1.888.315C847.7,32.114,848.963,32.586,850.222,33.058Zm-12.9-16.679h.315a10.852,10.852,0,0,0-.472-1.259c-.472.157-.787.472-1.259.629a1.711,1.711,0,0,1-.787.157,5.272,5.272,0,0,0-4.091,0c-2.36.629-3.147,2.2-3.619,4.406-.315,1.573.944,3.619,2.518,4.406,1.416.629,2.832,1.1,4.248,1.731l1.888.944a1.653,1.653,0,0,1,.787,2.2,4.186,4.186,0,0,1-1.573,1.731,4.123,4.123,0,0,1-4.878-1.259c-.472-.472-.629-1.259-1.1-1.731-.157-.315-.629-.472-.944-.629a2.237,2.237,0,0,0-.315.944c.157,1.259.472,2.518.629,3.776.157.629.629.787,1.1.472a2.081,2.081,0,0,1,1.888-.315,7.218,7.218,0,0,0,5.664-1.1c1.259-.787,2.517-3.934,2.045-5.35a6.121,6.121,0,0,0-4.563-3.776,29.288,29.288,0,0,1-3.934-1.573,1.807,1.807,0,0,1-.787-2.675c1.1-1.259,2.518-2.045,4.091-.787.944.629,1.573,1.573,2.517,2.36.315.315.629.315.944.472,0-.315.157-.787.157-1.1C837.634,17.953,837.477,17.166,837.319,16.379ZM842.2,130.218v-.157c-1.416.157-2.675.157-4.091.315-.315,0-.787.472-.944.787v3.3a.709.709,0,0,0,.472.472c.315,0,.472-.315.629-.472a.578.578,0,0,0,.157-.472c0-1.731,1.259-2.518,2.832-2.832.944-.157,1.259,0,1.259.944.157,3.776.472,7.553.629,11.329,0,.944-.157,1.573-1.1,1.888a1.571,1.571,0,0,0-.629.787,2.236,2.236,0,0,0,.944.315c1.888-.157,3.776-.315,5.664-.629.315,0,.472-.157.787-.315-.157-.157-.315-.472-.472-.629a2.151,2.151,0,0,1-1.416-2.2c-.157-3.462-.472-7.081-.472-10.542,0-1.416.629-1.731,2.046-1.259a4.366,4.366,0,0,1,2.2,2.518c.157.315.472.472.787.787a3.333,3.333,0,0,0,.472-1.1,12.141,12.141,0,0,0-.315-2.36c-.157-.787-.472-1.1-1.259-1.1a30.317,30.317,0,0,0-3.776.157C845.344,129.746,843.77,130.061,842.2,130.218ZM812.852,35.26c.157-.157.315-.472.629-.787.629-.472,1.416-.629,2.045-1.1,1.731-1.1,1.731-1.1,3.3.157a.154.154,0,0,1,.157.157c1.259.944,1.259.944.157,2.045-.157.157-.157.629-.315.944a2,2,0,0,0,.944-.157,17.2,17.2,0,0,0,2.36-1.259,25.457,25.457,0,0,0,2.832-1.573l.472-.472a.338.338,0,0,0-.315-.315c-1.731-.157-2.832-1.573-4.091-2.518l-8.969-7.553c-.315-.157-.787-.472-.787-.315-.315.157-.315.629-.472.944v.472c.315,4.563.787,9.126.944,13.846a8.3,8.3,0,0,1-.472,1.888c0,.315-.157.472,0,.787a3.568,3.568,0,0,0,.629.157c.944-.472,2.045-.944,2.99-1.416.315-.157.315-.472.472-.787a6.818,6.818,0,0,1-.787-.157.973.973,0,0,1-1.259-.787A11.031,11.031,0,0,1,812.852,35.26ZM792.712,92.3c-1.259,1.1-1.731,1.259-3.147.944-1.1-.157-1.416-.629-1.416-1.731a10.388,10.388,0,0,0-.157-2.2c-.472-1.416-.472-1.416.787-2.2.315-.157.629-.472.944-.629.787-.472,1.259-.315,1.731.472a1.571,1.571,0,0,0,.787.629c0-.315.315-.787.157-1.1-.157-1.731-.472-3.3-.787-5.035a.578.578,0,0,0-.157-.472c-.315-.629-.629-.629-.944-.157-.315.315-.472.787-.944,1.1L786.733,83.8c-3.3,2.045-6.451,3.934-9.755,5.822-.315.157-.629.629-.944.944a5.519,5.519,0,0,0,1.259.787c1.573.472,2.99.629,4.563,1.1,2.36.629,4.563,1.1,6.923,1.888,1.259.472,2.99.315,3.934,1.731.315.472.944.157.944-.472A11.446,11.446,0,0,1,792.712,92.3Zm75.6-57.195a16.329,16.329,0,0,1-.472,1.888c-.157.629-.629.787-1.259.629-.315,0-.629.157-.944.157a1.571,1.571,0,0,0,.629.787l3.3,1.888c.472.315,1.1.629,1.573.944.157.157.472,0,.629,0v-.629a9.2,9.2,0,0,1-.315-2.045c.157-2.2.472-4.248.787-6.451a3.464,3.464,0,0,1,.157-1.259c.315-2.2.472-4.248.787-6.451,0-.315,0-.787-.315-.944-.157-.157-.629,0-.944.157a21.146,21.146,0,0,0-2.2,1.731c-2.99,2.36-5.979,4.563-8.969,6.923a8.135,8.135,0,0,1-2.045.944c-.157.157-.472.157-.472.472,0,.157.157.472.315.472l2.36,1.416c.157.157.472,0,.787,0a1.418,1.418,0,0,0-.157-.787c0-.315-.472-.944-.315-1.1a27.394,27.394,0,0,1,2.2-1.888c.157-.157.629,0,.944.157A29.5,29.5,0,0,1,867.215,34,2.427,2.427,0,0,1,868.316,35.1Zm19.353,86.933c0,2.675-1.573,4.091-3.147,5.35-.157.157-.944,0-1.259-.315-2.675-2.518-5.35-5.192-7.867-7.867-1.1-1.1-1.1-1.259-.315-2.675a.482.482,0,1,0-.629-.629c-1.574,1.573-3.3,3.147-4.878,4.878a.946.946,0,0,0-.157.629c.157,0,.472.157.629.157s.315-.157.472-.315a1.051,1.051,0,0,1,1.574.157l8.025,8.025a1.492,1.492,0,0,1,.315,2.045c-.157.315,0,.629,0,.944.315-.157.629-.157.944-.315.157,0,.315-.315.472-.472,2.518-2.675,5.192-5.192,7.867-7.867a1.123,1.123,0,0,0,.157-1.731c-.629-.944-1.1-1.888-1.731-2.675-.157-.315-.787-.472-1.1-.629,0,.472-.157.944,0,1.259A16.352,16.352,0,0,0,887.67,122.036Z" transform="translate(-766.416 -5.916)" fill="#001d53"/>
      <path id="Path_2458" data-name="Path 2458" d="M780.848,81.037c.944.315,1.731.629,2.675.944,2.36.787,4.563,1.416,6.923,2.2a1.742,1.742,0,0,0,2.2-.629c.157-.157.629-.315.787-.472,0,.315.157.629.157.944l-.944,2.832c-.157.315-.472.472-.629.787-.157-.315-.315-.472-.472-.787a1.672,1.672,0,0,0-1.259-1.416c-3.147-.944-6.294-2.045-9.283-2.99h-.157c-1.259-.787-2.36-.944-3.3.472,0,.157-.472.157-.629.157a1.2,1.2,0,0,1-.315-.787c.629-1.416,1.1-2.99,1.888-4.406a.865.865,0,0,1,.787-.472,19.277,19.277,0,0,1,2.99-.315c2.2-.157,4.563-.315,6.766-.629a2.306,2.306,0,0,0,.63-.315,1.2,1.2,0,0,0-.315-.787c-1.416-1.259-2.832-2.36-4.248-3.619-1.1-.944-2.045-1.888-2.99-2.832a1.716,1.716,0,0,1-.315-1.888c.315-.944.472-1.888.787-2.832a1.092,1.092,0,0,1,.944-1.1.709.709,0,0,1,.472.472c0,1.259.787,1.731,1.888,2.045l8.969,2.832a2.66,2.66,0,0,0,.787.315,1.347,1.347,0,0,0,1.888-.472c.157-.157.315-.472.629-.629.157-.157.472,0,.629,0,0,0,.157.315,0,.472-.629,2.045-1.259,3.934-2.045,5.979a1.571,1.571,0,0,1-.787.629,2.236,2.236,0,0,1-.315-.944c.157-.787-.315-1.259-1.1-1.573-1.416-.472-2.99-.944-4.406-1.416-1.573-.472-3.147-1.1-4.72-1.731h-.787c.157.315.157.629.315.629,1.416,1.1,2.675,2.36,4.091,3.462,1.259,1.1,2.518,2.36,3.934,3.462.472.472,1.1.787,1.573,1.259a1.36,1.36,0,0,1,.472.944c0,.157-.472.472-.787.472l-9.441.944h-2.675c-.315,0-.629.157-1.1.157C780.848,80.88,780.848,80.88,780.848,81.037Z" transform="translate(-767.612 -17.156)" fill="#fff"/>
      <path id="Path_2459" data-name="Path 2459" d="M798.2,151.386a.92.92,0,0,0,.629-.157c1.416.629,2.2,0,2.99-1.1,2.36-2.675,4.72-5.192,6.923-7.867.472-.629.629-1.1.157-1.573a1.179,1.179,0,0,1-.157-.787,2,2,0,0,1,.944.157c1.573,1.259,2.99,2.675,4.406,3.934a1.687,1.687,0,0,1,.315.944h-.944a1.492,1.492,0,0,0-2.045.315c-.787.944-1.731,1.888-2.675,2.832-.472.472-.315.787.157,1.259.944.787,1.888,1.731,2.832,2.518.472.472.944.472,1.259,0,.944-1.1,1.888-2.045,2.675-3.147a1.051,1.051,0,0,0-.157-1.573c-.157-.315-.157-.787-.315-1.1.315.157.787.157,1.1.315,1.573,1.259,2.99,2.675,4.563,4.091a5.234,5.234,0,0,1,.472.944c-.315,0-.787.157-.944,0a1.307,1.307,0,0,0-1.888.315c-2.518,2.832-5.035,5.664-7.71,8.654a1.235,1.235,0,0,0,0,1.731,2,2,0,0,1,.157.944c-.315-.157-.787-.157-.944-.315l-4.248-3.776c-.315-.315-.315-.629-.472-.944h.944a1.446,1.446,0,0,0,1.573-.315c.944-1.1,2.045-2.2,2.99-3.3.472-.472.472-.944-.157-1.416-.944-.787-1.731-1.573-2.675-2.518a.815.815,0,0,0-1.259,0c-1.1,1.1-2.045,2.2-3.147,3.3a1.231,1.231,0,0,0,0,1.731,2,2,0,0,1,.157.944c-.315-.157-.629-.157-.944-.315l-4.248-3.776C798.672,152.33,798.515,151.858,798.2,151.386Z" transform="translate(-772.218 -33.535)" fill="#fff"/>
      <path id="Path_2460" data-name="Path 2460" d="M927.232,103.975c-.472,0-1.259-.157-2.046-.157a1.4,1.4,0,0,0-1.731.787c-.157.315-.629.472-.787.629,0-.315-.157-.787-.157-1.1.157-1.416.315-2.675.472-4.091a2.678,2.678,0,0,1,.157-1.1c.157-.629.472-.787.944-.315a2.753,2.753,0,0,0,2.2,1.1c2.99.315,5.822.629,8.811.787a3.067,3.067,0,0,1,1.259.157,2.115,2.115,0,0,0,2.2-.944,1.193,1.193,0,0,1,.629-.315c0,.315.157.472.157.787-.157,2.36-.315,4.72-.629,7.081a8.569,8.569,0,0,1-2.046,4.72,3.739,3.739,0,0,1-5.979-.944c-.157-.472-.315-.787-.472-1.259a.827.827,0,0,0-1.416-.315c-1.259.787-2.675,1.573-3.934,2.36-.787.472-1.416.944-2.045,1.259-.315.157-.629.315-.787.157a.692.692,0,0,1-.157-.787,19.69,19.69,0,0,1,.472-2.99,2.822,2.822,0,0,1,.787-1.1c2.045-1.1,4.091-2.045,6.136-3.147.315-.157.472-.629.787-.944a3.332,3.332,0,0,0-1.1-.472A7.057,7.057,0,0,1,927.232,103.975Zm7.081,4.878a2.984,2.984,0,0,0,3.3-2.045c.315-.787.157-1.573-.787-1.731a45.118,45.118,0,0,0-4.878-.787,1.158,1.158,0,0,0-1.259,1.259c.157,2.2.472,2.99,2.518,3.147A3.071,3.071,0,0,0,934.312,108.853Z" transform="translate(-798.583 -24.674)" fill="#fff"/>
      <path id="Path_2461" data-name="Path 2461" d="M803.529,59.9c1.259-1.731-.157-2.518-1.1-3.462-2.518-2.2-5.192-4.563-7.71-6.766-.472-.472-.944-.315-1.416,0a2.678,2.678,0,0,1-1.1.157c.157-.315.157-.787.315-.944,1.573-1.888,3.147-3.776,4.878-5.507a8.985,8.985,0,0,1,3.3-2.045c1.1-.629,2.2.157,2.99.944a2.755,2.755,0,0,1,.944,2.675c0,.315-.315.472-.315.787a1.179,1.179,0,0,0,.157.787c.157.157.472,0,.629,0a11.591,11.591,0,0,1,2.2-.629,3.635,3.635,0,0,1,3.934,3.619,6.52,6.52,0,0,1-1.731,4.72c-1.416,1.731-2.832,3.462-4.406,5.035a8.729,8.729,0,0,1-1.259.944A.338.338,0,0,0,803.529,59.9Zm.787-11.329c-.472.315-1.259.787-2.046,1.416-.629.472-.472.944,0,1.259,1.259,1.1,2.518,2.2,3.934,3.3.315.157.787.315.944.157.629-.157,1.573-1.888,1.573-2.518C808.721,50.936,806.046,48.576,804.316,48.576Zm-1.731-1.1a11.423,11.423,0,0,0-.787-1.416,14.181,14.181,0,0,0-1.573-1.416,2.018,2.018,0,0,0-3.3.629c-.157.315-.157,1.1.157,1.259a17.674,17.674,0,0,0,3.147,2.832c.157.157.787.315.944.157A6.731,6.731,0,0,0,802.585,47.474Z" transform="translate(-770.939 -12.466)" fill="#fff"/>
      <path id="Path_2462" data-name="Path 2462" d="M921.939,51.3a8.107,8.107,0,0,1-2.832,6.136,8.2,8.2,0,0,1-11.8-1.1c-1.416-1.731-2.832-3.619-4.248-5.35-.157-.157-.157-.629-.157-.787.315,0,.629-.157.787,0a1.519,1.519,0,0,0,2.2-.315c2.675-2.2,5.507-4.248,8.182-6.451.629-.472,1.1-1.1.629-1.888-.157-.315.157-.629.157-.944.315.157.629.157.787.472,1.573,2.045,2.99,4.091,4.563,5.979C921.624,48.31,921.624,50.041,921.939,51.3Zm-2.36-2.675a2.768,2.768,0,0,0-.157-.944c-.629-2.045-1.731-2.36-3.3-1.1-.315.157-.472.472-.787.629-2.518,1.888-4.878,3.934-7.4,5.822-1.1.787-1.1,1.259-.157,2.2a4.169,4.169,0,0,0,.944.787,3.445,3.445,0,0,0,3.462.472,13.469,13.469,0,0,0,5.192-3.619C918.634,51.771,919.736,50.67,919.578,48.625Z" transform="translate(-794.548 -12.357)" fill="#fff"/>
      <path id="Path_2463" data-name="Path 2463" d="M827.4,168.216c.157-4.091,1.259-6.608,3.776-8.339a8.394,8.394,0,0,1,10.857.944,7.52,7.52,0,0,1,2.675,6.608c-.787,5.979-5.35,9.755-11.643,7.71C829.916,174.038,827.241,170.891,827.4,168.216Zm3.776,1.573v.787c-.157,1.731.787,2.675,2.2,3.3a2.87,2.87,0,0,0,3.462-.472,10.1,10.1,0,0,0,1.573-2.045,17.759,17.759,0,0,0,2.36-7.4,4.647,4.647,0,0,0-.315-2.045,3.366,3.366,0,0,0-5.979-1.1C832.276,163.5,831.647,166.642,831.175,169.789Z" transform="translate(-778.444 -37.463)" fill="#fff"/>
      <path id="Path_2464" data-name="Path 2464" d="M927.4,86.285c-4.406.472-8.339-4.563-8.5-7.867a8.884,8.884,0,0,1,8.182-9.126c5.507-.472,8.811,4.406,9.126,7.71A8.555,8.555,0,0,1,927.4,86.285Zm-2.675-3.462a23.008,23.008,0,0,1,3.147-.787,11.647,11.647,0,0,0,5.822-2.675,3.6,3.6,0,0,0,1.1-1.573c.787-2.675-.787-4.72-3.619-4.72a17.666,17.666,0,0,0-8.5,2.36,3.905,3.905,0,0,0-2.046,2.832C920.157,80.935,921.731,82.666,924.72,82.823Z" transform="translate(-797.959 -18.469)" fill="#fff"/>
      <path id="Path_2465" data-name="Path 2465" d="M877.729,160.235a1.193,1.193,0,0,1-.629-.315c.157-.315.315-.787.629-.787.944-.472,1.888-.787,2.832-1.259,2.518-1.259,5.192-2.36,7.71-3.619a.85.85,0,0,1,1.259.315c.472.944,1.1,1.888,1.573,2.832.157.157,0,.629-.157.787-.315,0-.629,0-.787-.315-.315-.315-.472-.787-.944-.944a2.8,2.8,0,0,0-1.573-.629,6.6,6.6,0,0,0-4.406,1.573c-.315.157-.315.944-.157,1.259a40.232,40.232,0,0,0,1.731,3.776c.472.944.787.944,1.573.315a2.475,2.475,0,0,0,.944-2.99c-.157-.315.157-.787.315-1.259.315.315.787.472.944.787.944,1.731,1.731,3.462,2.517,5.192.157.315,0,.787,0,1.1-.315-.157-.787-.157-.944-.472-1.259-1.416-2.045-1.731-3.3-1.259-.629.315-.787.629-.629,1.259.629,1.416,1.259,2.832,2.046,4.248.157.315,1.1.472,1.416.315a5.725,5.725,0,0,0,4.406-5.035c0-.472.472-.944.629-1.416a6.383,6.383,0,0,1,.787,1.416c.157.787.315,1.573.472,2.2a.991.991,0,0,1-.472,1.259c-2.832,1.259-5.664,2.675-8.5,4.091-.787.472-1.573.787-2.36,1.259a2,2,0,0,1-.944.157c.157-.315.157-.629.315-.787.944-.787.787-1.573.315-2.518-1.259-2.518-2.517-5.035-3.776-7.71-.315-.629-.629-1.416-.944-2.046A1.521,1.521,0,0,0,877.729,160.235Z" transform="translate(-789.046 -36.562)" fill="#fff"/>
      <path id="Path_2466" data-name="Path 2466" d="M869.855,34.418a40.963,40.963,0,0,1-3.934-1.573,2.708,2.708,0,0,0-1.888-.315q-1.18.472-.944-.944a22.278,22.278,0,0,1,.629-3.147v-.315c.157-.315.472-.472.629-.787.157.315.472.472.472.787a5.852,5.852,0,0,0,1.573,3.462c.944.944,3.462,1.416,4.563.629a2.27,2.27,0,0,0,.472-3.147,23.555,23.555,0,0,0-2.045-1.731,36.054,36.054,0,0,1-3.619-3.3,4.339,4.339,0,0,1-.315-4.563,4.849,4.849,0,0,1,4.563-2.675,6.4,6.4,0,0,1,3.776,1.259,1.724,1.724,0,0,0,1.259,0c.787-.315,1.1-.157.944.787a22.278,22.278,0,0,1-.629,3.147c0,.315-.472.472-.629.629-.157-.157-.472-.472-.472-.629a5.3,5.3,0,0,0-3.619-4.248,3.279,3.279,0,0,0-2.36,1.1,1.9,1.9,0,0,0,.157,2.36c.787.787,1.573,1.416,2.36,2.2,1.416,1.1,2.99,2.045,3.776,3.619a3.7,3.7,0,0,1,0,3.619,6.006,6.006,0,0,1-4.878,3.3C870.012,34.261,869.855,34.261,869.855,34.418Z" transform="translate(-786.049 -7.276)" fill="#fff"/>
      <path id="Path_2467" data-name="Path 2467" d="M852.642,17.531c.157.787.472,1.416.629,2.2,0,.315-.157.787-.157,1.1l-.944-.472A17.885,17.885,0,0,0,849.652,18c-1.731-1.259-3.147-.472-4.091.787a1.807,1.807,0,0,0,.787,2.675,17.129,17.129,0,0,0,3.934,1.573,6.236,6.236,0,0,1,4.563,3.776c.629,1.416-.787,4.563-2.045,5.35a8.081,8.081,0,0,1-5.664,1.1,2.081,2.081,0,0,0-1.888.315c-.472.472-.944.157-1.1-.472a31.505,31.505,0,0,1-.629-3.776,2.236,2.236,0,0,1,.315-.944c.315.157.787.315.944.629.472.472.629,1.259,1.1,1.731a4.123,4.123,0,0,0,4.878,1.259,4.186,4.186,0,0,0,1.573-1.731,1.809,1.809,0,0,0-.787-2.2l-1.888-.944c-1.416-.629-2.832-1.1-4.248-1.731-1.573-.787-2.832-2.832-2.518-4.406.472-2.2,1.259-3.619,3.619-4.406a6.086,6.086,0,0,1,4.091,0c.157.157.629,0,.787-.157.472-.157.787-.472,1.259-.629a10.852,10.852,0,0,0,.472,1.259C852.8,17.531,852.642,17.531,852.642,17.531Z" transform="translate(-781.738 -7.068)" fill="#fff"/>
      <path id="Path_2468" data-name="Path 2468" d="M860.159,162.529a44.848,44.848,0,0,1,4.563-.472,30.318,30.318,0,0,1,3.776-.157c.787,0,1.1.315,1.259,1.1a12.146,12.146,0,0,1,.315,2.36,3.333,3.333,0,0,1-.472,1.1c-.315-.315-.629-.472-.787-.787a3.9,3.9,0,0,0-2.2-2.518c-1.259-.472-2.046-.157-2.046,1.259.157,3.462.315,7.081.472,10.542a2.228,2.228,0,0,0,1.416,2.2c.157,0,.315.472.472.629-.315.157-.472.315-.787.315-1.888.157-3.776.472-5.664.629a2.236,2.236,0,0,1-.944-.315,1.571,1.571,0,0,1,.629-.787c.944-.315,1.1-.944,1.1-1.888-.157-3.776-.472-7.553-.629-11.329,0-.944-.315-1.1-1.259-.944-1.573.315-2.675,1.1-2.832,2.832,0,.157,0,.472-.157.472-.157.157-.472.472-.629.472a.709.709,0,0,1-.472-.472,23.159,23.159,0,0,1,0-3.3,1.02,1.02,0,0,1,.944-.787,35.806,35.806,0,0,1,4.091-.315A.154.154,0,0,0,860.159,162.529Z" transform="translate(-784.377 -38.227)" fill="#fff"/>
      <path id="Path_2469" data-name="Path 2469" d="M823.6,38.491c.157.787.157,1.416.315,2.045a.973.973,0,0,0,1.259.787,1.419,1.419,0,0,1,.787.157,3.439,3.439,0,0,1-.472.787c-.944.472-1.888.944-2.99,1.416a.946.946,0,0,1-.629-.157v-.787a8.3,8.3,0,0,0,.472-1.888c-.315-4.563-.629-9.126-.944-13.846v-.472c.157-.315.157-.787.472-.944.157-.157.629.157.787.315l8.969,7.553c1.259.944,2.36,2.36,4.091,2.518.157,0,.315.315.315.315q0,.236-.472.472a25.458,25.458,0,0,0-2.832,1.573c-.787.472-1.573.787-2.36,1.259-.315.157-.629,0-.944.157.157-.315.157-.629.315-.944.944-1.1,1.1-1.1-.157-2.045a.154.154,0,0,1-.157-.157c-1.573-1.259-1.573-1.259-3.3-.157-.629.472-1.416.629-2.045,1.1C824.075,37.861,823.76,38.176,823.6,38.491Zm3.3-3.934a.578.578,0,0,1-.157-.472c-1.1-.944-2.045-1.888-3.147-2.675-.157-.157-.472,0-.629,0a.945.945,0,0,0-.157.629c.157,1.259.472,2.36.629,3.619q.236.944.944.472a11.74,11.74,0,0,0,1.888-1.1C826.592,35.029,826.75,34.714,826.907,34.557Z" transform="translate(-777.166 -9.146)" fill="#fff"/>
      <path id="Path_2470" data-name="Path 2470" d="M794.036,111.295a32.937,32.937,0,0,1,.787,3.3.535.535,0,0,1-.944.472c-.944-1.416-2.517-1.259-3.934-1.731-2.2-.787-4.563-1.259-6.923-1.888-1.573-.315-2.99-.629-4.563-1.1a5.52,5.52,0,0,1-1.259-.787c.315-.315.472-.787.944-.944,3.3-2.045,6.451-3.934,9.755-5.822l2.832-1.888a6.85,6.85,0,0,0,.944-1.1c.472-.472.787-.472.944.157a.578.578,0,0,0,.157.472c.315,1.731.472,3.3.787,5.035,0,.315-.157.787-.157,1.1a3.432,3.432,0,0,1-.787-.629c-.472-.787-.944-.944-1.731-.472-.315.157-.629.472-.944.629-1.259.787-1.1.787-.787,2.2a9.676,9.676,0,0,1,.157,2.2c0,1.259.315,1.573,1.416,1.731C792.305,112.554,792.62,112.4,794.036,111.295Zm-6.294.315c.157-.315.472-.472.472-.787a12.146,12.146,0,0,0-.315-2.36c0-.629-.315-.944-.944-.629l-3.3,1.888c-.472.315-.472.629,0,.787C785.067,110.98,786.326,111.138,787.742,111.61Z" transform="translate(-767.74 -24.913)" fill="#fff"/>
      <path id="Path_2471" data-name="Path 2471" d="M892.012,38.668c-.315-.315-.472-.787-.944-1.1l-2.832-1.888c-.315-.157-.787-.315-.944-.157a27.413,27.413,0,0,0-2.2,1.888c-.157.157.157.787.315,1.1a1.419,1.419,0,0,0,.157.787c-.315,0-.629.157-.787,0l-2.36-1.416a2.265,2.265,0,0,1-.315-.472c0-.157.315-.315.472-.472a11.861,11.861,0,0,0,2.046-.944c2.99-2.2,5.979-4.563,8.969-6.923.787-.629,1.416-1.1,2.2-1.731.315-.157.787-.315.944-.157a1.687,1.687,0,0,1,.315.944c-.157,2.2-.472,4.248-.787,6.451a3.463,3.463,0,0,1-.157,1.259c-.315,2.2-.629,4.248-.787,6.451a10.828,10.828,0,0,0,.315,2.045v.629H895a13.832,13.832,0,0,1-1.573-.944l-3.3-1.888a1.571,1.571,0,0,1-.629-.787c.315,0,.629-.157.944-.157a1,1,0,0,0,1.259-.629A11.618,11.618,0,0,1,892.012,38.668ZM892.8,31.9s-.157-.315-.315-.315-.629,0-.787.157c-.787.629-1.731,1.416-2.518,2.045-.629.629-.629.944,0,1.416.472.315,1.1.629,1.573.944.787.472,1.259.315,1.416-.629A13.4,13.4,0,0,0,892.8,31.9Z" transform="translate(-790.112 -9.481)" fill="#fff"/>
      <path id="Path_2472" data-name="Path 2472" d="M914.309,150.594c-.157-.472-.472-1.259-.787-2.046a3.387,3.387,0,0,1,0-1.259,3.943,3.943,0,0,1,1.1.629,25.619,25.619,0,0,1,1.731,2.675,1.114,1.114,0,0,1-.157,1.731c-2.675,2.518-5.192,5.192-7.867,7.867-.157.157-.157.315-.472.472s-.629.157-.944.315v-.944a1.492,1.492,0,0,0-.315-2.046l-8.025-8.025a1.051,1.051,0,0,0-1.573-.157c-.157.157-.315.315-.472.315a.459.459,0,1,1-.472-.787c1.573-1.573,3.147-3.3,4.878-4.878a.482.482,0,1,1,.629.629c-.787,1.259-.787,1.573.315,2.675,2.675,2.675,5.192,5.35,7.867,7.867a1.306,1.306,0,0,0,1.259.315C912.736,154.527,914.152,153.111,914.309,150.594Z" transform="translate(-793.055 -34.474)" fill="#fff"/>
      <path id="Path_2473" data-name="Path 2473" d="M862.417,103.431l.944-7.081c.157-.944-.315-1.416-1.259-1.1-1.731.472-3.619.944-5.35,1.573a2.5,2.5,0,0,0-1.416,1.416c-.787,1.573-1.259,3.3-2.045,4.878a33.3,33.3,0,0,1-4.563,7.553,19.561,19.561,0,0,1-8.654,5.979,22.312,22.312,0,0,1-8.5,1.259,23.429,23.429,0,0,1-13.06-4.563,27.205,27.205,0,0,1-8.654-10.7,27.721,27.721,0,0,1-2.046-15.105,38.039,38.039,0,0,1,2.046-7.553,27.552,27.552,0,0,1,5.035-7.553,26,26,0,0,1,6.451-5.192A22.624,22.624,0,0,1,834.1,64.1a2.343,2.343,0,0,0,1.416-.629,19.851,19.851,0,0,1,7.4-5.507c2.675-1.259,5.507-1.259,8.5-1.259a18.848,18.848,0,0,1,10.542,2.675,15.757,15.757,0,0,1,6.294,6.923,25.382,25.382,0,0,1,2.2,14.79c-.157,1.416-.157,2.832-.315,4.248-.157,2.2-.472,4.406-.787,6.608-.157.787.157,1.1.787,1.416a20.063,20.063,0,0,1,3.934,2.36c.315.157.315.629.315.944a2.333,2.333,0,0,1-1.1-.157l-2.832-1.888c-.787-.472-1.259-.157-1.259.629a81.8,81.8,0,0,0-1.416,15.105,20.725,20.725,0,0,0,1.259,6.923,3.291,3.291,0,0,0,2.045,2.045c2.832,1.1,5.665.629,6.923-2.36.629-1.416,1.259-2.99,1.731-4.406.157-.472,0-.944.157-1.416a3.432,3.432,0,0,1,.63-.787c.157.315.472.629.472.944-.787,2.518-.944,5.192-2.675,7.4a6.079,6.079,0,0,1-5.192,2.832c-4.248.157-6.451-2.2-8.339-5.507-2.2-4.091-2.675-8.339-2.518-12.745C862.574,103.431,862.574,103.431,862.417,103.431Zm-40.988-13.06h0a17.009,17.009,0,0,1,0-2.832,2.828,2.828,0,0,1,.629-1.416c.157-.157.472-.157.629-.315,0,.157.157.472.157.629a.578.578,0,0,1-.157.472,12.075,12.075,0,0,0,.157,7.081,12.9,12.9,0,0,0,12.588,8.969,11.978,11.978,0,0,0,3.3-.472,20.936,20.936,0,0,0,7.081-3.934c.787-.629.629-1.1-.157-1.573a14.769,14.769,0,0,1-1.888-1.416,1.687,1.687,0,0,1-.315-.944,2.678,2.678,0,0,1,1.1.157c.629.315,1.1.787,1.731,1.1,1.1.629,1.416.629,2.2-.472a27.625,27.625,0,0,0,3.3-5.979c.157-.157,0-.629,0-.787a1.179,1.179,0,0,0-.787-.157c-.472.157-.944.472-1.416.629-4.091.787-7.867.629-11.329-1.888a14.081,14.081,0,0,1-5.979-9.913c-.315-2.99-.472-6.136.787-8.969a20.484,20.484,0,0,1,1.259-2.675q.472-.944-.472-.944h-.629c-2.046.472-3.934.944-5.979,1.416a20.327,20.327,0,0,0-8.182,4.72,24.015,24.015,0,0,0-6.136,7.553,25.279,25.279,0,0,0-2.517,6.136,33.726,33.726,0,0,0-.472,10.542,25.1,25.1,0,0,0,3.934,10.7,26.034,26.034,0,0,0,5.35,5.664,20.3,20.3,0,0,0,8.654,4.248,21.937,21.937,0,0,0,11.486-.472,17.4,17.4,0,0,0,7.238-4.878,34.251,34.251,0,0,0,5.664-9.441c.315-.787.629-1.731.944-2.518q.236-1.18-.944-.944c-.472.157-1.1,0-1.573.157a1.787,1.787,0,0,0-1.259.472c-1.573,1.1-2.99,2.518-4.563,3.462a17.139,17.139,0,0,1-11.643,2.2,19.254,19.254,0,0,1-4.248-1.416,12.686,12.686,0,0,1-5.35-5.035,21.877,21.877,0,0,1-1.888-4.406C821.271,92.417,821.429,91.316,821.429,90.372Zm28.558-32.649a11.805,11.805,0,0,0-3.147.315,17.992,17.992,0,0,0-8.969,4.878,2.094,2.094,0,0,0-.472.787c0,.157.472.472.787.472a41.5,41.5,0,0,1,4.72,1.573,18.836,18.836,0,0,1,8.182,7.081c1.888,2.675,2.518,5.822,2.99,8.969a10.3,10.3,0,0,1,0,2.2c0,.315.157.629.157.944a1.571,1.571,0,0,0,.787-.629,25.456,25.456,0,0,0,4.248-7.867,1.193,1.193,0,0,1,.315-.629,2.659,2.659,0,0,1,.787-.315c0,.315.157.629.157.944a8.432,8.432,0,0,1-.787,1.731,40.965,40.965,0,0,1-3.619,6.294c-1.1,1.731-2.99,2.99-3.462,5.35a12.833,12.833,0,0,1-2.36,5.664c-.157.157.157.787.315.787,1.1.472,2.832-.472,3.3-1.573.629-1.888,1.259-3.776,2.046-5.664,1.573-3.619,3.147-7.081,4.563-10.7a10.244,10.244,0,0,1,4.248-5.035,1.149,1.149,0,0,0,.629-1.573,24.656,24.656,0,0,0-2.36-6.766C860.686,60.4,856.438,57.723,849.987,57.723ZM833.072,75.031a10.317,10.317,0,0,0,.157,3.147,24.463,24.463,0,0,0,2.2,5.192A12.193,12.193,0,0,0,851.8,87.461a2.087,2.087,0,0,0,.944-1.573c.157-3.462,0-6.923-1.573-10.227a17,17,0,0,0-7.552-8.025c-2.046-.944-4.248-1.573-6.294-2.36-.629-.157-1.259-.157-1.573.472C834.174,68.58,832.915,71.569,833.072,75.031Zm33.436.787c-.157-.315-.157-.629-.315-.787a.692.692,0,0,0-.787.157,18.873,18.873,0,0,0-1.731,1.888c-2.832,4.091-4.091,8.654-5.664,13.374-.315,1.1-.787,2.2-1.259,3.462a3.067,3.067,0,0,0-.157,1.259,3.386,3.386,0,0,0,1.259,0,34.178,34.178,0,0,0,3.776-1.1c.787-.315,1.888-.315,2.045-1.416.315-1.1.472-2.36.787-3.619.315-1.731.629-3.619.944-5.35C865.721,81.088,866.036,78.571,866.508,75.817Z" transform="translate(-774.206 -15.791)" fill="#001d53"/>
      <path id="Path_2474" data-name="Path 2474" d="M936.719,110.463a8.87,8.87,0,0,0-1.1-.157c-2.046-.157-2.36-.944-2.518-3.147a1.158,1.158,0,0,1,1.259-1.259c1.573.157,3.3.472,4.878.787.944.157,1.1.787.787,1.731C939.237,110.148,938.607,110.62,936.719,110.463Z" transform="translate(-800.989 -26.284)" fill="#001d53"/>
      <path id="Path_2475" data-name="Path 2475" d="M806.933,50.6c1.731,0,4.406,2.36,4.406,3.619,0,.787-.787,2.36-1.573,2.518a.966.966,0,0,1-.944-.157c-1.259-1.1-2.675-2.2-3.934-3.3-.472-.472-.629-.944,0-1.259C805.674,51.387,806.461,50.915,806.933,50.6Z" transform="translate(-773.556 -14.49)" fill="#001d53"/>
      <path id="Path_2476" data-name="Path 2476" d="M803.879,48.326c-.472.787-.787,1.573-1.259,2.2-.157.157-.787,0-.944-.157-1.1-.944-2.2-1.888-3.147-2.832a1.232,1.232,0,0,1-.157-1.259,2.1,2.1,0,0,1,3.3-.629c.472.472,1.1.944,1.573,1.416A9.263,9.263,0,0,0,803.879,48.326Z" transform="translate(-772.233 -13.317)" fill="#001d53"/>
      <path id="Path_2477" data-name="Path 2477" d="M920.756,50.086c0,2.045-.944,3.147-2.045,4.406a13.47,13.47,0,0,1-5.192,3.619,3.123,3.123,0,0,1-3.462-.472c-.315-.315-.629-.472-.944-.787-.944-.944-.944-1.416.157-2.2,2.518-2.045,4.878-3.934,7.4-5.822a3.432,3.432,0,0,0,.787-.629c1.573-1.259,2.675-.944,3.3,1.1C920.756,49.457,920.756,49.929,920.756,50.086Z" transform="translate(-795.726 -13.818)" fill="#001d53"/>
      <path id="Path_2478" data-name="Path 2478" d="M832.2,170.136c.472-3.147,1.1-6.294,3.3-8.811,1.888-2.2,4.878-1.731,5.979,1.1a3.146,3.146,0,0,1,.315,2.045c-.315,2.675-.787,5.192-2.36,7.4a10.1,10.1,0,0,1-1.573,2.045,2.84,2.84,0,0,1-3.462.472c-1.416-.629-2.36-1.573-2.2-3.3Z" transform="translate(-779.465 -37.81)" fill="#001d53"/>
      <path id="Path_2479" data-name="Path 2479" d="M925.146,83.855c-2.832-.157-4.406-1.731-4.248-4.563a3.547,3.547,0,0,1,2.045-2.832,16.5,16.5,0,0,1,8.5-2.36c2.832,0,4.406,2.045,3.619,4.72a2.885,2.885,0,0,1-1.1,1.573,12.415,12.415,0,0,1-5.822,2.675A20.966,20.966,0,0,0,925.146,83.855Z" transform="translate(-798.385 -19.502)" fill="#001d53"/>
      <path id="Path_2480" data-name="Path 2480" d="M827.334,36.115c-.157.157-.315.472-.472.472a11.737,11.737,0,0,0-1.888,1.1q-.944.472-.944-.472c-.157-1.259-.472-2.36-.629-3.619a.946.946,0,0,1,.157-.629c0-.157.472-.157.629,0,1.1.944,2.045,1.888,3.147,2.675Z" transform="translate(-777.593 -10.704)" fill="#001d53"/>
      <path id="Path_2481" data-name="Path 2481" d="M789.395,113.885c-1.416-.315-2.832-.629-4.091-.944-.472-.157-.472-.629,0-.787a35.365,35.365,0,0,1,3.3-1.888c.629-.315.787,0,.944.629a12.141,12.141,0,0,1,.315,2.36A2.936,2.936,0,0,0,789.395,113.885Z" transform="translate(-769.392 -27.189)" fill="#001d53"/>
      <path id="Path_2482" data-name="Path 2482" d="M894.6,33.1c-.157,1.416-.315,2.518-.472,3.619-.157.944-.629,1.1-1.416.629-.472-.315-1.1-.629-1.574-.944-.787-.472-.787-.787,0-1.416s1.731-1.416,2.518-2.045a.692.692,0,0,1,.787-.157C894.6,32.625,894.6,33.1,894.6,33.1Z" transform="translate(-791.914 -10.676)" fill="#001d53"/>
    </g>
  </g>
</svg>
