<svg xmlns="http://www.w3.org/2000/svg" xmlns:xlink="http://www.w3.org/1999/xlink" width="200" height="150" viewBox="0 0 200 150">
  <defs>
    <clipPath id="clip-feather">
      <rect width="200" height="150"/>
    </clipPath>
  </defs>
  <g id="feather" clip-path="url(#clip-feather)">
    <g id="Group_942" data-name="Group 942" transform="translate(0.352 20.829)">
      <path id="Path_2415" data-name="Path 2415" d="M132.826,99.51V89.426c0-.306-.611-.815-1.019-1.019s-1.019-.1-1.426-.407h9.371v.1c-.407,0-1.019.1-1.426.1A1.369,1.369,0,0,0,137,89.63v20.78c0,1.019.407,1.426,1.324,1.426a2.466,2.466,0,0,1,1.324.407h-9.269v-.1a3.6,3.6,0,0,1,.611-.1c2.139-.306,2.139-.306,2.139-2.445V100.02H121.825v8.251c0,1.019-.306,2.139.1,2.954.306.611,1.528.713,2.445,1.12H115v-.1a2.531,2.531,0,0,1,.815-.1c1.732-.306,1.834-.306,1.834-2.139V90.954c0-2.241,0-2.241-2.241-2.547A.546.546,0,0,1,115,88.1h9.371v.1a.612.612,0,0,1-.407.1c-2.139.306-2.139.306-2.139,2.445v8.862h11Z" transform="translate(0.205 -46.644)"/>
      <path id="Path_2416" data-name="Path 2416" d="M185.469,112.447H176.2v-.1a2.532,2.532,0,0,1,.815-.1c1.732-.1,1.732-.306,1.732-2.037V92.278c0-1.019.306-2.139-.1-2.852s-1.528-.815-2.445-1.324c.1,0,.306-.1.407-.1,3.667,0,7.436,0,11.1.1a13.788,13.788,0,0,1,3.667.815,6,6,0,0,1,3.667,5.7,5.862,5.862,0,0,1-3.565,5.7,22.018,22.018,0,0,1-4.38,1.426,4.193,4.193,0,0,0,.815.306,7.314,7.314,0,0,1,4.38,3.565c.611,1.019,1.324,2.037,1.833,2.954,1.019,1.732,2.037,3.26,4.176,3.667l-.1.306c-1.528,0-2.954-.1-4.584,0a2.26,2.26,0,0,1-2.445-1.426c-1.019-1.834-2.139-3.667-3.158-5.6-.611-.815-1.12-1.732-1.732-2.547a3.059,3.059,0,0,0-3.667-1.426v7.13C182.923,111.53,182.923,111.53,185.469,112.447ZM182.923,88.2v12.834c2.547,0,5.093.407,6.723-2.139a8.562,8.562,0,0,0-.1-8.556c-1.426-2.648-4.074-2.139-6.621-2.139Z" transform="translate(1.344 -46.644)"/>
      <path id="Path_2417" data-name="Path 2417" d="M91.269,74.641a2.717,2.717,0,0,0-.611-2.954c-.1,1.426.407,2.852-1.426,3.463.1-1.528.306-3.26.407-4.991h-.306c-.1.815-.306,1.732-.407,2.445-.407-1.12-.815-2.241-1.426-3.565,1.019-.611,1.019-.815,0-2.037l1.833-.1-.1.306a17.2,17.2,0,0,1,2.445.815c.815.407,1.426.713,2.139-.1.1,1.426.713.306,1.12.306a1.162,1.162,0,0,1,.306.611,11.981,11.981,0,0,1,1.528-1.12v1.12h.306l-.611.713.1.1.815-.407c.611,0-.611,1.426.815.611l-1.12,1.222h3.565l-.1.713a1.55,1.55,0,0,1,.611-.407l.611-.407h0l.1-.1a3.35,3.35,0,0,0,.611.611l.407.407c1.12-.713.815.407,1.12,1.019.1-.407.1-.611.306-.815.1-.407.1-.815.815-.713.306.1.815-.611,1.12-.815.611-.611,1.019-1.12,1.528-1.732l.306.1-1.019,2.852.306.1c.407-1.019.713-2.037,1.12-2.954.1-.306.407-.407.713-.611l2.445-1.426c-.306,1.12-.611,1.834-.815,2.547l.1.1.815-1.528,1.12.306a9.682,9.682,0,0,1-.611,1.834l.1.1,1.12-1.324.1.1-.713,1.324.1.1,1.12-.815a4.327,4.327,0,0,1-.611,3.565,10.437,10.437,0,0,1-7.232,4.176,3.517,3.517,0,0,0-1.324.306h3.26a7.2,7.2,0,0,1-4.686,1.019,3.465,3.465,0,0,0-1.019.1c-1.019.815-2.037.407-2.954.306-1.426-.1-2.852-.407-3.667-1.833a2.532,2.532,0,0,1-.1.815c-2.037.1-2.241-2.037-3.565-2.852l-.1.611-.815-1.222Z" transform="translate(-0.307 -47.037)"/>
      <path id="Path_2418" data-name="Path 2418" d="M47.133,112.447H29.1v-.306a3.466,3.466,0,0,1,1.019-.1c1.324,0,1.732-.713,1.528-1.834V90.75c0-2.139,0-2.139-2.139-2.445A.726.726,0,0,1,28.9,88H46.828v5.6l-.1.1c-.1-.407-.306-.713-.407-1.12-1.12-3.26-2.547-4.278-6.01-4.278H35.725V100.02a40.638,40.638,0,0,0,4.889-.306c1.833-.407,2.139-2.139,2.852-3.667V104.5h-.1c-.1-.611-.306-1.019-.407-1.528a3.074,3.074,0,0,0-3.26-2.445H36.03v11.918a56.324,56.324,0,0,0,7.232-.407c2.037-.306,2.954-2.037,3.565-3.871.1-.407.306-.815.407-1.324h.306C47.337,108.678,47.337,110.511,47.133,112.447Z" transform="translate(-1.398 -46.644)"/>
      <path id="Path_2419" data-name="Path 2419" d="M166.326,93.7a9.787,9.787,0,0,1-.713-2.037,4.879,4.879,0,0,0-4.991-3.463h-5.3V99.918a25.691,25.691,0,0,0,4.889-.407c1.834-.407,2.139-2.139,2.75-3.667V104.3h-.306a4.592,4.592,0,0,0-.306-1.12,3.68,3.68,0,0,0-3.565-2.852h-3.463v11.816c2.241,0,4.38.1,6.723,0,2.037-.1,3.158-1.732,3.973-3.463.306-.611.407-1.324.713-1.834h.306c-.1,1.834-.1,3.667-.306,5.7H148.6v-.1a.613.613,0,0,1,.407-.1c2.139-.306,2.139-.306,2.139-2.445V90.648c0-2.037,0-2.037-2.037-2.241-.306,0-.407-.1-.611-.407h17.928v5.7Z" transform="translate(0.828 -46.644)"/>
      <path id="Path_2420" data-name="Path 2420" d="M1.9,88H20.133v5.7l-.1.1a4.193,4.193,0,0,1-.306-.815c-1.12-3.565-2.547-4.584-6.315-4.584H9.03v12.427a27.146,27.146,0,0,0,4.889-.407c1.833-.407,2.241-2.139,2.75-3.667v8.454c-.611-1.324-.815-2.954-2.241-3.565-1.528-.407-3.463-.407-5.3-.713,0,.713-.1,1.12-.1,1.528v7.741c0,2.037,0,2.037,2.037,2.241a.726.726,0,0,1,.611.306H2.206v-.306a2.531,2.531,0,0,1,.815-.1c1.732-.1,1.833-.306,1.833-2.037V90.648c0-1.732-.1-1.834-1.833-2.037H2.409C2.307,88.2,2.206,88.2,1.9,88Z" transform="translate(-1.9 -46.644)"/>
      <path id="Path_2421" data-name="Path 2421" d="M87.1,88h18.641v5.7c-1.12-3.463-2.852-6.01-7.232-5.3V109.9c0,2.037,0,2.037,1.833,2.139a.612.612,0,0,1,.407.1l.306.306H91.687v-.1c.306-.1.611-.1.815-.306,1.732-.306,1.834-.306,1.834-2.037V88.2c-1.834-.1-3.565-.306-4.889,1.019A35.182,35.182,0,0,0,86.9,93.4V88Z" transform="translate(-0.318 -46.644)"/>
      <path id="Path_2422" data-name="Path 2422" d="M68.338,87.7l6.519,17.52c.407,1.324,1.019,2.547,1.426,3.871.611,1.426.815,2.954,2.954,2.954l-.306.306H69.561v-.1c.611-.1,1.12-.306,1.732-.407.815-.1,1.324-.713.815-1.528-.713-1.834-1.324-3.667-2.037-5.4-.1-.306-.611-.611-.815-.713H61.514a.864.864,0,0,0-.815.713c-.611,1.833-1.12,3.565-1.732,5.4-.306,1.019,0,1.426,1.019,1.528a10.958,10.958,0,0,1,3.158.713H55.3a10.571,10.571,0,0,1,1.019-.407,2.824,2.824,0,0,0,2.445-2.139c2.139-6.723,4.278-13.446,6.417-20.27C65.894,87.5,65.894,87.5,68.338,87.7Zm1.732,15.992L65.486,90.859,61.31,103.694Z" transform="translate(-0.906 -46.651)"/>
      <path id="Path_2423" data-name="Path 2423" d="M42.6,141.6H159.638v.306H42.6Z" transform="translate(-1.143 -45.647)"/>
      <path id="Path_2424" data-name="Path 2424" d="M159.638,119.306H42.6V119H159.638Z" transform="translate(-1.143 -46.067)"/>
      <path id="Path_2425" data-name="Path 2425" d="M127.72,131.16v3.26c-.713.1-1.12.1-1.12-.713V127.9c1.12,0,2.241-.1,3.26,0a2.277,2.277,0,0,1,1.426,1.324c.306,1.12-.611,1.528-1.426,2.139l2.241,2.954a1.342,1.342,0,0,1-1.834-.611,8.093,8.093,0,0,0-1.426-1.834A2.369,2.369,0,0,0,127.72,131.16Zm.1-.306c1.528,0,2.241-.407,2.241-1.324s-.713-1.426-2.241-1.324Z" transform="translate(0.421 -45.903)"/>
      <path id="Path_2426" data-name="Path 2426" d="M110.4,130.963a3.4,3.4,0,0,1,3.565-3.463,3.567,3.567,0,0,1,3.667,3.565,3.4,3.4,0,0,1-3.565,3.463A3.45,3.45,0,0,1,110.4,130.963Zm5.908-.306a2.053,2.053,0,0,0-.306-1.12,2.191,2.191,0,0,0-4.176,0,4.968,4.968,0,0,0-.306,1.426c0,1.834,1.019,3.158,2.241,3.158,1.63.1,2.547-1.324,2.547-3.463Z" transform="translate(0.119 -45.909)"/>
      <path id="Path_2427" data-name="Path 2427" d="M87.418,129.437c-1.732-1.528-2.852-1.732-4.176-.713a3.186,3.186,0,0,0-.306,4.38c1.12,1.12,2.445,1.019,4.278-.611a1.182,1.182,0,0,1-.713,1.426,3.847,3.847,0,0,1-4.584-.611,3.384,3.384,0,0,1-.306-4.38A3.718,3.718,0,0,1,85.89,127.6C86.705,128.113,87.418,128.521,87.418,129.437Z" transform="translate(-0.429 -45.911)"/>
      <path id="Path_2428" data-name="Path 2428" d="M69.56,127.3l3.26,7.028c-.815.407-1.12.1-1.426-.611-.611-1.426-1.528-1.833-3.158-1.426a1.231,1.231,0,0,0-.713.713c-.306.611-.611,1.019-.815,1.528l-.407-.306C67.319,131.986,68.235,129.847,69.56,127.3Zm-1.426,4.278h2.139c-.407-.815-.713-1.426-1.12-2.445Z" transform="translate(-0.701 -45.913)"/>
      <path id="Path_2429" data-name="Path 2429" d="M55.22,131.16V133.6c0,.917-.1,1.12-1.12.815V127.9h4.278v.306H55.424v2.241l2.139.1v.306Z" transform="translate(-0.929 -45.902)"/>
      <path id="Path_2430" data-name="Path 2430" d="M143.16,134.528c-.306-.306-.713-.611-.713-.713.407-2.241-1.12-3.667-2.241-5.4-.1-.1-.1-.306-.306-.407v-.1c1.019-.306,1.019-.306,1.833,1.019a12.369,12.369,0,0,0,1.426,2.037L145.6,127.5l.407.306c-1.12,2.037-3.26,3.667-2.445,6.417Z" transform="translate(0.668 -45.909)"/>
      <path id="Path_2431" data-name="Path 2431" d="M101.9,128.306H99.661v5.3c0,.815,0,.815-1.12.815v-6.01l-2.241-.1V128h5.806Z" transform="translate(-0.143 -45.9)"/>
      <path id="Path_2432" data-name="Path 2432" d="M95.493,51.045a2.522,2.522,0,0,1-2.547,2.547h0A2.5,2.5,0,0,1,90.4,51.147h0A2.587,2.587,0,0,1,92.947,48.6,2.379,2.379,0,0,1,95.493,51.045Zm-.917.611c0-1.426-.815-2.75-1.833-2.75a1.567,1.567,0,0,0-1.528,1.528,2.741,2.741,0,0,0,1.833,2.75C94.067,53.388,94.576,52.675,94.576,51.656Z" transform="translate(-0.253 -47.378)"/>
      <path id="Path_2433" data-name="Path 2433" d="M83.131,56.269l1.528-1.324c.1-.815-1.528-1.324-.611-2.445l3.158,3.871c-1.426.713-1.324-.815-2.241-1.12a8.242,8.242,0,0,0-1.528,1.324A6.539,6.539,0,0,1,84.455,57.9c.1.1,0,.407,0,.713-.306,0-.611,0-.713-.1-.815-1.019-1.528-1.833-2.241-2.852-.1-.1,0-.407,0-.713.306,0,.611,0,.713.1A6.348,6.348,0,0,0,83.131,56.269Z" transform="translate(-0.419 -47.305)"/>
      <path id="Path_2434" data-name="Path 2434" d="M110.433,49.4l2.852,1.324-.1.306-2.139-.815c-.1.407-.407.815-.611,1.426l1.426.713-.1.1-1.426-.407-.815,1.732,2.139,1.12-.1.306L108.6,53.882Z" transform="translate(0.086 -47.363)"/>
      <path id="Path_2435" data-name="Path 2435" d="M103.1,148.7a26.89,26.89,0,0,1,2.75,1.019c.306.1.306,1.324.1,1.732-.611,1.12-1.732,1.019-2.852.815V148.7Zm.509,3.667c.713-.407,1.426-.611,1.528-1.019a2.292,2.292,0,0,0-.1-1.426,3.74,3.74,0,0,0-1.426-.611Z" transform="translate(-0.017 -45.515)"/>
      <path id="Path_2436" data-name="Path 2436" d="M104.571,48.215h-1.528c-.1,1.426-.306,2.852-.407,4.38-1.324-.407-.611-1.426-.611-2.139a20.456,20.456,0,0,1,.1-2.445l-1.426-.306V47.4l3.871.306Z" transform="translate(-0.061 -47.4)"/>
      <path id="Path_2437" data-name="Path 2437" d="M70.854,150.528c.1.1.713.611.611.713a1.253,1.253,0,0,1-.713,1.12A2.116,2.116,0,0,1,68,151.037,1.63,1.63,0,0,1,69.326,149h.1a15.185,15.185,0,0,1,1.834.407c-.815,0-1.732-.1-2.139.306a1.939,1.939,0,0,0-.1,1.834c.1.306.815.407,1.426.611C70.65,151.648,70.65,151.241,70.854,150.528Z" transform="translate(-0.671 -45.509)"/>
      <path id="Path_2438" data-name="Path 2438" d="M97.5,149.819v2.445h-.1V148.8l2.241,2.547c0-.815.1-1.426.1-2.139h.1v3.26Z" transform="translate(-0.123 -45.513)"/>
      <path id="Path_2439" data-name="Path 2439" d="M115.3,57.663l3.158-3.463.407.1a3.465,3.465,0,0,1-.1,1.019c-.713.815-1.528,1.732-2.547,2.852l1.732,1.426-.1.1Z" transform="translate(0.211 -47.273)"/>
      <path id="Path_2440" data-name="Path 2440" d="M58.04,149.1c1.12.306,1.732,1.019,1.426,2.037a1.829,1.829,0,0,1-3.565-.815h0A1.569,1.569,0,0,1,58.04,149.1a1.548,1.548,0,0,0-1.426,2.241c.1.407.611.611.815.713a1.552,1.552,0,0,0,1.019-.611C59.16,150.528,58.753,149.815,58.04,149.1Z" transform="translate(-0.896 -45.509)"/>
      <path id="Path_2441" data-name="Path 2441" d="M65.245,149.106v3.463L63,150.022c0,.815-.1,1.528-.1,2.241h-.1V148.8l2.445,2.547c0-.815.1-1.426.1-2.139v-.1Z" transform="translate(-0.767 -45.513)"/>
      <path id="Path_2442" data-name="Path 2442" d="M143.045,151.346v-2.139h.1v3.26l-2.241-2.547v2.139H140.6V148.8C141.415,149.717,142.128,150.43,143.045,151.346Z" transform="translate(0.681 -45.513)"/>
      <path id="Path_2443" data-name="Path 2443" d="M91.3,152.063l1.528-3.463c.611,1.324,1.12,2.445,1.528,3.463l-.1.407C93.439,151.35,92.42,150.128,91.3,152.063Z" transform="translate(-0.236 -45.517)"/>
      <path id="Path_2444" data-name="Path 2444" d="M83.637,149.711l-1.528-.306-.1.407c.407.306.713.611,1.019.815a2.889,2.889,0,0,1,.815,1.12c0,.1-.611.713-.815.713a7.5,7.5,0,0,1-1.426-.407l.1-.407c.1.1.306.306.407.306h1.019a6.051,6.051,0,0,0-.407-.815c-.1-.1-.407-.1-.407-.306a1.77,1.77,0,0,1-.611-1.12c0-.306.611-.611.815-.611a9.46,9.46,0,0,1,1.324.407Z" transform="translate(-0.417 -45.507)"/>
      <path id="Path_2445" data-name="Path 2445" d="M114.843,149.1c-.407.306-1.12.611-1.426,1.12a1.631,1.631,0,0,0,.407,1.528c.407.306,1.12,0,1.732,0-.306.611-1.019.815-2.037.407a1.8,1.8,0,0,1-.815-2.445h0A1.751,1.751,0,0,1,114.843,149.1Z" transform="translate(0.158 -45.51)"/>
      <path id="Path_2446" data-name="Path 2446" d="M122.4,149.1h2.445v.1l-.815.306c0,1.019-.1,2.037-.1,2.954h-.407v-2.852L122.5,149.3v-.2Z" transform="translate(0.343 -45.507)"/>
      <path id="Path_2447" data-name="Path 2447" d="M147.628,150.528l1.12-1.426h.1c-.407,1.12-.815,2.139-1.324,3.26L146.1,149.1l.1-.1Z" transform="translate(0.784 -45.509)"/>
      <path id="Path_2448" data-name="Path 2448" d="M130.552,148.8l-1.426,3.565-1.426-3.26.1-.1,1.426,1.528Z" transform="translate(0.441 -45.513)"/>
      <path id="Path_2449" data-name="Path 2449" d="M51.2,152.26V149h.407c0,1.019.1,1.834.1,2.954l1.324.306v.1H51.2Z" transform="translate(-0.982 -45.509)"/>
      <path id="Path_2450" data-name="Path 2450" d="M86.7,152.26V149h.407c.1,1.019.1,1.834.306,2.954l1.324.1v.1Z" transform="translate(-0.322 -45.509)"/>
      <path id="Path_2451" data-name="Path 2451" d="M78.61,152.365a3.238,3.238,0,0,1,0-3.565Z" transform="translate(-0.482 -45.513)"/>
      <path id="Path_2452" data-name="Path 2452" d="M118.9,152.563V149.1C119.613,149.711,119.613,151.545,118.9,152.563Z" transform="translate(0.277 -45.507)"/>
      <path id="Path_2453" data-name="Path 2453" d="M91.2,74.5c.1.611,1.019,1.12,0,2.037a3.14,3.14,0,0,0-.1-1.019v-.1c-.1-.306.1-.407.1-.917Zm.1,1.324Z" transform="translate(-0.24 -46.896)"/>
      <path id="Path_2454" data-name="Path 2454" d="M101.3,70.807V70.4l.1.306Z" transform="translate(-0.05 -46.972)"/>
      <path id="Path_2455" data-name="Path 2455" d="M100.6,71.315c0-.306.1-.611.1-.815l.611.407Z" transform="translate(-0.063 -46.97)"/>
    </g>
  </g>
</svg>
