<svg xmlns="http://www.w3.org/2000/svg" xmlns:xlink="http://www.w3.org/1999/xlink" width="661.244" height="481.935" viewBox="0 0 661.244 481.935">
  <defs>
    <linearGradient id="linear-gradient" x1="1" x2="0" gradientUnits="objectBoundingBox">
      <stop offset="0" stop-color="#4d4d4d"/>
      <stop offset="0.019" stop-color="#d9d8d8"/>
      <stop offset="0.047" stop-color="#4d4d4d"/>
      <stop offset="0.419" stop-color="#959595"/>
      <stop offset="0.932" stop-color="#868686"/>
      <stop offset="0.969" stop-color="#d8d8d8"/>
      <stop offset="1" stop-color="#4a4a4a"/>
    </linearGradient>
    <linearGradient id="linear-gradient-2" x1="0.5" x2="0.5" y2="1" gradientUnits="objectBoundingBox">
      <stop offset="0" stop-color="#fff"/>
      <stop offset="1" stop-color="#c5d6f0"/>
    </linearGradient>
    <linearGradient id="linear-gradient-3" x1="0.5" x2="0.5" y2="1" gradientUnits="objectBoundingBox">
      <stop offset="0" stop-color="#aaa"/>
      <stop offset="1" stop-color="#2c2c2c"/>
    </linearGradient>
    <clipPath id="clip-path">
      <path id="Path_2382" data-name="Path 2382" d="M11.642,0A11.642,11.642,0,1,1,0,11.642,11.642,11.642,0,0,1,11.642,0Z" transform="translate(0 0)" fill="#6ea6ec" opacity="0.997"/>
    </clipPath>
  </defs>
  <g id="Group_4479" data-name="Group 4479" transform="translate(-679.107 -147.393)">
    <g id="Group_4413" data-name="Group 4413" transform="translate(-2 -26)">
      <g id="Group_3338" data-name="Group 3338" transform="translate(681.107 520.134)">
        <path id="Path_3093" data-name="Path 3093" d="M5.124,0H656.789c2.83,0,4.455,2.652,4.455,5.857v8.7c-.114,3.645-5.326,4.837-10.239,5.022L11.214,19.5C4.668,19.639,1.036,18.235,0,14.632V5.8C0,2.6,2.294,0,5.124,0Z" transform="translate(0 115.613)" opacity="0.505" fill="url(#linear-gradient)"/>
        <g id="Union_218" data-name="Union 218" transform="translate(0.677)" fill="#242424">
          <path d="M 8.741256713867188 124.0239486694336 C 6.905340194702148 124.0239486694336 5.235673427581787 123.6541137695312 3.912840366363525 122.9542846679688 C 2.76642370223999 122.3478622436523 1.903756976127625 121.5161972045898 1.418007016181946 120.5493621826172 C 0.7754236459732056 119.2702789306641 0.8785903453826904 117.9027786254883 1.701007008552551 116.7976150512695 L 1.902006983757019 116.5275344848633 L 1.901567220687866 116.4831237792969 L 94.51667022705078 6.228531360626221 L 94.53192138671875 6.210448265075684 L 94.54625701904297 6.19169807434082 C 95.59700775146484 4.813448429107666 97.52242279052734 3.486698150634766 99.96792602539062 2.45578145980835 C 102.0980072021484 1.557864904403687 104.3785095214844 1.000031590461731 105.9195098876953 1.000031590461731 L 562.750244140625 1.129864931106567 C 564.38818359375 1.129864931106567 566.118896484375 1.522698163986206 567.6238403320312 2.235948324203491 C 569.4607543945312 3.106531620025635 570.9619140625 4.417864799499512 572.0855712890625 6.133281707763672 L 572.108154296875 6.167864799499512 L 572.1336059570312 6.200448036193848 L 658.3350830078125 116.7119140625 L 658.3836059570312 116.792366027832 C 659.0569458007812 117.9093627929688 659.7032470703125 119.517448425293 658.9588623046875 120.83544921875 C 658.1544799804688 122.2596130371094 655.854248046875 123.10986328125 652.8057861328125 123.1099472045898 C 652.6126098632812 123.1099472045898 652.413818359375 123.1066131591797 652.2150268554688 123.0999450683594 L 652.1975708007812 123.099365234375 L 652.1801147460938 123.099365234375 L 9.253506660461426 124.0153656005859 L 9.237590789794922 124.0153656005859 L 9.221756935119629 124.0159454345703 C 9.061090469360352 124.0212783813477 8.899423599243164 124.0239486694336 8.741256713867188 124.0239486694336 Z" stroke="none"/>
          <path d="M 8.741256713867188 123.0239486694336 C 8.888423919677734 123.0239486694336 9.038923263549805 123.0214462280273 9.188590049743652 123.0164489746094 L 9.220340728759766 123.0154495239258 L 9.252090454101562 123.0153656005859 L 652.1786499023438 122.099365234375 L 652.2135620117188 122.0992813110352 L 652.2484130859375 122.1004486083984 C 652.4359130859375 122.1067810058594 652.6234130859375 122.1099472045898 652.8056640625 122.1099472045898 C 655.9650268554688 122.10986328125 657.6058959960938 121.1975326538086 658.0881958007812 120.3436965942383 C 658.5953369140625 119.4457015991211 658.06298828125 118.1976165771484 657.5271606445312 117.3087005615234 L 657.5093994140625 117.2792587280273 L 571.3450927734375 6.81544828414917 L 571.2943115234375 6.75028133392334 L 571.2490234375 6.681198120117188 C 570.2276611328125 5.121864795684814 568.8638305664062 3.930281639099121 567.1956176757812 3.139614820480347 C 565.82177734375 2.488448143005371 564.2431030273438 2.129864931106567 562.7499389648438 2.129864931106567 L 105.9195098876953 2.000031471252441 C 104.5246734619141 2.000031471252441 102.3410034179688 2.54061484336853 100.3564224243164 3.377281665802002 C 98.10225677490234 4.327531337738037 96.27442169189453 5.574281692504883 95.34150695800781 6.797948360443115 L 95.31284332275391 6.835531711578369 L 95.28242492675781 6.871781349182129 L 2.90506649017334 116.8433456420898 L 2.905173778533936 116.8544464111328 L 2.503257036209106 117.3946151733398 C 1.906173706054688 118.1969451904297 1.838090300559998 119.1579513549805 2.311590433120728 120.1004486083984 C 3.021590232849121 121.5137786865234 5.083507061004639 123.0239486694336 8.741256713867188 123.0239486694336 M 8.741256713867188 125.0239486694336 C 1.40942370891571 125.0240325927734 -1.683159708976746 119.670280456543 0.8987569808959961 116.2006149291992 C 0.8985069990158081 116.1747817993164 0.8982570171356201 116.1490325927734 0.8982570171356201 116.1228637695312 L 93.75100708007812 5.585364818572998 C 96.30942535400391 2.229698181152344 102.6790924072266 3.155517697450705e-05 105.9195098876953 3.155517697450705e-05 L 562.75048828125 0.1298648864030838 C 565.9903564453125 0.1298648864030838 570.2578125 1.517864942550659 572.922119140625 5.585364818572998 L 659.2401733398438 116.2462844848633 C 659.2401733398438 116.2561950683594 659.2401123046875 116.2662811279297 659.239990234375 116.2761154174805 C 662.0851440429688 120.9958267211914 658.9030151367188 124.1097640991211 652.8057861328125 124.1099624633789 C 652.6007690429688 124.1099700927734 652.3930053710938 124.1064605712891 652.1815185546875 124.099365234375 L 9.254923820495605 125.0153656005859 C 9.08159065246582 125.0211181640625 8.910173416137695 125.0239486694336 8.741256713867188 125.0239486694336 Z" stroke="none" fill="#e2e2e2"/>
        </g>
        <g id="Path_3052" data-name="Path 3052" transform="translate(81.391 7.901)" fill="url(#linear-gradient-2)">
          <path d="M 559.5612182617188 105.5051040649414 L -53.53827667236328 104.8881072998047 L 26.8735179901123 -3.807273626327515 L 477.3013000488281 -3.807273626327515 L 559.5612182617188 105.5051040649414 Z" stroke="none"/>
          <path d="M 27.1256103515625 -3.307273864746094 L -52.547119140625 104.3891067504883 L 558.5584716796875 105.0040893554688 L 477.0518188476562 -3.307273864746094 L 27.1256103515625 -3.307273864746094 M 26.62149047851562 -4.307273864746094 L 477.55078125 -4.307273864746094 L 560.5640258789062 106.0061111450195 L -54.52935791015625 105.3871078491211 L 26.62149047851562 -4.307273864746094 Z" stroke="none" fill="#343434"/>
        </g>
        <ellipse id="Ellipse_250" data-name="Ellipse 250" cx="8.301" cy="4.216" rx="8.301" ry="4.216" transform="translate(580.004 53.069)" fill="none" opacity="0.818"/>
        <g id="Ellipse_251" data-name="Ellipse 251" transform="translate(66.868 46.108)" fill="#fff" stroke="#2f2f2f" stroke-width="1">
          <ellipse cx="2.399" cy="1.304" rx="2.399" ry="1.304" stroke="none"/>
          <ellipse cx="2.399" cy="1.304" rx="1.899" ry="0.804" fill="none"/>
        </g>
        <path id="Path_3094" data-name="Path 3094" d="M1.967.622c1.1,0,2.03.35,2.03.963s-.933,1.091-2.03,1.091-2-.393-2-1.006S.87.622,1.967.622Z" transform="translate(67.299 45.743)" fill="url(#linear-gradient-3)"/>
        <circle id="Ellipse_527" data-name="Ellipse 527" cx="0.87" cy="0.87" r="0.87" transform="translate(329.664 129.645)" fill="#242424"/>
      </g>
      <g id="Union_220" data-name="Union 220" transform="translate(791 308.256)" fill="url(#linear-gradient-2)">
        <path d="M 38.54925155639648 81.67404937744141 C 37.35497283935547 81.67404937744141 36.25559616088867 81.07483673095703 35.60840606689453 80.07114410400391 L 31.98423004150391 74.45412445068359 L 31.8365306854248 74.22520446777344 L 31.56409645080566 74.22520446777344 L 13.00049686431885 74.22520446777344 C 9.661430358886719 74.22520446777344 6.522252559661865 72.92498779296875 4.161219120025635 70.56407928466797 C 1.800241231918335 68.20321655273438 0.4999968111515045 65.06431579589844 0.4999968111515045 61.72560119628906 L 0.4999968111515045 12.99960231781006 C 0.4999968111515045 9.660891532897949 1.800241231918335 6.52199125289917 4.161219120025635 4.161124706268311 C 6.522252559661865 1.800213575363159 9.661430358886719 0.5000024437904358 13.00049686431885 0.5000024437904358 L 61.72560882568359 0.5000024437904358 C 65.06467437744141 0.5000024437904358 68.20384979248047 1.800213575363159 70.56488800048828 4.161124706268311 C 72.92586517333984 6.52199125289917 74.22610473632812 9.660891532897949 74.22610473632812 12.99960231781006 L 74.22610473632812 61.72560119628906 C 74.22610473632812 65.06431579589844 72.92586517333984 68.20321655273438 70.56488800048828 70.56407928466797 C 68.20384979248047 72.92498779296875 65.06467437744141 74.22520446777344 61.72560882568359 74.22520446777344 L 45.53440856933594 74.22520446777344 L 45.2619743347168 74.22520446777344 L 45.11427307128906 74.45412445068359 L 41.49016189575195 80.07102203369141 C 40.8429069519043 81.07483673095703 39.7435302734375 81.67404937744141 38.54925155639648 81.67404937744141 Z" stroke="none"/>
        <path d="M 38.54925155639648 81.17404937744141 C 39.58816528320312 81.17404937744141 40.50688552856445 80.67329406738281 41.07001876831055 79.79994964599609 L 44.69412994384766 74.18304443359375 L 44.98954010009766 73.72520446777344 L 45.53440856933594 73.72520446777344 L 61.72560882568359 73.72520446777344 C 64.93112945556641 73.72520446777344 67.94475555419922 72.47698974609375 70.21134185791016 70.21051025390625 C 72.47787475585938 67.944091796875 73.72610473632812 64.93075561523438 73.72610473632812 61.72560119628906 L 73.72610473632812 12.99960231781006 C 73.72610473632812 9.79444694519043 72.47787475585938 6.781113624572754 70.21134185791016 4.514691352844238 C 67.94475555419922 2.248213529586792 64.93112945556641 1.000002503395081 61.72560882568359 1.000002503395081 L 13.00049686431885 1.000002503395081 C 9.794974327087402 1.000002503395081 6.781352519989014 2.248213529586792 4.514763355255127 4.514691352844238 C 2.248230218887329 6.781113624572754 0.9999968409538269 9.79444694519043 0.9999968409538269 12.99960231781006 L 0.9999968409538269 61.72560119628906 C 0.9999968409538269 64.93075561523438 2.248230218887329 67.944091796875 4.514763355255127 70.21051025390625 C 6.781352519989014 72.47698974609375 9.794974327087402 73.72520446777344 13.00049686431885 73.72520446777344 L 31.56409645080566 73.72520446777344 L 32.10896301269531 73.72520446777344 L 32.40437316894531 74.18304443359375 L 36.02862930297852 79.80019378662109 C 36.59161758422852 80.67329406738281 37.51034164428711 81.17404937744141 38.54925155639648 81.17404937744141 M 38.54925155639648 82.17404937744141 C 37.26247406005859 82.17404937744141 35.9756965637207 81.56340026855469 35.18819808959961 80.34210205078125 L 31.56409645080566 74.72520446777344 L 13.00049686431885 74.72520446777344 C 5.820307731628418 74.72520446777344 -3.187391484971158e-06 68.90489959716797 -3.187391484971158e-06 61.72560119628906 L -3.187391484971158e-06 12.99960231781006 C -3.187391484971158e-06 5.820302486419678 5.820307731628418 2.466498472131207e-06 13.00049686431885 2.466498472131207e-06 L 61.72560882568359 2.466498472131207e-06 C 68.90579986572266 2.466498472131207e-06 74.72610473632812 5.820302486419678 74.72610473632812 12.99960231781006 L 74.72610473632812 61.72560119628906 C 74.72610473632812 68.90489959716797 68.90579986572266 74.72520446777344 61.72560882568359 74.72520446777344 L 45.53440856933594 74.72520446777344 L 41.91029739379883 80.34210205078125 C 41.12280654907227 81.56340026855469 39.83602905273438 82.17404937744141 38.54925155639648 82.17404937744141 Z" stroke="none" fill="#d1e3fe"/>
      </g>
      <g id="Union_221" data-name="Union 221" transform="translate(924 183.162)" fill="url(#linear-gradient-2)">
        <path d="M 38.54925155639648 82.6739501953125 C 37.35497283935547 82.6739501953125 36.25559616088867 82.07474517822266 35.60840606689453 81.07105255126953 L 31.33907508850098 74.45413208007812 L 31.19137382507324 74.22521209716797 L 30.91894149780273 74.22521209716797 L 13.00049686431885 74.22521209716797 C 9.661430358886719 74.22521209716797 6.522252559661865 72.92499542236328 4.161219120025635 70.56407165527344 C 1.800241231918335 68.20320892333984 0.4999968111515045 65.06430816650391 0.4999968111515045 61.7255973815918 L 0.4999968111515045 12.99959754943848 C 0.4999968111515045 9.660885810852051 1.800241231918335 6.52198600769043 4.161219120025635 4.16111946105957 C 6.522252559661865 1.800208449363708 9.661430358886719 0.4999973177909851 13.00049686431885 0.4999973177909851 L 61.72560882568359 0.4999973177909851 C 65.06467437744141 0.4999973177909851 68.20384979248047 1.800208449363708 70.56488800048828 4.16111946105957 C 72.92586517333984 6.52198600769043 74.22610473632812 9.660885810852051 74.22610473632812 12.99959754943848 L 74.22610473632812 61.7255973815918 C 74.22610473632812 65.06430816650391 72.92586517333984 68.20320892333984 70.56488800048828 70.56407165527344 C 68.20384979248047 72.92499542236328 65.06467437744141 74.22521209716797 61.72560882568359 74.22521209716797 L 46.17956161499023 74.22521209716797 L 45.90713119506836 74.22521209716797 L 45.75942993164062 74.45413208007812 L 41.49016189575195 81.07093048095703 C 40.8428955078125 82.07474517822266 39.7435302734375 82.6739501953125 38.54925155639648 82.6739501953125 Z" stroke="none"/>
        <path d="M 38.54925155639648 82.1739501953125 C 39.58815383911133 82.1739501953125 40.50688552856445 81.67319488525391 41.07001876831055 80.79985046386719 L 45.33928680419922 74.18305206298828 L 45.63469696044922 73.72521209716797 L 46.17956161499023 73.72521209716797 L 61.72560882568359 73.72521209716797 C 64.93112182617188 73.72521209716797 67.94475555419922 72.47699737548828 70.21134185791016 70.21051788330078 C 72.47787475585938 67.94408416748047 73.72610473632812 64.93075561523438 73.72610473632812 61.7255973815918 L 73.72610473632812 12.99959754943848 C 73.72610473632812 9.794442176818848 72.47787475585938 6.781108379364014 70.21134185791016 4.514686107635498 C 67.94475555419922 2.248208522796631 64.93112945556641 0.9999973177909851 61.72560882568359 0.9999973177909851 L 13.00049686431885 0.9999973177909851 C 9.794974327087402 0.9999973177909851 6.781352519989014 2.248208522796631 4.514763355255127 4.514686107635498 C 2.248230218887329 6.781108379364014 0.9999968409538269 9.794442176818848 0.9999968409538269 12.99959754943848 L 0.9999968409538269 61.7255973815918 C 0.9999968409538269 64.93075561523438 2.248230218887329 67.94408416748047 4.514763355255127 70.21051788330078 C 6.781352519989014 72.47699737548828 9.794985771179199 73.72521209716797 13.00049686431885 73.72521209716797 L 30.91894149780273 73.72521209716797 L 31.46380805969238 73.72521209716797 L 31.75921821594238 74.18305206298828 L 36.02862930297852 80.80008697509766 C 36.59161758422852 81.67319488525391 37.51035308837891 82.1739501953125 38.54925155639648 82.1739501953125 M 38.54925155639648 83.1739501953125 C 37.26247406005859 83.1739501953125 35.9756965637207 82.56330108642578 35.18819808959961 81.34201049804688 L 30.91894149780273 74.72521209716797 L 13.00049686431885 74.72521209716797 C 5.820307731628418 74.72521209716797 -3.187391484971158e-06 68.90489959716797 -3.187391484971158e-06 61.7255973815918 L -3.187391484971158e-06 12.99959754943848 C -3.187391484971158e-06 5.820297241210938 5.820307731628418 -2.680121497178334e-06 13.00049686431885 -2.680121497178334e-06 L 61.72560882568359 -2.680121497178334e-06 C 68.90579986572266 -2.680121497178334e-06 74.72610473632812 5.820297241210938 74.72610473632812 12.99959754943848 L 74.72610473632812 61.7255973815918 C 74.72610473632812 68.90489959716797 68.90579986572266 74.72521209716797 61.72560882568359 74.72521209716797 L 46.17956161499023 74.72521209716797 L 41.91029739379883 81.34201049804688 C 41.12280654907227 82.56330108642578 39.83602905273438 83.1739501953125 38.54925155639648 83.1739501953125 Z" stroke="none" fill="#d1e3fe"/>
      </g>
      <g id="Union_222" data-name="Union 222" transform="translate(904 287.457)" fill="url(#linear-gradient-2)">
        <path d="M 38.54925155639648 82.6739501953125 C 37.35497283935547 82.6739501953125 36.25559616088867 82.07474517822266 35.60840606689453 81.07105255126953 L 31.33907508850098 74.45413208007812 L 31.19137382507324 74.22521209716797 L 30.91894149780273 74.22521209716797 L 13.00049686431885 74.22521209716797 C 9.661430358886719 74.22521209716797 6.522252559661865 72.92499542236328 4.161219120025635 70.56407165527344 C 1.800241231918335 68.20320892333984 0.4999968111515045 65.06430816650391 0.4999968111515045 61.7255973815918 L 0.4999968111515045 12.99959754943848 C 0.4999968111515045 9.660885810852051 1.800241231918335 6.52198600769043 4.161219120025635 4.16111946105957 C 6.522252559661865 1.800208449363708 9.661430358886719 0.4999973177909851 13.00049686431885 0.4999973177909851 L 61.72560882568359 0.4999973177909851 C 65.06467437744141 0.4999973177909851 68.20384979248047 1.800208449363708 70.56488800048828 4.16111946105957 C 72.92586517333984 6.52198600769043 74.22610473632812 9.660885810852051 74.22610473632812 12.99959754943848 L 74.22610473632812 61.7255973815918 C 74.22610473632812 65.06430816650391 72.92586517333984 68.20320892333984 70.56488800048828 70.56407165527344 C 68.20384979248047 72.92499542236328 65.06467437744141 74.22521209716797 61.72560882568359 74.22521209716797 L 46.17956161499023 74.22521209716797 L 45.90713119506836 74.22521209716797 L 45.75942993164062 74.45413208007812 L 41.49016189575195 81.07093048095703 C 40.8428955078125 82.07474517822266 39.7435302734375 82.6739501953125 38.54925155639648 82.6739501953125 Z" stroke="none"/>
        <path d="M 38.54925155639648 82.1739501953125 C 39.58815383911133 82.1739501953125 40.50688552856445 81.67319488525391 41.07001876831055 80.79985046386719 L 45.33928680419922 74.18305206298828 L 45.63469696044922 73.72521209716797 L 46.17956161499023 73.72521209716797 L 61.72560882568359 73.72521209716797 C 64.93112182617188 73.72521209716797 67.94475555419922 72.47699737548828 70.21134185791016 70.21051788330078 C 72.47787475585938 67.94408416748047 73.72610473632812 64.93075561523438 73.72610473632812 61.7255973815918 L 73.72610473632812 12.99959754943848 C 73.72610473632812 9.794442176818848 72.47787475585938 6.781108379364014 70.21134185791016 4.514686107635498 C 67.94475555419922 2.248208522796631 64.93112945556641 0.9999973177909851 61.72560882568359 0.9999973177909851 L 13.00049686431885 0.9999973177909851 C 9.794974327087402 0.9999973177909851 6.781352519989014 2.248208522796631 4.514763355255127 4.514686107635498 C 2.248230218887329 6.781108379364014 0.9999968409538269 9.794442176818848 0.9999968409538269 12.99959754943848 L 0.9999968409538269 61.7255973815918 C 0.9999968409538269 64.93075561523438 2.248230218887329 67.94408416748047 4.514763355255127 70.21051788330078 C 6.781352519989014 72.47699737548828 9.794985771179199 73.72521209716797 13.00049686431885 73.72521209716797 L 30.91894149780273 73.72521209716797 L 31.46380805969238 73.72521209716797 L 31.75921821594238 74.18305206298828 L 36.02862930297852 80.80008697509766 C 36.59161758422852 81.67319488525391 37.51035308837891 82.1739501953125 38.54925155639648 82.1739501953125 M 38.54925155639648 83.1739501953125 C 37.26247406005859 83.1739501953125 35.9756965637207 82.56330108642578 35.18819808959961 81.34201049804688 L 30.91894149780273 74.72521209716797 L 13.00049686431885 74.72521209716797 C 5.820307731628418 74.72521209716797 -3.187391484971158e-06 68.90489959716797 -3.187391484971158e-06 61.7255973815918 L -3.187391484971158e-06 12.99959754943848 C -3.187391484971158e-06 5.820297241210938 5.820307731628418 -2.680121497178334e-06 13.00049686431885 -2.680121497178334e-06 L 61.72560882568359 -2.680121497178334e-06 C 68.90579986572266 -2.680121497178334e-06 74.72610473632812 5.820297241210938 74.72610473632812 12.99959754943848 L 74.72610473632812 61.7255973815918 C 74.72610473632812 68.90489959716797 68.90579986572266 74.72521209716797 61.72560882568359 74.72521209716797 L 46.17956161499023 74.72521209716797 L 41.91029739379883 81.34201049804688 C 41.12280654907227 82.56330108642578 39.83602905273438 83.1739501953125 38.54925155639648 83.1739501953125 Z" stroke="none" fill="#d1e3fe"/>
      </g>
      <g id="Union_223" data-name="Union 223" transform="translate(1037 173.393)" fill="url(#linear-gradient-2)">
        <path d="M 38.54925155639648 82.6739501953125 C 37.35497283935547 82.6739501953125 36.25559616088867 82.07474517822266 35.60840606689453 81.07105255126953 L 31.33907508850098 74.45413208007812 L 31.19137382507324 74.22521209716797 L 30.91894149780273 74.22521209716797 L 13.00049686431885 74.22521209716797 C 9.661430358886719 74.22521209716797 6.522252559661865 72.92499542236328 4.161219120025635 70.56407165527344 C 1.800241231918335 68.20320892333984 0.4999968111515045 65.06430816650391 0.4999968111515045 61.7255973815918 L 0.4999968111515045 12.99959754943848 C 0.4999968111515045 9.660885810852051 1.800241231918335 6.52198600769043 4.161219120025635 4.16111946105957 C 6.522252559661865 1.800208449363708 9.661430358886719 0.4999973177909851 13.00049686431885 0.4999973177909851 L 61.72560882568359 0.4999973177909851 C 65.06467437744141 0.4999973177909851 68.20384979248047 1.800208449363708 70.56488800048828 4.16111946105957 C 72.92586517333984 6.52198600769043 74.22610473632812 9.660885810852051 74.22610473632812 12.99959754943848 L 74.22610473632812 61.7255973815918 C 74.22610473632812 65.06430816650391 72.92586517333984 68.20320892333984 70.56488800048828 70.56407165527344 C 68.20384979248047 72.92499542236328 65.06467437744141 74.22521209716797 61.72560882568359 74.22521209716797 L 46.17956161499023 74.22521209716797 L 45.90713119506836 74.22521209716797 L 45.75942993164062 74.45413208007812 L 41.49016189575195 81.07093048095703 C 40.8428955078125 82.07474517822266 39.7435302734375 82.6739501953125 38.54925155639648 82.6739501953125 Z" stroke="none"/>
        <path d="M 38.54925155639648 82.1739501953125 C 39.58815383911133 82.1739501953125 40.50688552856445 81.67319488525391 41.07001876831055 80.79985046386719 L 45.33928680419922 74.18305206298828 L 45.63469696044922 73.72521209716797 L 46.17956161499023 73.72521209716797 L 61.72560882568359 73.72521209716797 C 64.93112182617188 73.72521209716797 67.94475555419922 72.47699737548828 70.21134185791016 70.21051788330078 C 72.47787475585938 67.94408416748047 73.72610473632812 64.93075561523438 73.72610473632812 61.7255973815918 L 73.72610473632812 12.99959754943848 C 73.72610473632812 9.794442176818848 72.47787475585938 6.781108379364014 70.21134185791016 4.514686107635498 C 67.94475555419922 2.248208522796631 64.93112945556641 0.9999973177909851 61.72560882568359 0.9999973177909851 L 13.00049686431885 0.9999973177909851 C 9.794974327087402 0.9999973177909851 6.781352519989014 2.248208522796631 4.514763355255127 4.514686107635498 C 2.248230218887329 6.781108379364014 0.9999968409538269 9.794442176818848 0.9999968409538269 12.99959754943848 L 0.9999968409538269 61.7255973815918 C 0.9999968409538269 64.93075561523438 2.248230218887329 67.94408416748047 4.514763355255127 70.21051788330078 C 6.781352519989014 72.47699737548828 9.794985771179199 73.72521209716797 13.00049686431885 73.72521209716797 L 30.91894149780273 73.72521209716797 L 31.46380805969238 73.72521209716797 L 31.75921821594238 74.18305206298828 L 36.02862930297852 80.80008697509766 C 36.59161758422852 81.67319488525391 37.51035308837891 82.1739501953125 38.54925155639648 82.1739501953125 M 38.54925155639648 83.1739501953125 C 37.26247406005859 83.1739501953125 35.9756965637207 82.56330108642578 35.18819808959961 81.34201049804688 L 30.91894149780273 74.72521209716797 L 13.00049686431885 74.72521209716797 C 5.820307731628418 74.72521209716797 -3.187391484971158e-06 68.90489959716797 -3.187391484971158e-06 61.7255973815918 L -3.187391484971158e-06 12.99959754943848 C -3.187391484971158e-06 5.820297241210938 5.820307731628418 -2.680121497178334e-06 13.00049686431885 -2.680121497178334e-06 L 61.72560882568359 -2.680121497178334e-06 C 68.90579986572266 -2.680121497178334e-06 74.72610473632812 5.820297241210938 74.72610473632812 12.99959754943848 L 74.72610473632812 61.7255973815918 C 74.72610473632812 68.90489959716797 68.90579986572266 74.72521209716797 61.72560882568359 74.72521209716797 L 46.17956161499023 74.72521209716797 L 41.91029739379883 81.34201049804688 C 41.12280654907227 82.56330108642578 39.83602905273438 83.1739501953125 38.54925155639648 83.1739501953125 Z" stroke="none" fill="#d1e3fe"/>
      </g>
      <g id="Union_224" data-name="Union 224" transform="translate(1016 285.779)" fill="url(#linear-gradient-2)">
        <path d="M 38.54925155639648 82.6739501953125 C 37.35497283935547 82.6739501953125 36.25559616088867 82.07474517822266 35.60840606689453 81.07105255126953 L 31.33907508850098 74.45413208007812 L 31.19137382507324 74.22521209716797 L 30.91894149780273 74.22521209716797 L 13.00049686431885 74.22521209716797 C 9.661430358886719 74.22521209716797 6.522252559661865 72.92499542236328 4.161219120025635 70.56407165527344 C 1.800241231918335 68.20320892333984 0.4999968111515045 65.06430816650391 0.4999968111515045 61.7255973815918 L 0.4999968111515045 12.99959754943848 C 0.4999968111515045 9.660885810852051 1.800241231918335 6.52198600769043 4.161219120025635 4.16111946105957 C 6.522252559661865 1.800208449363708 9.661430358886719 0.4999973177909851 13.00049686431885 0.4999973177909851 L 61.72560882568359 0.4999973177909851 C 65.06467437744141 0.4999973177909851 68.20384979248047 1.800208449363708 70.56488800048828 4.16111946105957 C 72.92586517333984 6.52198600769043 74.22610473632812 9.660885810852051 74.22610473632812 12.99959754943848 L 74.22610473632812 61.7255973815918 C 74.22610473632812 65.06430816650391 72.92586517333984 68.20320892333984 70.56488800048828 70.56407165527344 C 68.20384979248047 72.92499542236328 65.06467437744141 74.22521209716797 61.72560882568359 74.22521209716797 L 46.17956161499023 74.22521209716797 L 45.90713119506836 74.22521209716797 L 45.75942993164062 74.45413208007812 L 41.49016189575195 81.07093048095703 C 40.8428955078125 82.07474517822266 39.7435302734375 82.6739501953125 38.54925155639648 82.6739501953125 Z" stroke="none"/>
        <path d="M 38.54925155639648 82.1739501953125 C 39.58815383911133 82.1739501953125 40.50688552856445 81.67319488525391 41.07001876831055 80.79985046386719 L 45.33928680419922 74.18305206298828 L 45.63469696044922 73.72521209716797 L 46.17956161499023 73.72521209716797 L 61.72560882568359 73.72521209716797 C 64.93112182617188 73.72521209716797 67.94475555419922 72.47699737548828 70.21134185791016 70.21051788330078 C 72.47787475585938 67.94408416748047 73.72610473632812 64.93075561523438 73.72610473632812 61.7255973815918 L 73.72610473632812 12.99959754943848 C 73.72610473632812 9.794442176818848 72.47787475585938 6.781108379364014 70.21134185791016 4.514686107635498 C 67.94475555419922 2.248208522796631 64.93112945556641 0.9999973177909851 61.72560882568359 0.9999973177909851 L 13.00049686431885 0.9999973177909851 C 9.794974327087402 0.9999973177909851 6.781352519989014 2.248208522796631 4.514763355255127 4.514686107635498 C 2.248230218887329 6.781108379364014 0.9999968409538269 9.794442176818848 0.9999968409538269 12.99959754943848 L 0.9999968409538269 61.7255973815918 C 0.9999968409538269 64.93075561523438 2.248230218887329 67.94408416748047 4.514763355255127 70.21051788330078 C 6.781352519989014 72.47699737548828 9.794985771179199 73.72521209716797 13.00049686431885 73.72521209716797 L 30.91894149780273 73.72521209716797 L 31.46380805969238 73.72521209716797 L 31.75921821594238 74.18305206298828 L 36.02862930297852 80.80008697509766 C 36.59161758422852 81.67319488525391 37.51035308837891 82.1739501953125 38.54925155639648 82.1739501953125 M 38.54925155639648 83.1739501953125 C 37.26247406005859 83.1739501953125 35.9756965637207 82.56330108642578 35.18819808959961 81.34201049804688 L 30.91894149780273 74.72521209716797 L 13.00049686431885 74.72521209716797 C 5.820307731628418 74.72521209716797 -3.187391484971158e-06 68.90489959716797 -3.187391484971158e-06 61.7255973815918 L -3.187391484971158e-06 12.99959754943848 C -3.187391484971158e-06 5.820297241210938 5.820307731628418 -2.680121497178334e-06 13.00049686431885 -2.680121497178334e-06 L 61.72560882568359 -2.680121497178334e-06 C 68.90579986572266 -2.680121497178334e-06 74.72610473632812 5.820297241210938 74.72610473632812 12.99959754943848 L 74.72610473632812 61.7255973815918 C 74.72610473632812 68.90489959716797 68.90579986572266 74.72521209716797 61.72560882568359 74.72521209716797 L 46.17956161499023 74.72521209716797 L 41.91029739379883 81.34201049804688 C 41.12280654907227 82.56330108642578 39.83602905273438 83.1739501953125 38.54925155639648 83.1739501953125 Z" stroke="none" fill="#d1e3fe"/>
      </g>
      <g id="Union_247" data-name="Union 247" transform="translate(1143 204.018)" fill="url(#linear-gradient-2)">
        <path d="M 38.54925155639648 82.6739501953125 C 37.35497283935547 82.6739501953125 36.25559616088867 82.07474517822266 35.60840606689453 81.07105255126953 L 31.33907508850098 74.45413208007812 L 31.19137382507324 74.22521209716797 L 30.91894149780273 74.22521209716797 L 13.00049686431885 74.22521209716797 C 9.661430358886719 74.22521209716797 6.522252559661865 72.92499542236328 4.161219120025635 70.56407165527344 C 1.800241231918335 68.20320892333984 0.4999968111515045 65.06430816650391 0.4999968111515045 61.7255973815918 L 0.4999968111515045 12.99959754943848 C 0.4999968111515045 9.660885810852051 1.800241231918335 6.52198600769043 4.161219120025635 4.16111946105957 C 6.522252559661865 1.800208449363708 9.661430358886719 0.4999973177909851 13.00049686431885 0.4999973177909851 L 61.72560882568359 0.4999973177909851 C 65.06467437744141 0.4999973177909851 68.20384979248047 1.800208449363708 70.56488800048828 4.16111946105957 C 72.92586517333984 6.52198600769043 74.22610473632812 9.660885810852051 74.22610473632812 12.99959754943848 L 74.22610473632812 61.7255973815918 C 74.22610473632812 65.06430816650391 72.92586517333984 68.20320892333984 70.56488800048828 70.56407165527344 C 68.20384979248047 72.92499542236328 65.06467437744141 74.22521209716797 61.72560882568359 74.22521209716797 L 46.17956161499023 74.22521209716797 L 45.90713119506836 74.22521209716797 L 45.75942993164062 74.45413208007812 L 41.49016189575195 81.07093048095703 C 40.8428955078125 82.07474517822266 39.7435302734375 82.6739501953125 38.54925155639648 82.6739501953125 Z" stroke="none"/>
        <path d="M 38.54925155639648 82.1739501953125 C 39.58815383911133 82.1739501953125 40.50688552856445 81.67319488525391 41.07001876831055 80.79985046386719 L 45.33928680419922 74.18305206298828 L 45.63469696044922 73.72521209716797 L 46.17956161499023 73.72521209716797 L 61.72560882568359 73.72521209716797 C 64.93112182617188 73.72521209716797 67.94475555419922 72.47699737548828 70.21134185791016 70.21051788330078 C 72.47787475585938 67.94408416748047 73.72610473632812 64.93075561523438 73.72610473632812 61.7255973815918 L 73.72610473632812 12.99959754943848 C 73.72610473632812 9.794442176818848 72.47787475585938 6.781108379364014 70.21134185791016 4.514686107635498 C 67.94475555419922 2.248208522796631 64.93112945556641 0.9999973177909851 61.72560882568359 0.9999973177909851 L 13.00049686431885 0.9999973177909851 C 9.794974327087402 0.9999973177909851 6.781352519989014 2.248208522796631 4.514763355255127 4.514686107635498 C 2.248230218887329 6.781108379364014 0.9999968409538269 9.794442176818848 0.9999968409538269 12.99959754943848 L 0.9999968409538269 61.7255973815918 C 0.9999968409538269 64.93075561523438 2.248230218887329 67.94408416748047 4.514763355255127 70.21051788330078 C 6.781352519989014 72.47699737548828 9.794985771179199 73.72521209716797 13.00049686431885 73.72521209716797 L 30.91894149780273 73.72521209716797 L 31.46380805969238 73.72521209716797 L 31.75921821594238 74.18305206298828 L 36.02862930297852 80.80008697509766 C 36.59161758422852 81.67319488525391 37.51035308837891 82.1739501953125 38.54925155639648 82.1739501953125 M 38.54925155639648 83.1739501953125 C 37.26247406005859 83.1739501953125 35.9756965637207 82.56330108642578 35.18819808959961 81.34201049804688 L 30.91894149780273 74.72521209716797 L 13.00049686431885 74.72521209716797 C 5.820307731628418 74.72521209716797 -3.187391484971158e-06 68.90489959716797 -3.187391484971158e-06 61.7255973815918 L -3.187391484971158e-06 12.99959754943848 C -3.187391484971158e-06 5.820297241210938 5.820307731628418 -2.680121497178334e-06 13.00049686431885 -2.680121497178334e-06 L 61.72560882568359 -2.680121497178334e-06 C 68.90579986572266 -2.680121497178334e-06 74.72610473632812 5.820297241210938 74.72610473632812 12.99959754943848 L 74.72610473632812 61.7255973815918 C 74.72610473632812 68.90489959716797 68.90579986572266 74.72521209716797 61.72560882568359 74.72521209716797 L 46.17956161499023 74.72521209716797 L 41.91029739379883 81.34201049804688 C 41.12280654907227 82.56330108642578 39.83602905273438 83.1739501953125 38.54925155639648 83.1739501953125 Z" stroke="none" fill="#d1e3fe"/>
      </g>
      <g id="Union_249" data-name="Union 249" transform="translate(1135 312.291)" fill="url(#linear-gradient-2)">
        <path d="M 38.54925155639648 82.6739501953125 C 37.35497283935547 82.6739501953125 36.25559616088867 82.07474517822266 35.60840606689453 81.07105255126953 L 31.33907508850098 74.45413208007812 L 31.19137382507324 74.22521209716797 L 30.91894149780273 74.22521209716797 L 13.00049686431885 74.22521209716797 C 9.661430358886719 74.22521209716797 6.522252559661865 72.92499542236328 4.161219120025635 70.56407165527344 C 1.800241231918335 68.20320892333984 0.4999968111515045 65.06430816650391 0.4999968111515045 61.7255973815918 L 0.4999968111515045 12.99959754943848 C 0.4999968111515045 9.660885810852051 1.800241231918335 6.52198600769043 4.161219120025635 4.16111946105957 C 6.522252559661865 1.800208449363708 9.661430358886719 0.4999973177909851 13.00049686431885 0.4999973177909851 L 61.72560882568359 0.4999973177909851 C 65.06467437744141 0.4999973177909851 68.20384979248047 1.800208449363708 70.56488800048828 4.16111946105957 C 72.92586517333984 6.52198600769043 74.22610473632812 9.660885810852051 74.22610473632812 12.99959754943848 L 74.22610473632812 61.7255973815918 C 74.22610473632812 65.06430816650391 72.92586517333984 68.20320892333984 70.56488800048828 70.56407165527344 C 68.20384979248047 72.92499542236328 65.06467437744141 74.22521209716797 61.72560882568359 74.22521209716797 L 46.17956161499023 74.22521209716797 L 45.90713119506836 74.22521209716797 L 45.75942993164062 74.45413208007812 L 41.49016189575195 81.07093048095703 C 40.8428955078125 82.07474517822266 39.7435302734375 82.6739501953125 38.54925155639648 82.6739501953125 Z" stroke="none"/>
        <path d="M 38.54925155639648 82.1739501953125 C 39.58815383911133 82.1739501953125 40.50688552856445 81.67319488525391 41.07001876831055 80.79985046386719 L 45.33928680419922 74.18305206298828 L 45.63469696044922 73.72521209716797 L 46.17956161499023 73.72521209716797 L 61.72560882568359 73.72521209716797 C 64.93112182617188 73.72521209716797 67.94475555419922 72.47699737548828 70.21134185791016 70.21051788330078 C 72.47787475585938 67.94408416748047 73.72610473632812 64.93075561523438 73.72610473632812 61.7255973815918 L 73.72610473632812 12.99959754943848 C 73.72610473632812 9.794442176818848 72.47787475585938 6.781108379364014 70.21134185791016 4.514686107635498 C 67.94475555419922 2.248208522796631 64.93112945556641 0.9999973177909851 61.72560882568359 0.9999973177909851 L 13.00049686431885 0.9999973177909851 C 9.794974327087402 0.9999973177909851 6.781352519989014 2.248208522796631 4.514763355255127 4.514686107635498 C 2.248230218887329 6.781108379364014 0.9999968409538269 9.794442176818848 0.9999968409538269 12.99959754943848 L 0.9999968409538269 61.7255973815918 C 0.9999968409538269 64.93075561523438 2.248230218887329 67.94408416748047 4.514763355255127 70.21051788330078 C 6.781352519989014 72.47699737548828 9.794985771179199 73.72521209716797 13.00049686431885 73.72521209716797 L 30.91894149780273 73.72521209716797 L 31.46380805969238 73.72521209716797 L 31.75921821594238 74.18305206298828 L 36.02862930297852 80.80008697509766 C 36.59161758422852 81.67319488525391 37.51035308837891 82.1739501953125 38.54925155639648 82.1739501953125 M 38.54925155639648 83.1739501953125 C 37.26247406005859 83.1739501953125 35.9756965637207 82.56330108642578 35.18819808959961 81.34201049804688 L 30.91894149780273 74.72521209716797 L 13.00049686431885 74.72521209716797 C 5.820307731628418 74.72521209716797 -3.187391484971158e-06 68.90489959716797 -3.187391484971158e-06 61.7255973815918 L -3.187391484971158e-06 12.99959754943848 C -3.187391484971158e-06 5.820297241210938 5.820307731628418 -2.680121497178334e-06 13.00049686431885 -2.680121497178334e-06 L 61.72560882568359 -2.680121497178334e-06 C 68.90579986572266 -2.680121497178334e-06 74.72610473632812 5.820297241210938 74.72610473632812 12.99959754943848 L 74.72610473632812 61.7255973815918 C 74.72610473632812 68.90489959716797 68.90579986572266 74.72521209716797 61.72560882568359 74.72521209716797 L 46.17956161499023 74.72521209716797 L 41.91029739379883 81.34201049804688 C 41.12280654907227 82.56330108642578 39.83602905273438 83.1739501953125 38.54925155639648 83.1739501953125 Z" stroke="none" fill="#d1e3fe"/>
      </g>
      <g id="Union_250" data-name="Union 250" transform="translate(1161 426.145)" fill="url(#linear-gradient-2)">
        <path d="M 38.54925155639648 82.6739501953125 C 37.35497283935547 82.6739501953125 36.25559616088867 82.07474517822266 35.60840606689453 81.07105255126953 L 31.33907508850098 74.45413208007812 L 31.19137382507324 74.22521209716797 L 30.91894149780273 74.22521209716797 L 13.00049686431885 74.22521209716797 C 9.661430358886719 74.22521209716797 6.522252559661865 72.92499542236328 4.161219120025635 70.56407165527344 C 1.800241231918335 68.20320892333984 0.4999968111515045 65.06430816650391 0.4999968111515045 61.7255973815918 L 0.4999968111515045 12.99959754943848 C 0.4999968111515045 9.660885810852051 1.800241231918335 6.52198600769043 4.161219120025635 4.16111946105957 C 6.522252559661865 1.800208449363708 9.661430358886719 0.4999973177909851 13.00049686431885 0.4999973177909851 L 61.72560882568359 0.4999973177909851 C 65.06467437744141 0.4999973177909851 68.20384979248047 1.800208449363708 70.56488800048828 4.16111946105957 C 72.92586517333984 6.52198600769043 74.22610473632812 9.660885810852051 74.22610473632812 12.99959754943848 L 74.22610473632812 61.7255973815918 C 74.22610473632812 65.06430816650391 72.92586517333984 68.20320892333984 70.56488800048828 70.56407165527344 C 68.20384979248047 72.92499542236328 65.06467437744141 74.22521209716797 61.72560882568359 74.22521209716797 L 46.17956161499023 74.22521209716797 L 45.90713119506836 74.22521209716797 L 45.75942993164062 74.45413208007812 L 41.49016189575195 81.07093048095703 C 40.8428955078125 82.07474517822266 39.7435302734375 82.6739501953125 38.54925155639648 82.6739501953125 Z" stroke="none"/>
        <path d="M 38.54925155639648 82.1739501953125 C 39.58815383911133 82.1739501953125 40.50688552856445 81.67319488525391 41.07001876831055 80.79985046386719 L 45.33928680419922 74.18305206298828 L 45.63469696044922 73.72521209716797 L 46.17956161499023 73.72521209716797 L 61.72560882568359 73.72521209716797 C 64.93112182617188 73.72521209716797 67.94475555419922 72.47699737548828 70.21134185791016 70.21051788330078 C 72.47787475585938 67.94408416748047 73.72610473632812 64.93075561523438 73.72610473632812 61.7255973815918 L 73.72610473632812 12.99959754943848 C 73.72610473632812 9.794442176818848 72.47787475585938 6.781108379364014 70.21134185791016 4.514686107635498 C 67.94475555419922 2.248208522796631 64.93112945556641 0.9999973177909851 61.72560882568359 0.9999973177909851 L 13.00049686431885 0.9999973177909851 C 9.794974327087402 0.9999973177909851 6.781352519989014 2.248208522796631 4.514763355255127 4.514686107635498 C 2.248230218887329 6.781108379364014 0.9999968409538269 9.794442176818848 0.9999968409538269 12.99959754943848 L 0.9999968409538269 61.7255973815918 C 0.9999968409538269 64.93075561523438 2.248230218887329 67.94408416748047 4.514763355255127 70.21051788330078 C 6.781352519989014 72.47699737548828 9.794985771179199 73.72521209716797 13.00049686431885 73.72521209716797 L 30.91894149780273 73.72521209716797 L 31.46380805969238 73.72521209716797 L 31.75921821594238 74.18305206298828 L 36.02862930297852 80.80008697509766 C 36.59161758422852 81.67319488525391 37.51035308837891 82.1739501953125 38.54925155639648 82.1739501953125 M 38.54925155639648 83.1739501953125 C 37.26247406005859 83.1739501953125 35.9756965637207 82.56330108642578 35.18819808959961 81.34201049804688 L 30.91894149780273 74.72521209716797 L 13.00049686431885 74.72521209716797 C 5.820307731628418 74.72521209716797 -3.187391484971158e-06 68.90489959716797 -3.187391484971158e-06 61.7255973815918 L -3.187391484971158e-06 12.99959754943848 C -3.187391484971158e-06 5.820297241210938 5.820307731628418 -2.680121497178334e-06 13.00049686431885 -2.680121497178334e-06 L 61.72560882568359 -2.680121497178334e-06 C 68.90579986572266 -2.680121497178334e-06 74.72610473632812 5.820297241210938 74.72610473632812 12.99959754943848 L 74.72610473632812 61.7255973815918 C 74.72610473632812 68.90489959716797 68.90579986572266 74.72521209716797 61.72560882568359 74.72521209716797 L 46.17956161499023 74.72521209716797 L 41.91029739379883 81.34201049804688 C 41.12280654907227 82.56330108642578 39.83602905273438 83.1739501953125 38.54925155639648 83.1739501953125 Z" stroke="none" fill="#d1e3fe"/>
      </g>
      <g id="Union_245" data-name="Union 245" transform="translate(1053 402)" fill="url(#linear-gradient-2)">
        <path d="M 38.54925155639648 82.6739501953125 C 37.35497283935547 82.6739501953125 36.25559616088867 82.07474517822266 35.60840606689453 81.07105255126953 L 31.33907508850098 74.45413208007812 L 31.19137382507324 74.22521209716797 L 30.91894149780273 74.22521209716797 L 13.00049686431885 74.22521209716797 C 9.661430358886719 74.22521209716797 6.522252559661865 72.92499542236328 4.161219120025635 70.56407165527344 C 1.800241231918335 68.20320892333984 0.4999968111515045 65.06430816650391 0.4999968111515045 61.7255973815918 L 0.4999968111515045 12.99959754943848 C 0.4999968111515045 9.660885810852051 1.800241231918335 6.52198600769043 4.161219120025635 4.16111946105957 C 6.522252559661865 1.800208449363708 9.661430358886719 0.4999973177909851 13.00049686431885 0.4999973177909851 L 61.72560882568359 0.4999973177909851 C 65.06467437744141 0.4999973177909851 68.20384979248047 1.800208449363708 70.56488800048828 4.16111946105957 C 72.92586517333984 6.52198600769043 74.22610473632812 9.660885810852051 74.22610473632812 12.99959754943848 L 74.22610473632812 61.7255973815918 C 74.22610473632812 65.06430816650391 72.92586517333984 68.20320892333984 70.56488800048828 70.56407165527344 C 68.20384979248047 72.92499542236328 65.06467437744141 74.22521209716797 61.72560882568359 74.22521209716797 L 46.17956161499023 74.22521209716797 L 45.90713119506836 74.22521209716797 L 45.75942993164062 74.45413208007812 L 41.49016189575195 81.07093048095703 C 40.8428955078125 82.07474517822266 39.7435302734375 82.6739501953125 38.54925155639648 82.6739501953125 Z" stroke="none"/>
        <path d="M 38.54925155639648 82.1739501953125 C 39.58815383911133 82.1739501953125 40.50688552856445 81.67319488525391 41.07001876831055 80.79985046386719 L 45.33928680419922 74.18305206298828 L 45.63469696044922 73.72521209716797 L 46.17956161499023 73.72521209716797 L 61.72560882568359 73.72521209716797 C 64.93112182617188 73.72521209716797 67.94475555419922 72.47699737548828 70.21134185791016 70.21051788330078 C 72.47787475585938 67.94408416748047 73.72610473632812 64.93075561523438 73.72610473632812 61.7255973815918 L 73.72610473632812 12.99959754943848 C 73.72610473632812 9.794442176818848 72.47787475585938 6.781108379364014 70.21134185791016 4.514686107635498 C 67.94475555419922 2.248208522796631 64.93112945556641 0.9999973177909851 61.72560882568359 0.9999973177909851 L 13.00049686431885 0.9999973177909851 C 9.794974327087402 0.9999973177909851 6.781352519989014 2.248208522796631 4.514763355255127 4.514686107635498 C 2.248230218887329 6.781108379364014 0.9999968409538269 9.794442176818848 0.9999968409538269 12.99959754943848 L 0.9999968409538269 61.7255973815918 C 0.9999968409538269 64.93075561523438 2.248230218887329 67.94408416748047 4.514763355255127 70.21051788330078 C 6.781352519989014 72.47699737548828 9.794985771179199 73.72521209716797 13.00049686431885 73.72521209716797 L 30.91894149780273 73.72521209716797 L 31.46380805969238 73.72521209716797 L 31.75921821594238 74.18305206298828 L 36.02862930297852 80.80008697509766 C 36.59161758422852 81.67319488525391 37.51035308837891 82.1739501953125 38.54925155639648 82.1739501953125 M 38.54925155639648 83.1739501953125 C 37.26247406005859 83.1739501953125 35.9756965637207 82.56330108642578 35.18819808959961 81.34201049804688 L 30.91894149780273 74.72521209716797 L 13.00049686431885 74.72521209716797 C 5.820307731628418 74.72521209716797 -3.187391484971158e-06 68.90489959716797 -3.187391484971158e-06 61.7255973815918 L -3.187391484971158e-06 12.99959754943848 C -3.187391484971158e-06 5.820297241210938 5.820307731628418 -2.680121497178334e-06 13.00049686431885 -2.680121497178334e-06 L 61.72560882568359 -2.680121497178334e-06 C 68.90579986572266 -2.680121497178334e-06 74.72610473632812 5.820297241210938 74.72610473632812 12.99959754943848 L 74.72610473632812 61.7255973815918 C 74.72610473632812 68.90489959716797 68.90579986572266 74.72521209716797 61.72560882568359 74.72521209716797 L 46.17956161499023 74.72521209716797 L 41.91029739379883 81.34201049804688 C 41.12280654907227 82.56330108642578 39.83602905273438 83.1739501953125 38.54925155639648 83.1739501953125 Z" stroke="none" fill="#d1e3fe"/>
      </g>
      <g id="Union_226" data-name="Union 226" transform="translate(937 395.815)" fill="url(#linear-gradient-2)">
        <path d="M 38.54925155639648 82.6739501953125 C 37.35497283935547 82.6739501953125 36.25559616088867 82.07474517822266 35.60840606689453 81.07105255126953 L 31.33907508850098 74.45413208007812 L 31.19137382507324 74.22521209716797 L 30.91894149780273 74.22521209716797 L 13.00049686431885 74.22521209716797 C 9.661430358886719 74.22521209716797 6.522252559661865 72.92499542236328 4.161219120025635 70.56407165527344 C 1.800241231918335 68.20320892333984 0.4999968111515045 65.06430816650391 0.4999968111515045 61.7255973815918 L 0.4999968111515045 12.99959754943848 C 0.4999968111515045 9.660885810852051 1.800241231918335 6.52198600769043 4.161219120025635 4.16111946105957 C 6.522252559661865 1.800208449363708 9.661430358886719 0.4999973177909851 13.00049686431885 0.4999973177909851 L 61.72560882568359 0.4999973177909851 C 65.06467437744141 0.4999973177909851 68.20384979248047 1.800208449363708 70.56488800048828 4.16111946105957 C 72.92586517333984 6.52198600769043 74.22610473632812 9.660885810852051 74.22610473632812 12.99959754943848 L 74.22610473632812 61.7255973815918 C 74.22610473632812 65.06430816650391 72.92586517333984 68.20320892333984 70.56488800048828 70.56407165527344 C 68.20384979248047 72.92499542236328 65.06467437744141 74.22521209716797 61.72560882568359 74.22521209716797 L 46.17956161499023 74.22521209716797 L 45.90713119506836 74.22521209716797 L 45.75942993164062 74.45413208007812 L 41.49016189575195 81.07093048095703 C 40.8428955078125 82.07474517822266 39.7435302734375 82.6739501953125 38.54925155639648 82.6739501953125 Z" stroke="none"/>
        <path d="M 38.54925155639648 82.1739501953125 C 39.58815383911133 82.1739501953125 40.50688552856445 81.67319488525391 41.07001876831055 80.79985046386719 L 45.33928680419922 74.18305206298828 L 45.63469696044922 73.72521209716797 L 46.17956161499023 73.72521209716797 L 61.72560882568359 73.72521209716797 C 64.93112182617188 73.72521209716797 67.94475555419922 72.47699737548828 70.21134185791016 70.21051788330078 C 72.47787475585938 67.94408416748047 73.72610473632812 64.93075561523438 73.72610473632812 61.7255973815918 L 73.72610473632812 12.99959754943848 C 73.72610473632812 9.794442176818848 72.47787475585938 6.781108379364014 70.21134185791016 4.514686107635498 C 67.94475555419922 2.248208522796631 64.93112945556641 0.9999973177909851 61.72560882568359 0.9999973177909851 L 13.00049686431885 0.9999973177909851 C 9.794974327087402 0.9999973177909851 6.781352519989014 2.248208522796631 4.514763355255127 4.514686107635498 C 2.248230218887329 6.781108379364014 0.9999968409538269 9.794442176818848 0.9999968409538269 12.99959754943848 L 0.9999968409538269 61.7255973815918 C 0.9999968409538269 64.93075561523438 2.248230218887329 67.94408416748047 4.514763355255127 70.21051788330078 C 6.781352519989014 72.47699737548828 9.794985771179199 73.72521209716797 13.00049686431885 73.72521209716797 L 30.91894149780273 73.72521209716797 L 31.46380805969238 73.72521209716797 L 31.75921821594238 74.18305206298828 L 36.02862930297852 80.80008697509766 C 36.59161758422852 81.67319488525391 37.51035308837891 82.1739501953125 38.54925155639648 82.1739501953125 M 38.54925155639648 83.1739501953125 C 37.26247406005859 83.1739501953125 35.9756965637207 82.56330108642578 35.18819808959961 81.34201049804688 L 30.91894149780273 74.72521209716797 L 13.00049686431885 74.72521209716797 C 5.820307731628418 74.72521209716797 -3.187391484971158e-06 68.90489959716797 -3.187391484971158e-06 61.7255973815918 L -3.187391484971158e-06 12.99959754943848 C -3.187391484971158e-06 5.820297241210938 5.820307731628418 -2.680121497178334e-06 13.00049686431885 -2.680121497178334e-06 L 61.72560882568359 -2.680121497178334e-06 C 68.90579986572266 -2.680121497178334e-06 74.72610473632812 5.820297241210938 74.72610473632812 12.99959754943848 L 74.72610473632812 61.7255973815918 C 74.72610473632812 68.90489959716797 68.90579986572266 74.72521209716797 61.72560882568359 74.72521209716797 L 46.17956161499023 74.72521209716797 L 41.91029739379883 81.34201049804688 C 41.12280654907227 82.56330108642578 39.83602905273438 83.1739501953125 38.54925155639648 83.1739501953125 Z" stroke="none" fill="#d1e3fe"/>
      </g>
      <g id="Union_227" data-name="Union 227" transform="translate(828 414.444)" fill="url(#linear-gradient-2)">
        <path d="M 38.54925155639648 81.67404937744141 C 37.35497283935547 81.67404937744141 36.25559616088867 81.07483673095703 35.60840606689453 80.07114410400391 L 31.98423004150391 74.45412445068359 L 31.8365306854248 74.22520446777344 L 31.56409645080566 74.22520446777344 L 13.00049686431885 74.22520446777344 C 9.661430358886719 74.22520446777344 6.522252559661865 72.92498779296875 4.161219120025635 70.56407928466797 C 1.800241231918335 68.20321655273438 0.4999968111515045 65.06431579589844 0.4999968111515045 61.72560119628906 L 0.4999968111515045 12.99960231781006 C 0.4999968111515045 9.660891532897949 1.800241231918335 6.52199125289917 4.161219120025635 4.161124706268311 C 6.522252559661865 1.800213575363159 9.661430358886719 0.5000024437904358 13.00049686431885 0.5000024437904358 L 61.72560882568359 0.5000024437904358 C 65.06467437744141 0.5000024437904358 68.20384979248047 1.800213575363159 70.56488800048828 4.161124706268311 C 72.92586517333984 6.52199125289917 74.22610473632812 9.660891532897949 74.22610473632812 12.99960231781006 L 74.22610473632812 61.72560119628906 C 74.22610473632812 65.06431579589844 72.92586517333984 68.20321655273438 70.56488800048828 70.56407928466797 C 68.20384979248047 72.92498779296875 65.06467437744141 74.22520446777344 61.72560882568359 74.22520446777344 L 45.53440856933594 74.22520446777344 L 45.2619743347168 74.22520446777344 L 45.11427307128906 74.45412445068359 L 41.49016189575195 80.07102203369141 C 40.8429069519043 81.07483673095703 39.7435302734375 81.67404937744141 38.54925155639648 81.67404937744141 Z" stroke="none"/>
        <path d="M 38.54925155639648 81.17404937744141 C 39.58816528320312 81.17404937744141 40.50688552856445 80.67329406738281 41.07001876831055 79.79994964599609 L 44.69412994384766 74.18304443359375 L 44.98954010009766 73.72520446777344 L 45.53440856933594 73.72520446777344 L 61.72560882568359 73.72520446777344 C 64.93112945556641 73.72520446777344 67.94475555419922 72.47698974609375 70.21134185791016 70.21051025390625 C 72.47787475585938 67.944091796875 73.72610473632812 64.93075561523438 73.72610473632812 61.72560119628906 L 73.72610473632812 12.99960231781006 C 73.72610473632812 9.79444694519043 72.47787475585938 6.781113624572754 70.21134185791016 4.514691352844238 C 67.94475555419922 2.248213529586792 64.93112945556641 1.000002503395081 61.72560882568359 1.000002503395081 L 13.00049686431885 1.000002503395081 C 9.794974327087402 1.000002503395081 6.781352519989014 2.248213529586792 4.514763355255127 4.514691352844238 C 2.248230218887329 6.781113624572754 0.9999968409538269 9.79444694519043 0.9999968409538269 12.99960231781006 L 0.9999968409538269 61.72560119628906 C 0.9999968409538269 64.93075561523438 2.248230218887329 67.944091796875 4.514763355255127 70.21051025390625 C 6.781352519989014 72.47698974609375 9.794974327087402 73.72520446777344 13.00049686431885 73.72520446777344 L 31.56409645080566 73.72520446777344 L 32.10896301269531 73.72520446777344 L 32.40437316894531 74.18304443359375 L 36.02862930297852 79.80019378662109 C 36.59161758422852 80.67329406738281 37.51034164428711 81.17404937744141 38.54925155639648 81.17404937744141 M 38.54925155639648 82.17404937744141 C 37.26247406005859 82.17404937744141 35.9756965637207 81.56340026855469 35.18819808959961 80.34210205078125 L 31.56409645080566 74.72520446777344 L 13.00049686431885 74.72520446777344 C 5.820307731628418 74.72520446777344 -3.187391484971158e-06 68.90489959716797 -3.187391484971158e-06 61.72560119628906 L -3.187391484971158e-06 12.99960231781006 C -3.187391484971158e-06 5.820302486419678 5.820307731628418 2.466498472131207e-06 13.00049686431885 2.466498472131207e-06 L 61.72560882568359 2.466498472131207e-06 C 68.90579986572266 2.466498472131207e-06 74.72610473632812 5.820302486419678 74.72610473632812 12.99960231781006 L 74.72610473632812 61.72560119628906 C 74.72610473632812 68.90489959716797 68.90579986572266 74.72520446777344 61.72560882568359 74.72520446777344 L 45.53440856933594 74.72520446777344 L 41.91029739379883 80.34210205078125 C 41.12280654907227 81.56340026855469 39.83602905273438 82.17404937744141 38.54925155639648 82.17404937744141 Z" stroke="none" fill="#d1e3fe"/>
      </g>
      <g id="Subtraction_47" data-name="Subtraction 47" transform="translate(800 -2369.556)" fill="url(#linear-gradient-2)">
        <path d="M 313.2265014648438 2925.055419921875 L 239.5004119873047 2925.055419921875 L 239.5004272460938 2891.999755859375 C 239.5004272460938 2888.6611328125 240.8006744384766 2885.522216796875 243.1616516113281 2883.161376953125 C 245.5226287841797 2880.800537109375 248.6618194580078 2879.500244140625 252.0009002685547 2879.500244140625 L 300.7260131835938 2879.500244140625 C 304.0651245117188 2879.500244140625 307.2042846679688 2880.800537109375 309.5652770996094 2883.161376953125 C 311.92626953125 2885.522216796875 313.2265014648438 2888.6611328125 313.2265014648438 2891.999755859375 L 313.2265014648438 2925.055419921875 Z" stroke="none"/>
        <path d="M 312.7265014648438 2924.555419921875 L 312.7265014648438 2891.999755859375 C 312.7265014648438 2888.794677734375 311.478271484375 2885.781494140625 309.2117309570312 2883.514892578125 C 306.9451904296875 2881.24853515625 303.9315795898438 2880.000244140625 300.7260131835938 2880.000244140625 L 252.0009002685547 2880.000244140625 C 248.7953643798828 2880.000244140625 245.7817535400391 2881.24853515625 243.5151824951172 2883.514892578125 C 241.2486572265625 2885.781494140625 240.0004272460938 2888.794677734375 240.0004272460938 2891.999755859375 L 240.0004119873047 2924.555419921875 L 312.7265014648438 2924.555419921875 M 313.7265014648438 2925.555419921875 L 239.0004119873047 2925.555419921875 L 239.0004272460938 2891.999755859375 C 239.0004272460938 2888.527587890625 240.3526763916016 2885.26318359375 242.8080902099609 2882.807861328125 C 245.2634582519531 2880.3525390625 248.5281982421875 2879.000244140625 252.0009002685547 2879.000244140625 L 300.7260131835938 2879.000244140625 C 304.19873046875 2879.000244140625 307.4634704589844 2880.3525390625 309.9188232421875 2882.807861328125 C 312.3742370605469 2885.26318359375 313.7265014648438 2888.527587890625 313.7265014648438 2891.999755859375 L 313.7265014648438 2925.555419921875 Z" stroke="none" fill="#9fc4ff"/>
      </g>
      <g id="Subtraction_49" data-name="Subtraction 49" transform="translate(896 -2332.556)" fill="url(#linear-gradient-2)">
        <path d="M 281.7906799316406 2925.055419921875 L 273.3082885742188 2925.055419921875 L 270.9844360351562 2921.453857421875 L 270.8367309570312 2921.224853515625 L 270.5643005371094 2921.224853515625 L 252.0009002685547 2921.224853515625 C 248.6616821289062 2921.224853515625 245.5225219726562 2919.9248046875 243.1616516113281 2917.56396484375 C 240.8006744384766 2915.203125 239.5004272460938 2912.064208984375 239.5004272460938 2908.725341796875 L 239.5004272460938 2859.999267578125 C 239.5004272460938 2856.66064453125 240.8006744384766 2853.521728515625 243.1616516113281 2851.160888671875 C 245.5226287841797 2848.800048828125 248.6618041992188 2847.499755859375 252.0009002685547 2847.499755859375 L 300.7260131835938 2847.499755859375 C 304.0651245117188 2847.499755859375 307.2043151855469 2848.800048828125 309.5652770996094 2851.160888671875 C 311.92626953125 2853.521728515625 313.2265014648438 2856.66064453125 313.2265014648438 2859.999267578125 L 313.2265014648438 2908.725341796875 C 313.2265014648438 2912.064208984375 311.92626953125 2915.203125 309.5652770996094 2917.56396484375 C 307.2044067382812 2919.9248046875 304.0652465820312 2921.224853515625 300.7260131835938 2921.224853515625 L 284.5341186523438 2921.224853515625 L 284.2616577148438 2921.224853515625 L 284.1139526367188 2921.453857421875 L 281.7906799316406 2925.055419921875 Z" stroke="none"/>
        <path d="M 281.5182189941406 2924.555419921875 L 283.6937866210938 2921.182861328125 L 283.9891662597656 2920.724853515625 L 284.5341186523438 2920.724853515625 L 300.7260131835938 2920.724853515625 C 303.9316711425781 2920.724853515625 306.9452819824219 2919.476806640625 309.2117309570312 2917.21044921875 C 311.478271484375 2914.94384765625 312.7265014648438 2911.9306640625 312.7265014648438 2908.725341796875 L 312.7265014648438 2859.999267578125 C 312.7265014648438 2856.794189453125 311.478271484375 2853.781005859375 309.2117309570312 2851.514404296875 C 306.9451904296875 2849.248046875 303.9315795898438 2847.999755859375 300.7260131835938 2847.999755859375 L 252.0009002685547 2847.999755859375 C 248.7953643798828 2847.999755859375 245.7817535400391 2849.248046875 243.5151824951172 2851.514404296875 C 241.2486572265625 2853.781005859375 240.0004272460938 2856.794189453125 240.0004272460938 2859.999267578125 L 240.0004272460938 2908.725341796875 C 240.0004272460938 2911.9306640625 241.2486572265625 2914.94384765625 243.5151824951172 2917.21044921875 C 245.7816314697266 2919.476806640625 248.7952575683594 2920.724853515625 252.0009002685547 2920.724853515625 L 270.5643005371094 2920.724853515625 L 271.1091613769531 2920.724853515625 L 271.4045715332031 2921.1826171875 L 273.5807189941406 2924.555419921875 L 281.5182189941406 2924.555419921875 M 282.0631713867188 2925.555419921875 L 282.0626220703125 2925.555419921875 L 273.0358581542969 2925.555419921875 L 270.5643005371094 2921.724853515625 L 252.0009002685547 2921.724853515625 C 248.5282440185547 2921.724853515625 245.2635040283203 2920.372802734375 242.8080902099609 2917.91748046875 C 240.3526763916016 2915.462158203125 239.0004272460938 2912.19775390625 239.0004272460938 2908.725341796875 L 239.0004272460938 2859.999267578125 C 239.0004272460938 2856.527099609375 240.3526763916016 2853.2626953125 242.8080902099609 2850.807373046875 C 245.2634582519531 2848.35205078125 248.5281982421875 2846.999755859375 252.0009002685547 2846.999755859375 L 300.7260131835938 2846.999755859375 C 304.19873046875 2846.999755859375 307.4634704589844 2848.35205078125 309.9188232421875 2850.807373046875 C 312.3742370605469 2853.2626953125 313.7265014648438 2856.527099609375 313.7265014648438 2859.999267578125 L 313.7265014648438 2908.725341796875 C 313.7265014648438 2912.19775390625 312.3742370605469 2915.462158203125 309.9188232421875 2917.91748046875 C 307.4634094238281 2920.372802734375 304.1986694335938 2921.724853515625 300.7260131835938 2921.724853515625 L 284.5341186523438 2921.724853515625 L 282.0634765625 2925.554931640625 L 282.0631713867188 2925.555419921875 Z" stroke="none" fill="#9fc4ff"/>
      </g>
      <g id="Subtraction_48" data-name="Subtraction 48" transform="translate(672 -2369.556)" fill="url(#linear-gradient-2)">
        <path d="M 313.2265014648438 2934.055419921875 L 239.5004119873047 2934.055419921875 L 239.5004272460938 2887.999267578125 C 239.5004272460938 2884.66064453125 240.8006744384766 2881.521728515625 243.1616516113281 2879.160888671875 C 245.5226287841797 2876.800048828125 248.6618041992188 2875.499755859375 252.0009002685547 2875.499755859375 L 300.7260131835938 2875.499755859375 C 304.0651245117188 2875.499755859375 307.2043151855469 2876.800048828125 309.5652770996094 2879.160888671875 C 311.92626953125 2881.521728515625 313.2265014648438 2884.66064453125 313.2265014648438 2887.999267578125 L 313.2265014648438 2934.055419921875 Z" stroke="none"/>
        <path d="M 312.7265014648438 2933.555419921875 L 312.7265014648438 2887.999267578125 C 312.7265014648438 2884.794189453125 311.478271484375 2881.781005859375 309.2117309570312 2879.514404296875 C 306.9451904296875 2877.248046875 303.9315795898438 2875.999755859375 300.7260131835938 2875.999755859375 L 252.0009002685547 2875.999755859375 C 248.7953491210938 2875.999755859375 245.78173828125 2877.248046875 243.5151824951172 2879.514404296875 C 241.2486572265625 2881.781005859375 240.0004272460938 2884.794189453125 240.0004272460938 2887.999267578125 L 240.0004119873047 2933.555419921875 L 312.7265014648438 2933.555419921875 M 313.7265014648438 2934.555419921875 L 239.0004119873047 2934.555419921875 L 239.0004272460938 2887.999267578125 C 239.0004272460938 2884.527099609375 240.3526763916016 2881.2626953125 242.8080902099609 2878.807373046875 C 245.2634582519531 2876.35205078125 248.5281982421875 2874.999755859375 252.0009002685547 2874.999755859375 L 300.7260131835938 2874.999755859375 C 304.19873046875 2874.999755859375 307.4634704589844 2876.35205078125 309.9188232421875 2878.807373046875 C 312.3742370605469 2881.2626953125 313.7265014648438 2884.527099609375 313.7265014648438 2887.999267578125 L 313.7265014648438 2934.555419921875 Z" stroke="none" fill="#9fc4ff"/>
      </g>
      <g id="Union_225" data-name="Union 225" transform="translate(817 201.436)" fill="url(#linear-gradient-2)">
        <path d="M 38.54925155639648 83.67408752441406 C 37.35494232177734 83.67408752441406 36.25555419921875 83.07509613037109 35.60836410522461 82.07176971435547 L 31.0876522064209 75.06435394287109 C 30.97650718688965 74.89210510253906 30.88014030456543 74.71160888671875 30.80121994018555 74.52786254882812 L 30.67120742797852 74.22520446777344 L 30.3418083190918 74.22520446777344 L 13.00049686431885 74.22520446777344 C 9.661430358886719 74.22520446777344 6.522252559661865 72.92499542236328 4.161219120025635 70.56407165527344 C 1.800241231918335 68.20321655273438 0.4999968111515045 65.06431579589844 0.4999968111515045 61.72560501098633 L 0.4999968111515045 12.99959564208984 C 0.4999968111515045 9.660884857177734 1.800241231918335 6.521995544433594 4.161219120025635 4.161128997802734 C 6.522252559661865 1.800217747688293 9.661430358886719 0.5000066161155701 13.00049686431885 0.5000066161155701 L 61.72560882568359 0.5000066161155701 C 65.06467437744141 0.5000066161155701 68.20384979248047 1.800217747688293 70.56488800048828 4.161128997802734 C 72.92586517333984 6.521995544433594 74.22610473632812 9.660884857177734 74.22610473632812 12.99959564208984 L 74.22610473632812 61.72560501098633 C 74.22610473632812 65.06431579589844 72.92586517333984 68.20321655273438 70.56488800048828 70.56407165527344 C 68.20384979248047 72.92499542236328 65.06467437744141 74.22520446777344 61.72560882568359 74.22520446777344 L 46.75667572021484 74.22520446777344 L 46.42727279663086 74.22520446777344 L 46.29726409912109 74.52786254882812 C 46.21831893920898 74.71163940429688 46.12196350097656 74.89214324951172 46.0108642578125 75.0643310546875 L 41.49014282226562 82.07175445556641 C 40.84295272827148 83.07509613037109 39.74356460571289 83.67408752441406 38.54925155639648 83.67408752441406 Z" stroke="none"/>
        <path d="M 38.54925155639648 83.17408752441406 C 39.58821868896484 83.17408752441406 40.50698471069336 82.67353057861328 41.06998443603516 81.80069732666016 L 45.59071731567383 74.79324340820312 C 45.68674087524414 74.64443206787109 45.7698974609375 74.48873901367188 45.83786392211914 74.33052062988281 L 46.09787368774414 73.72520446777344 L 46.75667572021484 73.72520446777344 L 61.72560882568359 73.72520446777344 C 64.93112182617188 73.72520446777344 67.94475555419922 72.47699737548828 70.21134185791016 70.21051788330078 C 72.47787475585938 67.944091796875 73.72610473632812 64.93076324462891 73.72610473632812 61.72560501098633 L 73.72610473632812 12.99959564208984 C 73.72610473632812 9.794440269470215 72.47787475585938 6.781117916107178 70.21134185791016 4.514695644378662 C 67.94475555419922 2.248217821121216 64.93112945556641 1.000006556510925 61.72560882568359 1.000006556510925 L 13.00049686431885 1.000006556510925 C 9.794974327087402 1.000006556510925 6.781352519989014 2.248217821121216 4.514763355255127 4.514695644378662 C 2.248230218887329 6.781117916107178 0.9999968409538269 9.794440269470215 0.9999968409538269 12.99959564208984 L 0.9999968409538269 61.72560501098633 C 0.9999968409538269 64.93076324462891 2.248230218887329 67.944091796875 4.514763355255127 70.21051788330078 C 6.781352519989014 72.47699737548828 9.794985771179199 73.72520446777344 13.00049686431885 73.72520446777344 L 30.3418083190918 73.72520446777344 L 31.00060844421387 73.72520446777344 L 31.26061820983887 74.33052062988281 C 31.32857513427734 74.48870849609375 31.41172981262207 74.64439392089844 31.50780868530273 74.79329681396484 L 36.02854156494141 81.80075073242188 C 36.59151840209961 82.67351531982422 37.51028442382812 83.17408752441406 38.54925155639648 83.17408752441406 M 38.54925155639648 84.17408752441406 C 37.26247406005859 84.17408752441406 35.9756965637207 83.56365203857422 35.18819808959961 82.34280395507812 L 30.6674976348877 75.33540344238281 C 30.53889656066895 75.13609313964844 30.43070793151855 74.93215942382812 30.3418083190918 74.72520446777344 L 13.00049686431885 74.72520446777344 C 5.820307731628418 74.72520446777344 -3.187391484971158e-06 68.90489196777344 -3.187391484971158e-06 61.72560501098633 L -3.187391484971158e-06 12.99959564208984 C -3.187391484971158e-06 5.820306777954102 5.820307731628418 6.614176527364179e-06 13.00049686431885 6.614176527364179e-06 L 61.72560882568359 6.614176527364179e-06 C 68.90579986572266 6.614176527364179e-06 74.72610473632812 5.820306777954102 74.72610473632812 12.99959564208984 L 74.72610473632812 61.72560501098633 C 74.72610473632812 68.90489196777344 68.90579986572266 74.72520446777344 61.72560882568359 74.72520446777344 L 46.75667572021484 74.72520446777344 C 46.66777420043945 74.93215942382812 46.55959701538086 75.13609313964844 46.43099594116211 75.33540344238281 L 41.91029739379883 82.34280395507812 C 41.12280654907227 83.56365203857422 39.83602905273438 84.17408752441406 38.54925155639648 84.17408752441406 Z" stroke="none" fill="#d1e3fe"/>
      </g>
      <g id="Group_3339" data-name="Group 3339" transform="translate(945 203.716)">
        <g id="Group_579" data-name="Group 579" transform="translate(0 0)">
          <path id="Union_67" data-name="Union 67" d="M26.534,33.415H6.5L3.383,21.146H1.489a1.489,1.489,0,1,1,0-2.977H3.938l.779,1.774a2,2,0,0,0,1.832,1.2h9.9a2,2,0,0,0,1.831-1.2l.779-1.774H31.981a1.489,1.489,0,0,1,0,2.977H30.1L26.535,33.414h0ZM7.307,20.189a2,2,0,0,1-1.832-1.2L3.343,14.122a2.012,2.012,0,0,1,.883-2.563L8.441,9.287a5.407,5.407,0,0,0,6.081-.014l4.243,2.286a2.011,2.011,0,0,1,.883,2.563l-2.132,4.869a2,2,0,0,1-1.832,1.2Zm15.711-2.507a.425.425,0,0,1-.247-.772l2.309-1.636a.425.425,0,0,1,.491,0l2.309,1.636a.425.425,0,0,1-.246.772Zm1.854-3.2a.449.449,0,1,1,.449.449A.449.449,0,0,1,24.872,14.485ZM6.657,4.813A4.813,4.813,0,1,1,11.47,9.626,4.813,4.813,0,0,1,6.657,4.813Z" fill="#6fa6ec"/>
        </g>
      </g>
      <g id="Group_3340" data-name="Group 3340" transform="translate(1058 197.823)">
        <path id="Union_66" data-name="Union 66" d="M12.27,26.754a.774.774,0,1,1,0-1.549H16V20.644H2.9a2.9,2.9,0,0,1-2.9-2.9V2.9A2.9,2.9,0,0,1,2.9,0H30.636a2.9,2.9,0,0,1,2.9,2.9V17.745a2.9,2.9,0,0,1-2.9,2.9h-13.1v4.561h3.779a.774.774,0,0,1,0,1.549Zm17.024-15.4a.151.151,0,0,0,.066.2l.757.386a.153.153,0,0,0,.068.016.151.151,0,0,0,.133-.082.148.148,0,0,0,.009-.114.145.145,0,0,0-.074-.087l-.758-.385a.153.153,0,0,0-.068-.016A.147.147,0,0,0,29.293,11.35ZM25.538,9.972v.05a1.524,1.524,0,1,0,3.048,0v-.05a1.524,1.524,0,1,0-3.048,0ZM4.2,9.8a1.35,1.35,0,0,0,1.349,1.349H20.091a1.35,1.35,0,0,0,0-2.7H5.548A1.351,1.351,0,0,0,4.2,9.8ZM29.287,2.65a.651.651,0,0,0,.65.65h.049a.65.65,0,1,0,0-1.3h-.049A.651.651,0,0,0,29.287,2.65Zm-6.2,0a.651.651,0,0,0,.65.65h2.5a.65.65,0,0,0,0-1.3h-2.5A.651.651,0,0,0,23.09,2.65Zm-20.041,0a.651.651,0,0,0,.65.65H19.041a.65.65,0,1,0,0-1.3H3.7A.651.651,0,0,0,3.048,2.65Z" transform="translate(0 0)" fill="#6fa6ec" opacity="0.93"/>
      </g>
      <path id="Union_246" data-name="Union 246" d="M26.722,29.629a3.161,3.161,0,0,1,.407-1.557L20.5,22.513a6.339,6.339,0,0,1-7.587.632l-1.99,2.74a3.165,3.165,0,1,1-1.02-.615l2.07-2.849a6.324,6.324,0,0,1-1.9-3.377l-3.743.131a3.176,3.176,0,1,1-.1-1.184l3.713-.129q0-.04,0-.079a6.306,6.306,0,0,1,.777-3.043L6.94,11.557a3.178,3.178,0,1,1,.847-.839L11.4,13.751a6.341,6.341,0,0,1,7.918-1.535l4.349-6.959A3.171,3.171,0,1,1,24.6,6l-4.3,6.882a6.322,6.322,0,0,1,2.318,4.667l3.467-.121a3.175,3.175,0,1,1,.1,1.184l-3.631.127a6.306,6.306,0,0,1-1.336,3.028l6.558,5.5a3.177,3.177,0,1,1-1.054,2.363Z" transform="translate(1074 420)" fill="#6fa6ec"/>
      <path id="Union_235" data-name="Union 235" d="M15.652,33.49A16.753,16.753,0,0,1,8.969,1.938,16.309,16.309,0,0,1,21.155.62a16.473,16.473,0,0,1,9.475,6.8l.076-.872a.746.746,0,0,1,1.487.13l-.238,2.715a.815.815,0,0,1-.979.7l-3.023-.81a.746.746,0,0,1,.386-1.441l.99.266a14,14,0,0,0-3.3-3.514,15.035,15.035,0,0,0-9.612-3.142,15.327,15.327,0,1,0,13.135,23.74l.414-.662a.7.7,0,1,1,1.182.739l-.051.076a16.591,16.591,0,0,1-14.329,8.186Q16.217,33.526,15.652,33.49ZM7.115,26.065A13.135,13.135,0,1,1,25.691,7.489,13.135,13.135,0,0,1,7.115,26.065Zm10.65-6.876,5.045,3.952a.554.554,0,0,0,.78-.1.558.558,0,0,0-.1-.783l-4.884-3.827c.023-.031.047-.063.069-.1a2.74,2.74,0,0,0,.467-1.532,2.7,2.7,0,0,0-.056-.552,2.73,2.73,0,0,0-.411-.979,2.74,2.74,0,0,0-.738-.74,2.7,2.7,0,0,0-.977-.412l-.005,0,0-6.467a.555.555,0,1,0-1.11,0v6.473a2.84,2.84,0,0,0-.5.156,2.9,2.9,0,0,0-.464.253,2.865,2.865,0,0,0-.4.334,2.771,2.771,0,0,0-.334.406,2.73,2.73,0,0,0-.411.979,2.75,2.75,0,0,0,.159,1.618,2.8,2.8,0,0,0,.252.465,2.688,2.688,0,0,0,.334.405,2.638,2.638,0,0,0,.4.334,2.72,2.72,0,0,0,.464.253,2.653,2.653,0,0,0,.513.159,2.751,2.751,0,0,0,1.1,0,2.722,2.722,0,0,0,.8-.3h0ZM15.8,18.256a1.576,1.576,0,0,1-.5-.337,1.517,1.517,0,0,1-.192-.233,1.623,1.623,0,0,1-.145-.267,1.58,1.58,0,0,1,0-1.224,1.712,1.712,0,0,1,.145-.267A1.673,1.673,0,0,1,15.3,15.7a1.7,1.7,0,0,1,.232-.193,1.651,1.651,0,0,1,.266-.145,1.576,1.576,0,0,1,1.222,0,1.672,1.672,0,0,1,.267.145,1.6,1.6,0,0,1,.424.425,1.566,1.566,0,0,1,.268.879,1.556,1.556,0,0,1-.123.612,1.5,1.5,0,0,1-.145.267,1.52,1.52,0,0,1-.192.233,1.567,1.567,0,0,1-.5.337,1.565,1.565,0,0,1-1.222,0Z" transform="translate(838 220.717)" fill="#6fa6ec"/>
      <g id="Group_3356" data-name="Group 3356" transform="translate(810.999 328.832)">
        <path id="Union_230" data-name="Union 230" d="M24.106,28.282l-10.25-8.3L5.4,28.733a.718.718,0,0,1-1.018.018L3.922,28.3a.72.72,0,0,1-.017-1.018l8.325-8.621L9.574,16.514a3.233,3.233,0,0,1-.284-.257,6.836,6.836,0,0,1-6.76-1.063A6.763,6.763,0,0,1,.2,11.521,6.887,6.887,0,0,1,.518,7.267l4.407,3.569A1.958,1.958,0,1,0,7.391,7.793l-4.4-3.562a6.88,6.88,0,0,1,4.08-1.175A6.77,6.77,0,0,1,11.13,4.575a6.84,6.84,0,0,1,2.445,6.391,3.656,3.656,0,0,1,.311.224l3.121,2.528,3.031-3.139-3.624-3.5A5.008,5.008,0,0,1,16.291,0l15.95,15.4a5.006,5.006,0,0,1-7.078.123l-3.624-3.5-2.9,3.008,9.784,7.923a3.426,3.426,0,0,1-4.312,5.324Zm1.085-3.641a1.587,1.587,0,1,0,1.234-.587A1.587,1.587,0,0,0,25.191,24.64Z" transform="translate(0 2.775)" fill="#6fa6ec"/>
        <rect id="Rectangle_1707" data-name="Rectangle 1707" width="1.779" height="6.524" rx="0.89" transform="translate(21.021 0) rotate(44)" fill="#6fa6ec"/>
        <rect id="Rectangle_1710" data-name="Rectangle 1710" width="1.779" height="6.524" rx="0.89" transform="translate(24.58 3.558) rotate(44)" fill="#6fa6ec"/>
        <rect id="Rectangle_1712" data-name="Rectangle 1712" width="1.779" height="6.524" rx="0.89" transform="translate(28.138 7.117) rotate(44)" fill="#6fa6ec"/>
        <rect id="Rectangle_1714" data-name="Rectangle 1714" width="1.779" height="6.524" rx="0.89" transform="translate(31.696 10.675) rotate(44)" fill="#6fa6ec"/>
        <rect id="Rectangle_1708" data-name="Rectangle 1708" width="1.779" height="6.524" rx="0.89" transform="translate(22.801 1.779) rotate(44)" fill="#6fa6ec"/>
        <rect id="Rectangle_1709" data-name="Rectangle 1709" width="1.779" height="6.524" rx="0.89" transform="translate(26.359 5.338) rotate(44)" fill="#6fa6ec"/>
        <rect id="Rectangle_1711" data-name="Rectangle 1711" width="1.779" height="6.524" rx="0.89" transform="translate(29.917 8.896) rotate(44)" fill="#6fa6ec"/>
        <rect id="Rectangle_1713" data-name="Rectangle 1713" width="1.779" height="6.524" rx="0.89" transform="translate(33.476 12.454) rotate(44)" fill="#6fa6ec"/>
      </g>
      <g id="Group_3347" data-name="Group 3347" transform="translate(848.724 434.836)">
        <path id="Subtraction_20" data-name="Subtraction 20" d="M20.841,33H2.159A2.135,2.135,0,0,1,0,30.894V2.105A2.135,2.135,0,0,1,2.159,0H20.841A2.135,2.135,0,0,1,23,2.105V30.894A2.135,2.135,0,0,1,20.841,33ZM17.486,21.42a1.711,1.711,0,0,0-1.709,1.709v4.8a1.709,1.709,0,1,0,3.417,0v-4.8A1.711,1.711,0,0,0,17.486,21.42Zm-6.152,5.142a1.536,1.536,0,1,0,0,3.073h.345a1.536,1.536,0,1,0,0-3.073Zm-6.046,0a1.536,1.536,0,1,0,0,3.073h.345a1.536,1.536,0,1,0,0-3.073Zm6.046-5.142a1.536,1.536,0,0,0,0,3.073h.345a1.536,1.536,0,1,0,0-3.073Zm-6.046,0a1.536,1.536,0,0,0,0,3.073h.345a1.536,1.536,0,0,0,0-3.073Zm12.026-5.142a1.536,1.536,0,1,0,0,3.073h.345a1.536,1.536,0,0,0,0-3.073Zm-5.98,0a1.536,1.536,0,1,0,0,3.073h.345a1.536,1.536,0,1,0,0-3.073Zm-6.046,0a1.536,1.536,0,1,0,0,3.073h.345a1.536,1.536,0,1,0,0-3.073ZM4.892,3.7a1.116,1.116,0,0,0-1.14,1.088v7.732a1.116,1.116,0,0,0,1.14,1.087H18.055a1.115,1.115,0,0,0,1.139-1.087V4.791A1.116,1.116,0,0,0,18.055,3.7Z" transform="translate(0.276 0.164)" fill="#77afef"/>
        <path id="Subtraction_24" data-name="Subtraction 24" d="M7.425,24H0V0H9.565a1.757,1.757,0,0,1,.743.164,1.866,1.866,0,0,1,.324.193,1.977,1.977,0,0,1,.283.255,2.079,2.079,0,0,1,.233.31,2.162,2.162,0,0,1,.176.355,2.251,2.251,0,0,1,.15.814V21.907a2.251,2.251,0,0,1-.15.814,2.162,2.162,0,0,1-.176.355,2.08,2.08,0,0,1-.233.31,1.975,1.975,0,0,1-.283.255,1.866,1.866,0,0,1-.324.193A1.757,1.757,0,0,1,9.565,24H8.384V.008h-.96V24Z" transform="translate(21.868 4.481)" fill="#77afef"/>
        <rect id="Rectangle_824" data-name="Rectangle 824" width="2" height="2" transform="translate(7.276 7.164)" fill="#77afef"/>
        <rect id="Rectangle_825" data-name="Rectangle 825" height="2" transform="translate(11.276 7.164)" fill="#77afef"/>
        <rect id="Rectangle_826" data-name="Rectangle 826" width="2" height="2" transform="translate(12.276 7.164)" fill="#77afef"/>
      </g>
      <path id="Union_238" data-name="Union 238" d="M14.272,33a1,1,0,0,1-1-1V30.56A14.216,14.216,0,0,1,8.76,28.805l-.937.937a1,1,0,0,1-1.415,0L3.257,26.591a1,1,0,0,1,0-1.414l.855-.855a14.206,14.206,0,0,1-1.954-4.594H1a1,1,0,0,1-1-1V14.271a1,1,0,0,1,1-1H2.158A14.2,14.2,0,0,1,4.112,8.678l-.855-.855a1,1,0,0,1,0-1.415L6.409,3.257a1,1,0,0,1,1.414,0l.937.937a14.219,14.219,0,0,1,4.513-1.755V1a1,1,0,0,1,1-1h4.456a1,1,0,0,1,1,1V2.6A14.235,14.235,0,0,1,23.964,4.47l1.213-1.213a1,1,0,0,1,1.415,0l3.151,3.151a1,1,0,0,1,0,1.414l-1.3,1.3a14.236,14.236,0,0,1,1.678,4.154H32a1,1,0,0,1,1,1v4.457a1,1,0,0,1-1,1H30.125a14.266,14.266,0,0,1-1.678,4.153l1.3,1.3a1,1,0,0,1,0,1.414l-3.152,3.152a1,1,0,0,1-1.414,0L23.964,28.53A14.271,14.271,0,0,1,19.728,30.4V32a1,1,0,0,1-1,1ZM5.955,16.6A10.154,10.154,0,1,0,16.11,6.444,10.166,10.166,0,0,0,5.955,16.6Zm7.272,7.167a1.17,1.17,0,0,1-1.073-.7l-1.766-4.04a1.169,1.169,0,0,1,.516-1.5l3.089-1.668a3.623,3.623,0,0,0,.528.431,3.537,3.537,0,0,0,.606.326,3.578,3.578,0,0,0,3.9-.758l3.09,1.669a1.169,1.169,0,0,1,.516,1.5l-1.766,4.04a1.17,1.17,0,0,1-1.073.7Zm-.149-11.073a3.433,3.433,0,1,1,3.433,3.433A3.433,3.433,0,0,1,13.079,12.692Z" transform="translate(925 307)" fill="#6fa6ec"/>
      <path id="Union_242" data-name="Union 242" d="M14.272,33a1,1,0,0,1-1-1V30.56A14.216,14.216,0,0,1,8.76,28.805l-.937.937a1,1,0,0,1-1.415,0L3.257,26.591a1,1,0,0,1,0-1.414l.855-.855a14.206,14.206,0,0,1-1.954-4.594H1a1,1,0,0,1-1-1V14.271a1,1,0,0,1,1-1H2.158A14.2,14.2,0,0,1,4.112,8.678l-.855-.855a1,1,0,0,1,0-1.415L6.409,3.257a1,1,0,0,1,1.414,0l.937.937a14.219,14.219,0,0,1,4.513-1.755V1a1,1,0,0,1,1-1h4.456a1,1,0,0,1,1,1V2.6A14.235,14.235,0,0,1,23.964,4.47l1.213-1.213a1,1,0,0,1,1.415,0l3.151,3.151a1,1,0,0,1,0,1.414l-1.3,1.3a14.236,14.236,0,0,1,1.678,4.154H32a1,1,0,0,1,1,1v4.457a1,1,0,0,1-1,1H30.125a14.266,14.266,0,0,1-1.678,4.153l1.3,1.3a1,1,0,0,1,0,1.414l-3.152,3.152a1,1,0,0,1-1.414,0L23.964,28.53A14.271,14.271,0,0,1,19.728,30.4V32a1,1,0,0,1-1,1ZM5.955,16.6A10.154,10.154,0,1,0,16.11,6.444,10.166,10.166,0,0,0,5.955,16.6Zm6.86,3.721V15.55h2.349v4.769ZM9.887,20.3V16.963h2.349V20.3Zm8.784-.018V10.552H21.02v9.733Zm-2.928,0V12.167h2.349v8.117Z" transform="translate(958 418)" fill="#6ea6ec"/>
      <path id="Subtraction_8" data-name="Subtraction 8" d="M27.5,30.955H3.217V15.333H0L15.2,0l4.479,4.062.891.808V1.108H26.2V9.981l.163.148,4.606,5.2H27.5V30.955ZM15.383,11.005a3.635,3.635,0,0,0-.727.073,3.585,3.585,0,0,0-1.29.543,3.618,3.618,0,0,0-1.307,1.587,3.588,3.588,0,0,0-.21.677,3.644,3.644,0,0,0,0,1.454,3.587,3.587,0,0,0,.543,1.29,3.618,3.618,0,0,0,1.377,1.21L9.03,20.4A1.2,1.2,0,0,0,8.5,21.937l2.014,4.61a1.2,1.2,0,0,0,1.1.72h7.492a1.2,1.2,0,0,0,1.1-.72l2.014-4.61a1.2,1.2,0,0,0-.529-1.537l-4.718-2.549a3.625,3.625,0,0,0,1.4-1.222,3.606,3.606,0,0,0-2.992-5.624Z" transform="translate(1157 333.433)" fill="#6fa6ec"/>
      <g id="Group_3350" data-name="Group 3350" transform="translate(1164.648 226.385)">
        <path id="Subtraction_18" data-name="Subtraction 18" d="M14.208,30.178h0A15.319,15.319,0,0,1,9.433,28.31L7.687,30.052a.035.035,0,0,1-.049,0L2.771,25.2a.03.03,0,0,1-.011-.024.032.032,0,0,1,.011-.024l1.657-1.653a15.277,15.277,0,0,1-2.1-4.936H1a1,1,0,0,1-1-1V12.62a1,1,0,0,1,1-1H2.324a15.277,15.277,0,0,1,2.1-4.937L2.771,5.03a.03.03,0,0,1-.011-.024.032.032,0,0,1,.011-.024L7.638.125a.035.035,0,0,1,.049,0L9.433,1.868A15.367,15.367,0,0,1,14.208,0V4.684A10.927,10.927,0,0,0,9.845,22.82a10.844,10.844,0,0,0,4.363,2.673v4.683Z" transform="translate(0 0.004)" fill="#6fa6ec"/>
        <g id="Group_904" data-name="Group 904" transform="translate(15.417 0)">
          <path id="Subtraction_19" data-name="Subtraction 19" d="M7.32,14.17l-5.32,0a2,2,0,0,1-2-2V2A2,2,0,0,1,2,0H12.754a2,2,0,0,1,2,2V12.168a2,2,0,0,1-2,2H7.42a.282.282,0,0,0,.233-.279V10.8l.719.744a.283.283,0,1,0,.407-.393L7.6,9.928a.282.282,0,0,0-.187-.086l-.032,0a.282.282,0,0,0-.2.08L5.956,11.1a.284.284,0,0,0,.394.408l.736-.71v3.089a.283.283,0,0,0,.233.279ZM4.278,2.389a1,1,0,0,0-1,1V6.306a1,1,0,0,0,1,1h6.2a1,1,0,0,0,1-1V3.389a1,1,0,0,0-1-1Z" transform="translate(0 0)" fill="#6fa6ec"/>
        </g>
        <g id="Group_905" data-name="Group 905" transform="translate(15.417 16.007)">
          <path id="Subtraction_19-2" data-name="Subtraction 19" d="M7.32,14.17l-5.32,0a2,2,0,0,1-2-2V2A2,2,0,0,1,2,0H12.754a2,2,0,0,1,2,2V12.168a2,2,0,0,1-2,2H7.42a.282.282,0,0,0,.233-.279V10.8l.719.744a.283.283,0,1,0,.407-.393L7.6,9.928a.282.282,0,0,0-.187-.086l-.032,0a.282.282,0,0,0-.2.08L5.956,11.1a.284.284,0,0,0,.394.408l.736-.71v3.089a.283.283,0,0,0,.233.279ZM4.278,2.389a1,1,0,0,0-1,1V6.306a1,1,0,0,0,1,1h6.2a1,1,0,0,0,1-1V3.389a1,1,0,0,0-1-1Z" transform="translate(0 0)" fill="#6fa6ec"/>
        </g>
      </g>
      <g id="Group_3352" data-name="Group 3352" transform="translate(1036.505 306.772)">
        <g id="Mask_Group_1" data-name="Mask Group 1" transform="translate(4.825 5.39)" clip-path="url(#clip-path)">
          <g id="help-button-speech-bubble-with-question-mark" transform="translate(5.31 5.209)">
            <g id="live-help" transform="translate(0 0)">
              <path id="Path_2400" data-name="Path 2400" d="M59.156,0H49.307A1.411,1.411,0,0,0,47.9,1.407v9.849a1.411,1.411,0,0,0,1.407,1.407h2.814l2.111,2.111,2.111-2.111h2.814a1.411,1.411,0,0,0,1.407-1.407V1.407A1.411,1.411,0,0,0,59.156,0ZM54.935,11.256H53.528V9.849h1.407Zm1.477-5.417-.633.633a2.191,2.191,0,0,0-.844,1.97H53.528V8.091a2.555,2.555,0,0,1,.844-1.97l.844-.915a1.181,1.181,0,0,0,.422-.985,1.407,1.407,0,1,0-2.814,0H51.417a2.814,2.814,0,1,1,5.628,0A2.562,2.562,0,0,1,56.412,5.839Z" transform="translate(-47.9)" fill="#6ea6ec"/>
            </g>
          </g>
        </g>
        <g id="Group_582" data-name="Group 582" transform="translate(0.495 0.228)">
          <path id="Subtraction_1" data-name="Subtraction 1" d="M19.326,34H14.674a1,1,0,0,1-1-1V31.487a14.65,14.65,0,0,1-4.649-1.808l-.987.987a1,1,0,0,1-1.414,0L3.335,27.376a1,1,0,0,1,0-1.415l.9-.9a14.667,14.667,0,0,1-2.013-4.734H1a1,1,0,0,1-1-1V14.674a1,1,0,0,1,1-1H2.224A14.64,14.64,0,0,1,4.236,8.94l-.9-.9a1,1,0,0,1,0-1.414L6.624,3.335a1,1,0,0,1,1.414,0l.987.987a14.65,14.65,0,0,1,4.649-1.808V1a1,1,0,0,1,1-1h4.652a1,1,0,0,1,1,1V2.683A14.7,14.7,0,0,1,24.69,4.606l1.272-1.272a1,1,0,0,1,1.415,0l3.289,3.289a1,1,0,0,1,0,1.414L29.309,9.4a14.661,14.661,0,0,1,1.728,4.279H33a1,1,0,0,1,1,1v4.652a1,1,0,0,1-1,1H31.037a14.7,14.7,0,0,1-1.728,4.279l1.356,1.356a1,1,0,0,1,0,1.415l-3.289,3.289a1,1,0,0,1-1.415,0L24.69,29.394a14.7,14.7,0,0,1-4.364,1.923V33A1,1,0,0,1,19.326,34ZM16.6,6.639A10.461,10.461,0,1,0,27.059,17.1,10.473,10.473,0,0,0,16.6,6.639Z" transform="translate(0 0)" fill="#6ea6ec"/>
        </g>
      </g>
      <path id="Union_244" data-name="Union 244" d="M2.723,27A2.706,2.706,0,0,1,0,24.319V5.551A2.706,2.706,0,0,1,2.723,2.87H5.561V1.3A1.314,1.314,0,0,1,6.885,0h.21A1.313,1.313,0,0,1,8.418,1.3V2.87h10.13V1.3A1.313,1.313,0,0,1,19.872,0h.21A1.313,1.313,0,0,1,21.4,1.3V2.87h2.872A2.706,2.706,0,0,1,27,5.551V24.319A2.706,2.706,0,0,1,24.277,27Zm.355-3.03H23.921V9.36H3.079Zm10.3-1.61a1.007,1.007,0,0,1-.988-.848,4.952,4.952,0,0,1-1.6-.624,1,1,0,0,1-1.263-.124l-.176-.176A1,1,0,0,1,9.2,19.361,4.959,4.959,0,0,1,8.5,17.7a1,1,0,0,1-.744-.967v-.249A1,1,0,0,1,8.5,15.52a4.971,4.971,0,0,1,.7-1.658,1,1,0,0,1,.148-1.227l.176-.176a1,1,0,0,1,1.263-.124,4.948,4.948,0,0,1,1.6-.624,1,1,0,0,1,.988-.848h.249a.994.994,0,0,1,1,.906,4.955,4.955,0,0,1,1.482.653,1,1,0,0,1,1.374.037l.176.176a1,1,0,0,1,.009,1.4,4.949,4.949,0,0,1,.585,1.446,1,1,0,0,1,1,1v.249a1,1,0,0,1-1,1,4.981,4.981,0,0,1-.586,1.447,1,1,0,0,1-.009,1.4l-.176.176A1,1,0,0,1,16.1,20.8a4.952,4.952,0,0,1-1.482.653,1,1,0,0,1-1,.906Zm-2.6-5.714a2.588,2.588,0,1,0,2.588-2.588A2.591,2.591,0,0,0,10.776,16.646Z" transform="translate(1185 449)" fill="#6fa6ec"/>
      <g id="Subtraction_50" data-name="Subtraction 50" transform="translate(735 -2322.556)" fill="url(#linear-gradient-2)">
        <path d="M 298.2261962890625 2915.055419921875 L 239.5004119873047 2915.055419921875 L 239.5004272460938 2891.999755859375 C 239.5004272460938 2888.6611328125 240.8006744384766 2885.522216796875 243.16162109375 2883.161376953125 C 245.5226287841797 2880.800537109375 248.6618194580078 2879.500244140625 252.0009002685547 2879.500244140625 L 285.7265930175781 2879.500244140625 C 289.0653076171875 2879.500244140625 292.2041931152344 2880.800537109375 294.5650939941406 2883.161376953125 C 296.9259948730469 2885.522216796875 298.2261962890625 2888.6611328125 298.2261962890625 2891.999755859375 L 298.2261962890625 2915.055419921875 Z" stroke="none"/>
        <path d="M 297.7261962890625 2914.555419921875 L 297.7261962890625 2891.999755859375 C 297.7261962890625 2888.794677734375 296.4779968261719 2885.781494140625 294.2115173339844 2883.514892578125 C 291.945068359375 2881.24853515625 288.9317321777344 2880.000244140625 285.7265930175781 2880.000244140625 L 252.0009002685547 2880.000244140625 C 248.7953643798828 2880.000244140625 245.78173828125 2881.24853515625 243.5151672363281 2883.514892578125 C 241.2486572265625 2885.781494140625 240.0004272460938 2888.794677734375 240.0004272460938 2891.999755859375 L 240.0004119873047 2914.555419921875 L 297.7261962890625 2914.555419921875 M 298.7261962890625 2915.555419921875 L 298.7251892089844 2915.555419921875 L 298.7261962890625 2915.555419921875 Z M 298.7261962890625 2915.555419921875 L 239.0004119873047 2915.555419921875 L 239.0004272460938 2891.999755859375 C 239.0004272460938 2888.527587890625 240.3526763916016 2885.26318359375 242.8080749511719 2882.807861328125 C 245.2634582519531 2880.3525390625 248.5281982421875 2879.000244140625 252.0009002685547 2879.000244140625 L 285.7265930175781 2879.000244140625 C 289.1989135742188 2879.000244140625 292.46337890625 2880.3525390625 294.9186401367188 2882.807861328125 C 297.3739929199219 2885.26318359375 298.7261962890625 2888.527587890625 298.7261962890625 2891.999755859375 L 298.7261962890625 2915.554443359375 L 298.7261962890625 2915.555419921875 Z" stroke="none" fill="#9fc4ff"/>
      </g>
      <g id="Subtraction_51" data-name="Subtraction 51" transform="translate(583 -2341.556)" opacity="0.515" fill="url(#linear-gradient-2)">
        <path d="M 298.2261962890625 2915.055419921875 L 239.5004119873047 2915.055419921875 L 239.5004272460938 2891.999755859375 C 239.5004272460938 2888.6611328125 240.8006744384766 2885.522216796875 243.16162109375 2883.161376953125 C 245.5226287841797 2880.800537109375 248.6618194580078 2879.500244140625 252.0009002685547 2879.500244140625 L 285.7265930175781 2879.500244140625 C 289.0653076171875 2879.500244140625 292.2041931152344 2880.800537109375 294.5650939941406 2883.161376953125 C 296.9259948730469 2885.522216796875 298.2261962890625 2888.6611328125 298.2261962890625 2891.999755859375 L 298.2261962890625 2915.055419921875 Z" stroke="none"/>
        <path d="M 297.7261962890625 2914.555419921875 L 297.7261962890625 2891.999755859375 C 297.7261962890625 2888.794677734375 296.4779968261719 2885.781494140625 294.2115173339844 2883.514892578125 C 291.945068359375 2881.24853515625 288.9317321777344 2880.000244140625 285.7265930175781 2880.000244140625 L 252.0009002685547 2880.000244140625 C 248.7953643798828 2880.000244140625 245.78173828125 2881.24853515625 243.5151672363281 2883.514892578125 C 241.2486572265625 2885.781494140625 240.0004272460938 2888.794677734375 240.0004272460938 2891.999755859375 L 240.0004119873047 2914.555419921875 L 297.7261962890625 2914.555419921875 M 298.7261962890625 2915.555419921875 L 298.7251892089844 2915.555419921875 L 298.7261962890625 2915.555419921875 Z M 298.7261962890625 2915.555419921875 L 239.0004119873047 2915.555419921875 L 239.0004272460938 2891.999755859375 C 239.0004272460938 2888.527587890625 240.3526763916016 2885.26318359375 242.8080749511719 2882.807861328125 C 245.2634582519531 2880.3525390625 248.5281982421875 2879.000244140625 252.0009002685547 2879.000244140625 L 285.7265930175781 2879.000244140625 C 289.1989135742188 2879.000244140625 292.46337890625 2880.3525390625 294.9186401367188 2882.807861328125 C 297.3739929199219 2885.26318359375 298.7261962890625 2888.527587890625 298.7261962890625 2891.999755859375 L 298.7261962890625 2915.554443359375 L 298.7261962890625 2915.555419921875 Z" stroke="none" fill="#9fc4ff"/>
      </g>
      <line id="Line_1188" data-name="Line 1188" x2="73" transform="translate(814.5 573.5)" fill="none" stroke="#9fc4ff" stroke-linecap="round" stroke-width="1"/>
      <line id="Line_1189" data-name="Line 1189" x2="73" transform="translate(966.5 592.5)" fill="none" stroke="#9fc4ff" stroke-linecap="round" stroke-width="1"/>
      <line id="Line_1190" data-name="Line 1190" x2="73" transform="translate(897.5 564.5)" fill="none" stroke="#9fc4ff" stroke-linecap="round" stroke-width="1"/>
      <line id="Line_1191" data-name="Line 1191" x2="87" transform="translate(1033.5 555.5)" fill="none" stroke="#9fc4ff" stroke-linecap="round" stroke-width="1"/>
      <line id="Line_1192" data-name="Line 1192" x2="87" transform="translate(1127.5 592.5)" fill="none" stroke="#9fc4ff" stroke-linecap="round" stroke-width="1"/>
    </g>
  </g>
</svg>
