<svg xmlns="http://www.w3.org/2000/svg" xmlns:xlink="http://www.w3.org/1999/xlink" width="200" height="150" viewBox="0 0 200 150">
  <defs>
    <clipPath id="clip-hotel_bella">
      <rect width="200" height="150"/>
    </clipPath>
  </defs>
  <g id="hotel_bella" clip-path="url(#clip-hotel_bella)">
    <g id="Hotel_Bella-2" data-name="Hotel Bella" transform="translate(25)">
      <path id="Path_11315" data-name="Path 11315" d="M9.76,159.76V9.76h150v150Zm63.2-42.468.286.076a13,13,0,0,0,.218,1.534,38.62,38.62,0,0,0,1.65,5.932c1.57,3.572,4.45,4.668,8.06,3.186a13.4,13.4,0,0,0,3.974-2.444c2.412-2.236,4.626-4.684,6.922-7.044.238-.244.488-.476.916-.89.09.64.152,1.018.2,1.4a16.06,16.06,0,0,0,2.09,6.72,5.553,5.553,0,0,0,6.6,2.622,12.7,12.7,0,0,0,5.474-3.2c2.386-2.316,4.6-4.8,6.874-7.238a4.374,4.374,0,0,0,.52-.948c.358.344.44.374.456.424.1.35.2.7.286,1.054a15.8,15.8,0,0,0,4.632,8.23,2.258,2.258,0,0,0,2.776.4,21.732,21.732,0,0,0,4.13-2.908c2.922-2.868,5.682-5.9,8.512-8.868.234-.246.5-.464.96-.89a6.921,6.921,0,0,1-.106.766c-.472,1.6-1,3.182-1.42,4.8a13.072,13.072,0,0,0-.368,6.23,2.957,2.957,0,0,0,3.852,2.5,13.488,13.488,0,0,0,3.832-1.614c4.586-2.892,8.218-6.866,11.846-10.818.772-.842.436-1.912.276-3.124-.49.346-.8.564-1.116.79-1.726,1.248-3.4,2.58-5.2,3.716a9.753,9.753,0,0,1-3.138,1.218,2.807,2.807,0,0,1-3.624-2.788,6.4,6.4,0,0,1,1.06-4.28c1.084-1.558,2.094-3.186,3.314-4.632,1.942-2.3,2.244-4.6.688-7.222-.788-1.328-.638-1.334.788-2.086a2.62,2.62,0,0,0,1.316-1.436c.376-1.946-2.044-4.618-4.016-4.436a19.881,19.881,0,0,0-4.294.87c-8.876,2.89-16.138,8.234-22.438,15a9.224,9.224,0,0,0-2.37,4.338,1.516,1.516,0,0,1-.39.8c-2.614,2.32-5.124,4.782-7.916,6.868-2.522,1.886-5.378.784-6.522-2.17a9.846,9.846,0,0,1-.362-5.8,5.057,5.057,0,0,1,1.074-2.256,96.1,96.1,0,0,0,13.954-18.7,37.639,37.639,0,0,0,4.75-12.662,23.232,23.232,0,0,0,.07-4.976c-.1-1.384-1.04-1.864-2.36-1.412a7.015,7.015,0,0,0-1.068.488,21.84,21.84,0,0,0-5.78,4.876A81.929,81.929,0,0,0,99.152,99.37a50.192,50.192,0,0,0-3.976,13.268,2.2,2.2,0,0,1-.7,1.146c-1.468,1.4-2.946,2.8-4.48,4.138a20.444,20.444,0,0,1-2.956,2.2,3.98,3.98,0,0,1-5.742-1.558c-1.32-2.246-1.224-4.662-.754-7.088a3.782,3.782,0,0,1,.826-1.642c2.152-2.542,4.442-4.97,6.518-7.572,4.8-6.022,8.934-12.452,11.42-19.82a21.431,21.431,0,0,0,1.072-8.866c-.152-1.716-1.112-2.25-2.7-1.564a4.906,4.906,0,0,0-1.228.662,56.15,56.15,0,0,0-5.184,4.5A73.739,73.739,0,0,0,79.492,94.95c-2.824,5.686-5.174,11.554-6.064,17.912a2.018,2.018,0,0,1-.7,1.138c-1.676,1.37-3.348,2.752-5.114,4a17.962,17.962,0,0,1-7.12,3.27c-3.94.728-6.5-1.412-6.57-5.4a1.665,1.665,0,0,1,1.172-1.8c2.286-1,4.578-2.016,6.78-3.186a30.043,30.043,0,0,0,9.288-7,9.761,9.761,0,0,0,2.582-6.348A3.573,3.573,0,0,0,70.3,93.62a13.218,13.218,0,0,0-3.96.212,24.061,24.061,0,0,0-10.53,5.692c-4.11,3.532-7.838,7.354-9.266,12.834a1.152,1.152,0,0,1-.484.714,28.443,28.443,0,0,1-4.336,1.666,3.688,3.688,0,0,1-2.188-.678c-.242-.126-.38-.8-.28-1.142a11.556,11.556,0,0,1,.884-1.784,24.443,24.443,0,0,0,2.88-8.256c.13-1.25.342-2.672-.986-3.43-1.278-.732-2.37.142-3.384.832a23.67,23.67,0,0,0-6.674,6.942c-1.506,2.376-2.13,4.86-.874,7.584a1.516,1.516,0,0,1-.118,1.356,37.64,37.64,0,0,1-4.044,3.846c-2.2,1.71-4.6.882-5.188-1.836a43.826,43.826,0,0,1-.468-5.448,2.779,2.779,0,0,1,1-2.368,250.244,250.244,0,0,0,17.824-18.9,77.552,77.552,0,0,0,10.2-14.776,16.732,16.732,0,0,0,2.144-8.032c-.068-2.14-1.366-3.046-3.268-2.108a24.984,24.984,0,0,0-4.626,2.928,95.208,95.208,0,0,0-25.232,30.912c-2.918,5.732-4.708,11.75-4.092,18.284a16.345,16.345,0,0,0,2.146,7.116,5.557,5.557,0,0,0,5.3,2.93,7.985,7.985,0,0,0,5.278-2.118c2.36-2.242,4.582-4.634,6.788-7.032a1.767,1.767,0,0,1,1.978-.706,7.928,7.928,0,0,0,5.366-.536c.918-.39,1.8-.854,2.69-1.318,1.12-.588,1.176-.508,1.33.78a33.118,33.118,0,0,0,.832,4.8,8.2,8.2,0,0,0,7.556,6.116,13.928,13.928,0,0,0,6.952-1.518c3.816-1.934,6.8-4.894,9.7-7.934C71.762,118.608,72.356,117.944,72.96,117.292ZM63.388,37.866a3.2,3.2,0,0,0,3.276,3.4,3.246,3.246,0,0,0,3.294-3.4,3.313,3.313,0,0,0-3.2-3.414A3.217,3.217,0,0,0,63.388,37.866Zm44.472.106-.046-.448c-.9,0-1.8-.02-2.7,0-.776.024-.95-.4-.944-1.07s.022-1.224.9-1.214c.832.01,1.666.01,2.5-.032.18-.01.352-.216.528-.332-.18-.144-.358-.4-.542-.41-1.164-.036-2.33-.06-3.49.02a1.02,1.02,0,0,0-.69.716c-.062,1.762-.054,3.526-.012,5.288,0,.254.308.712.486.718,1.358.05,2.72.018,4.08-.014.114,0,.222-.2.486-.45a10.4,10.4,0,0,0-1.184-.2c-.732-.026-1.47.04-2.2-.038a1.076,1.076,0,0,1-.8-.528c-.4-1.128.05-1.7,1.232-1.708.532,0,1.068.03,1.6-.018A2.677,2.677,0,0,0,107.86,37.972Zm-58.788-.058h0c0-.866.034-1.732-.02-2.6-.018-.264-.282-.51-.432-.766a3.568,3.568,0,0,0-.41.8c-.074.352.04.748-.056,1.088-.076.27-.334.678-.532.69A7.3,7.3,0,0,1,44.976,37c-.292-.1-.262-1.166-.376-1.8-.012-.066.01-.15-.024-.2-.1-.148-.228-.282-.346-.422-.14.154-.4.306-.4.46q-.042,2.8,0,5.588c0,.148.282.29.434.434.106-.152.292-.3.3-.456.046-.6-.026-1.2.07-1.8.048-.3.342-.77.552-.784a6.419,6.419,0,0,1,2.64.142c.316.122.252,1.242.354,1.908.02.13-.032.284.018.4a5.9,5.9,0,0,0,.376.626c.164-.2.452-.4.466-.622C49.1,39.646,49.072,38.78,49.072,37.914ZM126.7,41.156v-.512c-.6-.032-1.21-.082-1.816-.094-1.306-.026-1.372-.076-1.378-1.342s.018-2.6-.026-3.89c0-.262-.266-.516-.4-.774-.154.254-.428.5-.438.76-.05,1.262-.04,2.528-.028,3.8.02,2.344-.244,2.19,2.228,2.184C125.46,41.276,126.082,41.208,126.7,41.156Zm-40.156-6.7h0c-.7,0-1.4-.024-2.1.02-.164,0-.314.252-.472.388a2.744,2.744,0,0,0,.428.344.724.724,0,0,0,.4.032c1.1-.13,1.378.424,1.318,1.424a30.944,30.944,0,0,0,0,3.4,3.469,3.469,0,0,0,.43,1.05,3.513,3.513,0,0,0,.38-1c.052-.962.02-1.928.02-2.894,0-1.662,0-1.654,1.64-1.99.2-.04.35-.232.524-.354-.2-.134-.378-.37-.58-.386C87.88,34.424,87.208,34.456,86.548,34.456Z" transform="translate(-9.76 -9.76)"/>
      <path id="Path_11316" data-name="Path 11316" d="M94.372,342.978c-.6.652-1.2,1.312-1.812,1.954-2.908,3.04-5.882,6-9.7,7.934a13.928,13.928,0,0,1-6.952,1.518,8.2,8.2,0,0,1-7.556-6.116,32,32,0,0,1-.832-4.8c-.154-1.288-.2-1.368-1.33-.78-.884.464-1.772.928-2.69,1.318a7.952,7.952,0,0,1-5.366.536,1.765,1.765,0,0,0-1.978.706c-2.2,2.4-4.428,4.8-6.788,7.032a7.985,7.985,0,0,1-5.278,2.118,5.563,5.563,0,0,1-5.3-2.93,16.322,16.322,0,0,1-2.146-7.116c-.616-6.54,1.174-12.558,4.092-18.29a95.146,95.146,0,0,1,25.218-30.9,24.984,24.984,0,0,1,4.626-2.928c1.9-.938,3.2-.032,3.268,2.108a16.732,16.732,0,0,1-2.144,8.032,76.894,76.894,0,0,1-10.2,14.776,248.248,248.248,0,0,1-17.824,18.9,2.779,2.779,0,0,0-1,2.368,43.827,43.827,0,0,0,.468,5.448c.6,2.718,2.984,3.546,5.188,1.836a37.629,37.629,0,0,0,4.044-3.846,1.516,1.516,0,0,0,.118-1.356c-1.256-2.724-.632-5.2.874-7.584a23.67,23.67,0,0,1,6.674-6.942c1.014-.69,2.106-1.564,3.384-.832,1.328.758,1.116,2.18.986,3.43a24.444,24.444,0,0,1-2.88,8.256,11.732,11.732,0,0,0-.884,1.784c-.1.34.038,1.016.28,1.142a3.689,3.689,0,0,0,2.188.678,28.443,28.443,0,0,0,4.336-1.666,1.152,1.152,0,0,0,.484-.714c1.428-5.48,5.156-9.3,9.266-12.834a24.062,24.062,0,0,1,10.53-5.692,13.218,13.218,0,0,1,3.96-.212,3.567,3.567,0,0,1,3.444,3.916,9.751,9.751,0,0,1-2.582,6.348,30.293,30.293,0,0,1-9.288,7c-2.2,1.17-4.494,2.184-6.78,3.186a1.652,1.652,0,0,0-1.172,1.8c.068,4,2.63,6.134,6.57,5.4a17.963,17.963,0,0,0,7.12-3.27c1.766-1.25,3.438-2.632,5.114-4a2.018,2.018,0,0,0,.7-1.138,58.608,58.608,0,0,1,6.064-17.912,73.953,73.953,0,0,1,11.778-17.772,56.147,56.147,0,0,1,5.184-4.5,4.9,4.9,0,0,1,1.228-.662c1.586-.686,2.546-.152,2.7,1.564a21.43,21.43,0,0,1-1.072,8.866c-2.486,7.368-6.616,13.8-11.42,19.82-2.076,2.6-4.366,5.03-6.518,7.572a3.781,3.781,0,0,0-.826,1.642c-.47,2.426-.566,4.842.754,7.088a3.98,3.98,0,0,0,5.742,1.558,20.446,20.446,0,0,0,2.956-2.2c1.534-1.334,3.012-2.732,4.48-4.138a2.2,2.2,0,0,0,.7-1.146,50.19,50.19,0,0,1,3.976-13.268,81.978,81.978,0,0,1,13.676-22.086,21.84,21.84,0,0,1,5.78-4.876,7.008,7.008,0,0,1,1.082-.51c1.32-.452,2.262.028,2.36,1.412a23.237,23.237,0,0,1-.07,4.976,37.809,37.809,0,0,1-4.75,12.662,96.1,96.1,0,0,1-13.954,18.7,5.067,5.067,0,0,0-1.074,2.256,9.846,9.846,0,0,0,.362,5.8c1.144,2.954,4,4.056,6.522,2.17,2.8-2.086,5.3-4.548,7.916-6.868a1.516,1.516,0,0,0,.39-.8,9.156,9.156,0,0,1,2.37-4.338c6.3-6.758,13.562-12.1,22.438-15a19.881,19.881,0,0,1,4.294-.87c1.972-.182,4.4,2.49,4.016,4.436a2.591,2.591,0,0,1-1.316,1.436c-1.426.752-1.576.758-.788,2.086,1.556,2.624,1.254,4.926-.688,7.222-1.22,1.446-2.23,3.074-3.314,4.632a6.41,6.41,0,0,0-1.06,4.28,2.807,2.807,0,0,0,3.624,2.788,9.754,9.754,0,0,0,3.138-1.218c1.8-1.136,3.468-2.468,5.2-3.716.31-.226.626-.444,1.116-.79.16,1.212.5,2.282-.276,3.124-3.628,3.952-7.26,7.926-11.846,10.818a13.488,13.488,0,0,1-3.832,1.614,2.958,2.958,0,0,1-3.852-2.5,13.072,13.072,0,0,1,.368-6.23c.426-1.61.948-3.2,1.42-4.8a6.928,6.928,0,0,0,.106-.766c-.462.426-.726.644-.96.89-2.83,2.964-5.59,6-8.512,8.868a21.73,21.73,0,0,1-4.13,2.908,2.269,2.269,0,0,1-2.776-.4,15.822,15.822,0,0,1-4.632-8.23c-.094-.352-.184-.7-.286-1.054-.016-.05-.1-.08-.456-.424a4.372,4.372,0,0,1-.52.948c-2.27,2.434-4.488,4.922-6.874,7.238a12.7,12.7,0,0,1-5.474,3.2,5.547,5.547,0,0,1-6.6-2.622,16.06,16.06,0,0,1-2.09-6.72c-.044-.38-.106-.758-.2-1.4-.428.414-.678.646-.916.89-2.3,2.36-4.51,4.8-6.922,7.044a13.4,13.4,0,0,1-3.974,2.444c-3.61,1.482-6.49.386-8.06-3.186a38.621,38.621,0,0,1-1.65-5.932,13,13,0,0,1-.218-1.534Zm71.658-17.354c-.586.228-.958.33-1.292.506-4.118,2.164-8.276,4.28-12.346,6.544a19.553,19.553,0,0,0-6.26,5.2,7.516,7.516,0,0,0-1.708,5c.128,2.744,1.52,3.5,3.878,2.106a27.026,27.026,0,0,0,7.058-5.674c3.536-4.2,6.886-8.55,10.3-12.844a4.871,4.871,0,0,0,.366-.838Zm-121.492,5.1.4.268a21.561,21.561,0,0,0,1.7-1.6c3.3-3.918,6.716-7.758,9.832-11.822,3.4-4.434,6.562-9.05,9.72-13.662a24.927,24.927,0,0,0,2.046-4.318c.116-.268-.084-.674-.138-1.016a2.812,2.812,0,0,0-1,.2,18.322,18.322,0,0,0-1.988,1.66c-4.122,3.938-7.376,8.578-10.572,13.25-2.648,3.872-5.214,7.8-7.664,11.8A43.278,43.278,0,0,0,44.538,330.722Zm59.4-1.922.346.174c.234-.216.488-.416.7-.652A59.339,59.339,0,0,0,116,310.842a11.506,11.506,0,0,0,.748-2.982c.124-1.082-.536-1.466-1.4-.818a11.6,11.6,0,0,0-2.2,2.144,51.95,51.95,0,0,0-7.924,15.258c-.492,1.434-.87,2.9-1.3,4.356Zm21.764,0,.314.14c.21-.2.438-.366.63-.576a60.667,60.667,0,0,0,10.554-16.27,17.578,17.578,0,0,0,1.118-3.4,5.581,5.581,0,0,0-.246-1.852,5.448,5.448,0,0,0-1.714.732,17.366,17.366,0,0,0-2.414,2.78A55.874,55.874,0,0,0,126.114,327c-.166.584-.282,1.19-.42,1.79Zm-49.76,7.894.318.178a5.719,5.719,0,0,0,.74-.214,23.536,23.536,0,0,0,9.968-7.734,14.075,14.075,0,0,0,1.518-2.9,1.414,1.414,0,0,0-.176-1.258c-.246-.258-.83-.22-1.27-.236a1.541,1.541,0,0,0-.65.236,20.094,20.094,0,0,0-9.65,9.446A16.864,16.864,0,0,0,75.942,336.694Z" transform="translate(-31.172 -235.446)" fill="#fff"/>
      <path id="Path_11317" data-name="Path 11317" d="M277.9,136.606a3.222,3.222,0,0,1,3.366-3.42,3.313,3.313,0,0,1,3.2,3.414,3.244,3.244,0,0,1-3.294,3.4A3.19,3.19,0,0,1,277.9,136.606Zm5.6.054A2.376,2.376,0,0,0,281.173,134c-1.426-.036-2.35,1.014-2.356,2.618a2.432,2.432,0,0,0,2.368,2.652,2.4,2.4,0,0,0,2.318-2.606Z" transform="translate(-224.271 -108.5)" fill="#fff"/>
      <path id="Path_11318" data-name="Path 11318" d="M482.128,136.718a3.143,3.143,0,0,1-.8.294c-.528.048-1.064.014-1.6.018-1.182.012-1.624.58-1.232,1.708a1.1,1.1,0,0,0,.8.528c.722.078,1.46.012,2.2.038a10.4,10.4,0,0,1,1.184.2c-.264.25-.372.446-.486.45-1.36.032-2.722.064-4.08.014-.178,0-.48-.464-.486-.718-.042-1.762-.05-3.526.012-5.288a1,1,0,0,1,.69-.716c1.16-.08,2.326-.056,3.49-.02.184,0,.362.266.542.41-.176.116-.348.322-.528.332-.83.042-1.664.042-2.5.032-.88-.01-.9.562-.9,1.214s.168,1.094.944,1.07c.9-.026,1.8,0,2.7,0Z" transform="translate(-384.028 -108.506)" fill="#fff"/>
      <path id="Path_11319" data-name="Path 11319" d="M185.288,137.21c0,.866.032,1.732-.022,2.6-.014.216-.3.414-.466.622a5.9,5.9,0,0,1-.376-.626c-.05-.112,0-.266-.018-.4-.1-.666-.038-1.786-.354-1.908a6.453,6.453,0,0,0-2.64-.142c-.21.014-.5.488-.552.784-.1.584-.024,1.2-.07,1.8-.012.16-.2.3-.3.456-.152-.144-.432-.286-.434-.434q-.044-2.8,0-5.588c0-.154.262-.306.4-.46.118.14.242.274.346.422.034.046.012.13.024.2.114.626.084,1.7.376,1.8a7.3,7.3,0,0,0,2.646.122c.2-.012.456-.42.532-.69.1-.34-.018-.736.056-1.088a3.329,3.329,0,0,1,.41-.8c.15.256.414.5.432.766.054.862.02,1.728.02,2.6Z" transform="translate(-145.976 -109.056)" fill="#fff"/>
      <path id="Path_11320" data-name="Path 11320" d="M578.065,140.252c-.622.042-1.244.12-1.866.122-2.472,0-2.2.16-2.228-2.184-.012-1.262-.022-2.528.028-3.8.01-.258.284-.506.438-.76.142.258.4.512.4.774.044,1.3.018,2.6.026,3.89s.072,1.316,1.378,1.342c.6.012,1.21.062,1.816.094Z" transform="translate(-461.121 -108.856)" fill="#fff"/>
      <path id="Path_11321" data-name="Path 11321" d="M383.444,133.174c.664,0,1.332-.032,2,.018.2.016.388.252.58.386-.174.122-.332.314-.524.354-1.64.336-1.64.328-1.64,1.99,0,.966.032,1.932-.02,2.894a3.382,3.382,0,0,1-.38,1,3.47,3.47,0,0,1-.43-1.05,30.987,30.987,0,0,1,0-3.4c.06-1-.22-1.554-1.318-1.424a.724.724,0,0,1-.4-.032,2.747,2.747,0,0,1-.432-.338c.158-.136.308-.378.472-.388.7-.044,1.4-.02,2.1-.02Z" transform="translate(-306.656 -108.478)" fill="#fff"/>
      <path id="Path_11322" data-name="Path 11322" d="M597.6,460.65a5.249,5.249,0,0,1-.366.838c-3.418,4.294-6.768,8.648-10.3,12.844a27.03,27.03,0,0,1-7.058,5.674c-2.358,1.4-3.75.638-3.878-2.106a7.6,7.6,0,0,1,1.708-5,19.557,19.557,0,0,1,6.26-5.2c4.07-2.264,8.228-4.38,12.346-6.544C596.639,460.98,597.011,460.878,597.6,460.65Z" transform="translate(-462.739 -370.472)"/>
      <path id="Path_11323" data-name="Path 11323" d="M76.59,357.564a42.483,42.483,0,0,1,2.34-5.234c2.45-4,5.016-7.934,7.664-11.8,3.2-4.672,6.45-9.312,10.572-13.25a18.323,18.323,0,0,1,1.988-1.66,2.49,2.49,0,0,1,1-.2c.054.342.254.748.138,1.016a24.922,24.922,0,0,1-2.046,4.318c-3.158,4.612-6.322,9.228-9.72,13.662-3.116,4.064-6.528,7.9-9.832,11.822a17.645,17.645,0,0,1-1.7,1.6Z" transform="translate(-63.224 -262.288)"/>
      <path id="Path_11324" data-name="Path 11324" d="M373.55,388.232c.426-1.452.8-2.922,1.288-4.356a51.949,51.949,0,0,1,7.924-15.258,11.6,11.6,0,0,1,2.2-2.144c.86-.648,1.52-.264,1.4.818a11.5,11.5,0,0,1-.748,2.982,59.28,59.28,0,0,1-11.018,17.48c-.212.236-.466.436-.7.652Z" transform="translate(-300.792 -294.879)"/>
      <path id="Path_11325" data-name="Path 11325" d="M482.37,388.648c.138-.6.254-1.2.42-1.8a55.872,55.872,0,0,1,7.83-16.646,17.366,17.366,0,0,1,2.414-2.78,5.449,5.449,0,0,1,1.714-.732,5.582,5.582,0,0,1,.246,1.852,17.576,17.576,0,0,1-1.118,3.4,60.664,60.664,0,0,1-10.562,16.264c-.2.21-.42.384-.63.576Z" transform="translate(-387.848 -295.304)"/>
      <path id="Path_11326" data-name="Path 11326" d="M233.61,467.326a17.256,17.256,0,0,1,.8-2.486,20.094,20.094,0,0,1,9.65-9.446,1.494,1.494,0,0,1,.65-.236c.44.016,1.022-.018,1.27.236a1.406,1.406,0,0,1,.176,1.258,14.075,14.075,0,0,1-1.518,2.9,23.672,23.672,0,0,1-9.968,7.734,5.717,5.717,0,0,1-.74.214Z" transform="translate(-188.84 -366.078)"/>
      <path id="Path_11327" data-name="Path 11327" d="M287.192,139.877a2.414,2.414,0,0,1-2.314,2.6,2.45,2.45,0,0,1-2.368-2.652,2.331,2.331,0,0,1,2.356-2.618A2.392,2.392,0,0,1,287.192,139.877Z" transform="translate(-227.96 -111.717)"/>
    </g>
  </g>
</svg>
