<svg xmlns="http://www.w3.org/2000/svg" xmlns:xlink="http://www.w3.org/1999/xlink" width="200" height="150" viewBox="0 0 200 150">
  <defs>
    <clipPath id="clip-hotel_lexen">
      <rect width="200" height="150"/>
    </clipPath>
  </defs>
  <g id="hotel_lexen" clip-path="url(#clip-hotel_lexen)">
    <g id="Group_944" data-name="Group 944" transform="translate(25.612 0.257)">
      <path id="Path_2484" data-name="Path 2484" d="M528.8,158.143V8.4H678.543V158.143Zm135.93-45.037a.08.08,0,0,0-.082-.082c-.245.082-.49.245-.736.327a53.783,53.783,0,0,1-20.516,5.885,38.665,38.665,0,0,1-20.189-4.005,50.118,50.118,0,0,1-20.516-19.7,1.991,1.991,0,0,1,0-.981c.49-.736.981-1.553,1.553-2.289,1.716-2.534,3.351-5.068,5.231-7.6a3.094,3.094,0,0,1,2.779-1.553c.245,0,.327-.082.572-.082-.49-.49-7.6-.49-8.174,0a4.613,4.613,0,0,1,.572.082c1.553.082,1.962.736,1.226,2.207-.082.082-.082.245-.245.327-.981,1.553-1.962,3.106-3.024,4.741q-.736,1.226-1.716,2.7a7.069,7.069,0,0,0-.572-.817,53.048,53.048,0,0,0-7.847-10.708,35.846,35.846,0,0,0-17.492-10.708,40.508,40.508,0,0,0-19.535-.082,66.42,66.42,0,0,0-15.2,5.558,22.518,22.518,0,0,0-3.351,1.962,1.381,1.381,0,0,0,.817-.245,53.289,53.289,0,0,1,14.386-4.823A39.383,39.383,0,0,1,576.943,76c9.563,4.332,16.429,11.607,21.824,20.434a1.393,1.393,0,0,1,0,.817c-2.7,3.842-5.395,7.765-8.174,11.607a3.994,3.994,0,0,1-3.106,1.8,1.828,1.828,0,0,0-.817.245c1.471.327,8.419.245,8.664-.082l-.082-.082a2.889,2.889,0,0,0-.49-.082c-1.308-.082-1.553-.572-1.063-1.716.082-.245.245-.49.327-.736,1.471-2.452,3.024-4.741,4.5-7.111.49-.736.981-1.471,1.471-2.289.245.327.327.572.49.736,1.717,2.534,3.351,5.313,5.231,7.765A38.6,38.6,0,0,0,619.2,118.664c8.419,4.25,17.165,4.577,26.238,2.7a59.439,59.439,0,0,0,14.958-5.395A26.15,26.15,0,0,1,664.729,113.106Zm2.125-9.4c-.245-.245-.49-.327-.572-.572-6.376-6.621-12.915-13.323-19.29-19.944a4.332,4.332,0,0,0-.817-.49c-.082.327-.245.572-.327.981v.327c-.082,7.52-.245,14.958-.327,22.478a13.308,13.308,0,0,1-.245,2.534,1.315,1.315,0,0,1-1.226,1.063,8.882,8.882,0,0,1-1.471.082c-.082,0-.245.245-.327.327.082.082.245.245.327.245h9.073c.245,0,.327-.245.572-.327-.245-.082-.327-.245-.572-.245h-.327c-1.962-.082-2.452-.572-2.7-2.452a1.392,1.392,0,0,0-.082-.572q-.123-7.969-.49-15.939a2.9,2.9,0,0,0,.082-.572c.245.327.245.572.49.736,6.294,6.376,12.588,12.833,18.963,19.208a2.491,2.491,0,0,0,.817.572.5.5,0,0,0,.817-.327c0-.245.082-.49.082-.736.082-5.395.082-10.708.245-16.184,0-2.7.082-5.313.245-8.01.082-1.471.572-1.962,2.043-2.043.327,0,.572-.082.817-.082v-.327a3.114,3.114,0,0,0-.817-.245h-8.092a1.577,1.577,0,0,0-.817.245v.245c.245.082.49.082.572.245a7.058,7.058,0,0,1,1.226.082,1.777,1.777,0,0,1,1.8,1.553,13.245,13.245,0,0,1,.082,1.8c.082,3.842.245,7.765.245,11.607C666.854,100.273,666.854,101.908,666.854,103.706ZM636.612,82.7c-1.063.082-2.207.245-3.269.245H620.264c-.327,0-.736.245-1.063.245a5.288,5.288,0,0,0,1.063.327c1.8.082,2.452.572,2.534,2.452v18.718a22.062,22.062,0,0,1-.327,4.005,1.225,1.225,0,0,1-1.308,1.226A4.66,4.66,0,0,0,620.1,110a.261.261,0,0,0-.245.245.438.438,0,0,0,.245.327,2.262,2.262,0,0,0,.736.082c1.471,0,2.779-.082,4.25-.082q5.272,0,10.544.245c1.226,0,1.471-.245,1.553-1.471.082-1.063.245-2.207.327-3.27a2.517,2.517,0,0,0-.245-1.063c-.082.327-.49.572-.49.981a2.66,2.66,0,0,1-2.534,2.534,47.45,47.45,0,0,1-4.823,0,1.722,1.722,0,0,1-1.8-1.962c-.082-3.106-.082-6.294-.082-9.4a.46.46,0,0,1,.572-.49c1.553,0,3.024,0,4.5.082,1.8.082,2.207.572,2.452,2.452,0,.245.245.49.327.736.082-.245.327-.49.327-.736.082-1.553.245-3.27.327-4.823a1.391,1.391,0,0,0-.082-.572.932.932,0,0,0-.49.245,2.23,2.23,0,0,1-2.043.817c-1.8,0-3.6.082-5.395.082-.49,0-.736-.082-.736-.572V85.56c0-.49.245-.572.572-.572,1.308,0,2.779,0,4.087.082,2.452.082,2.779.327,3.269,2.779,0,.082.245.245.245.327l.327-.327c.082-.082,0-.245,0-.245.082-1.471.245-2.861.327-4.332C636.612,82.945,636.612,82.781,636.612,82.7Zm-59.5.327c-1.063.082-2.207.245-3.106.245h-13.16c-.327,0-.736.245-1.062.245a5.287,5.287,0,0,0,1.063.327c1.8.082,2.452.572,2.452,2.534,0,5.068.082,10.3.082,15.367,0,2.207-.082,4.5-.245,6.621-.082,1.308-.49,1.553-1.962,1.717-.327,0-.572.245-.981.327.327.082.572.245.981.327h7.683c2.452,0,4.823.082,7.111.082,1.063,0,1.308-.245,1.471-1.226a15.529,15.529,0,0,0,.327-3.351c0-.327-.245-.736-.245-.981a4.337,4.337,0,0,1-.49.817,2.78,2.78,0,0,1-2.207,2.534c-1.8.082-3.6.082-5.395.082-.981,0-1.553-.736-1.716-1.716,0-.327-.082-.736-.082-1.226v-8.01a2.028,2.028,0,0,1,.082-.736c1.716,0,3.351-.082,4.986,0,1.8.082,2.207.572,2.452,2.452,0,.245.245.327.327.572.082-.245.327-.327.327-.572.082-1.553.245-3.106.327-4.741v-.736c-.245.082-.49.082-.49.245a2.138,2.138,0,0,1-1.8.736c-1.962,0-3.76.082-5.64.082-.49,0-.572-.245-.572-.572V85.805c0-.49.082-.736.736-.736,1.308.082,2.7.082,4.087.082,2.452.082,2.779.327,3.351,2.779,0,.082.245.245.245.327.082-.082.327-.245.327-.327a1.39,1.39,0,0,0,.082-.572c.082-1.226.245-2.534.327-3.842C577.107,83.517,577.107,83.272,577.107,83.026ZM544,110.654v.082h7.029c2.289,0,2.452-.082,2.7-2.289.082-.981.245-1.962.245-2.861,0-.245-.245-.327-.327-.572a2.552,2.552,0,0,0-.327.49c-.082.327-.245.817-.327,1.226a2.453,2.453,0,0,1-2.207,1.8,18.778,18.778,0,0,1-6.049-.082,1.644,1.644,0,0,1-1.553-1.716,19.636,19.636,0,0,1-.245-2.289V86.7c0-2.452.245-3.024,2.779-3.024.245,0,.327-.245.572-.327-.245-.082-.327-.327-.572-.327H535.666c-.327,0-.572.245-.981.245.245.082.572.327.817.327,1.8.082,2.452.572,2.452,2.452,0,5.64.082,11.443.082,17.165,0,1.471,0,2.779-.082,4.25-.245,2.207-.245,2.207-2.452,2.534a.9.9,0,0,0-.49.245,2.542,2.542,0,0,0,.49.327c.245.082.327,0,.572,0C538.935,110.654,541.469,110.654,544,110.654Zm10.626-65.635c1.553.327,1.553.327,1.553,2.043V56.87c0,.981.082,2.043-1.308,2.207h5.395c-.082-.082-.082-.082-.245-.082-1.471-.245-1.553-.327-1.553-1.8V52.7c0-.572.245-.817.817-.817h4.741c2.207,0,2.207,0,2.043,2.043,0,1.308-.082,2.534-.082,3.842a.947.947,0,0,1-1.063,1.063c-.082,0-.082.082-.327.082h5.558c-1.8-.49-1.8-.49-1.8-2.452V49.351c0-1.063,0-2.043.082-3.106,0-.736.327-1.063,1.063-1.063.082,0,.245-.082.327-.082v-.245H564.6c.736.245,1.471.082,1.553,1.063.082,1.471.082,2.779.082,4.25a.559.559,0,0,1-.572.572h-6.539a.717.717,0,0,1-.572-.49V45.918c0-.572.327-.817.981-.981.082,0,.327-.082.49-.082v-.082A40.945,40.945,0,0,1,554.629,45.018Zm24.358,6.948a6.566,6.566,0,0,0,2.779,5.885,8.23,8.23,0,0,0,8.337.736,7.056,7.056,0,0,0,4.25-6.376c.082-2.861-.817-5.313-3.515-6.621a9.543,9.543,0,0,0-4.823-.736A6.945,6.945,0,0,0,578.987,51.966Zm53.538,4.741h-.245c-.245.736-.49,1.471-1.308,1.553a13.121,13.121,0,0,1-2.534,0c-.736,0-1.063-.49-1.063-1.308V53.846c0-1.962,0-1.962,1.8-1.8,1.063,0,2.207-.082,2.452,1.471.082-.817.082-1.716.245-2.7a9.545,9.545,0,0,1-4.005.327.761.761,0,0,1-.327-.572V47.471c0-1.716,0-1.716,1.716-1.553,1.063.082,2.534-.245,2.861,1.471a21.732,21.732,0,0,1,.245-2.289h-8.582c1.553.327,1.553.327,1.553,2.043v9.89c0,.981,0,2.043-1.471,2.043,2.779.082,5.395.082,8.092.082a.694.694,0,0,0,.572-.572A3.664,3.664,0,0,1,632.525,56.707ZM605.96,59.159h5.558a.4.4,0,0,0-.245-.082c-1.471-.245-1.553-.327-1.716-1.962V46.571c0-.49.082-.736.572-.572a19.918,19.918,0,0,1,2.207.082c.981,0,1.962.245,2.207,1.308V44.937H602.364c-.082.572-.245,1.471-.327,2.207.082.082.082.082.245.082.245-1.308,1.308-1.308,2.289-1.308a17.084,17.084,0,0,0,2.043-.082c.572-.082.817.082.817.817,0,3.515,0,7.029-.082,10.544C607.431,58.669,607.431,58.669,605.96,59.159Zm45.61-2.7c-.736,1.716-.817,1.8-2.7,1.8h-.981c-1.716,0-2.043-.327-2.043-2.043v-9.4c0-1.308.082-1.471,1.471-1.716a.08.08,0,0,1,.082-.082h-5.558c1.716.49,1.716.49,1.8,2.207v9.808c0,.981,0,2.043-1.471,2.207,2.289.082,4.5.082,6.784.082,2.861,0,2.289.327,2.7-2.534C651.57,56.543,651.57,56.543,651.57,56.462Zm17.083-4.25v-.245a10.846,10.846,0,0,0-1.716-.245c-3.6,0-7.275-.082-10.871-.082-.245,0-.49.245-.736.245a2.6,2.6,0,0,0,.736.245C660.316,52.211,664.484,52.211,668.653,52.211Zm-129.881-.327v.327h12.342c.245,0,.49-.245.736-.245a2.6,2.6,0,0,0-.736-.245c-3.106,0-6.13,0-9.318.082C540.9,51.721,539.916,51.884,538.772,51.884Z" transform="translate(-528.8 -8.4)"/>
      <path id="Path_2485" data-name="Path 2485" d="M666.683,126.661c-1.471.736-2.861,1.553-4.25,2.289a58.564,58.564,0,0,1-14.958,5.395c-9.073,1.962-17.9,1.553-26.238-2.7a37.758,37.758,0,0,1-13.487-11.362c-1.962-2.452-3.515-5.231-5.231-7.765-.082-.245-.245-.327-.49-.736a26.415,26.415,0,0,0-1.471,2.289c-1.471,2.452-3.024,4.741-4.5,7.111-.082.245-.245.49-.327.736-.49,1.226-.245,1.553,1.063,1.717a1.215,1.215,0,0,1,.49.082l.082.082c-.327.327-7.356.49-8.664.082a4.405,4.405,0,0,1,.817-.245,3.869,3.869,0,0,0,3.106-1.8c2.779-3.842,5.558-7.765,8.174-11.607a1.394,1.394,0,0,0,0-.817c-5.313-8.828-12.342-16.021-21.824-20.434A39.383,39.383,0,0,0,554.7,86.2a62.071,62.071,0,0,0-14.386,4.823,2.4,2.4,0,0,1-.817.245c1.063-.572,2.289-1.308,3.351-1.962a66.421,66.421,0,0,1,15.2-5.558,41.534,41.534,0,0,1,19.535.082,36.456,36.456,0,0,1,17.492,10.708,59.076,59.076,0,0,1,7.847,10.708,3.774,3.774,0,0,0,.572.817c.572-.981,1.226-1.8,1.717-2.7.981-1.553,1.962-3.106,3.024-4.741.082-.082.082-.245.245-.327.736-1.471.49-2.043-1.226-2.207-.245,0-.327-.082-.572-.082.572-.49,7.765-.49,8.174,0-.245,0-.327.082-.572.082a3.289,3.289,0,0,0-2.779,1.553c-1.716,2.534-3.515,5.068-5.231,7.6-.49.736-1.063,1.471-1.553,2.289-.082.245-.245.736,0,.981,5.068,8.337,11.688,15.2,20.516,19.7a38.994,38.994,0,0,0,20.189,4.005,54.841,54.841,0,0,0,20.516-5.885c.245-.082.49-.245.736-.327C666.683,126.5,666.683,126.5,666.683,126.661Z" transform="translate(-530.754 -21.955)" fill="#93c446"/>
      <path id="Path_2486" data-name="Path 2486" d="M692.2,120.252v-4.986c-.082-3.842-.082-7.765-.245-11.607,0-.572-.082-1.226-.082-1.8a1.777,1.777,0,0,0-1.8-1.553,7.058,7.058,0,0,1-1.226-.082.636.636,0,0,1-.572-.245v-.245a3.114,3.114,0,0,1,.817-.245h8.092a1.577,1.577,0,0,1,.817.245v.327a2.781,2.781,0,0,1-.817.082c-1.471.082-2.043.572-2.043,2.043-.082,2.7-.082,5.313-.245,8.01-.082,5.395-.245,10.708-.245,16.184a2.263,2.263,0,0,1-.082.736c-.082.49-.327.572-.817.327a1.868,1.868,0,0,1-.817-.572l-18.963-19.208a5.219,5.219,0,0,1-.49-.736,2.157,2.157,0,0,0-.082.572q.123,7.969.49,15.939a1.392,1.392,0,0,0,.082.572c.245,1.962.736,2.289,2.7,2.452H677c.245.082.327.245.572.245-.245.082-.327.327-.572.327h-9.073c-.082,0-.245-.245-.327-.245l.327-.327a8.883,8.883,0,0,1,1.471-.082,1.292,1.292,0,0,0,1.226-1.063c.082-.817.245-1.716.245-2.534.082-7.52.245-14.958.327-22.478v-.327c.082-.327.245-.572.327-.981.327.082.736.245.817.49,6.539,6.621,12.915,13.323,19.29,19.944A1.105,1.105,0,0,0,692.2,120.252Z" transform="translate(-554.148 -24.946)" fill="#fff"/>
      <path id="Path_2487" data-name="Path 2487" d="M656.938,99.3c0,.082.082.245.082.327-.082,1.471-.245,2.861-.327,4.332v.245l-.327.327c-.082-.082-.245-.245-.245-.327-.572-2.452-.817-2.7-3.27-2.779-1.308-.082-2.779,0-4.087-.082-.49,0-.572.082-.572.572v8.828c0,.49.245.572.736.572,1.8,0,3.6-.082,5.395-.082a2.158,2.158,0,0,0,2.043-.817c.082-.082.245-.082.49-.245a4.609,4.609,0,0,0,.082.572c-.082,1.553-.245,3.27-.327,4.823,0,.245-.245.49-.327.736-.082-.245-.245-.49-.327-.736-.245-1.8-.736-2.289-2.452-2.452-1.471-.082-3.024-.082-4.5-.082-.327,0-.572.082-.572.49,0,3.106,0,6.294.082,9.4a1.759,1.759,0,0,0,1.8,1.962,47.447,47.447,0,0,0,4.823,0,2.66,2.66,0,0,0,2.534-2.534,10.913,10.913,0,0,1,.49-.981,4.992,4.992,0,0,1,.245,1.063c-.082,1.063-.245,2.207-.327,3.27-.082,1.226-.49,1.471-1.553,1.471q-5.272,0-10.544-.245c-1.471,0-2.779,0-4.25.082a2.263,2.263,0,0,1-.736-.082c-.082,0-.245-.245-.245-.327s.245-.245.245-.245a4.66,4.66,0,0,1,1.063-.082,1.225,1.225,0,0,0,1.308-1.226c.082-1.308.245-2.7.327-4.005V102.324c-.082-1.8-.736-2.452-2.534-2.452a5.286,5.286,0,0,1-1.063-.327,4.992,4.992,0,0,1,1.063-.245H654.24A7.24,7.24,0,0,0,656.938,99.3Z" transform="translate(-549.126 -25.001)" fill="#fff"/>
      <path id="Path_2488" data-name="Path 2488" d="M584.1,99.7v.572c-.082,1.226-.245,2.534-.327,3.842,0,.245,0,.49-.082.572l-.327.327c-.082-.082-.245-.245-.245-.327-.572-2.452-.817-2.7-3.351-2.779-1.308,0-2.7-.082-4.087-.082a.65.65,0,0,0-.736.736v8.664c0,.327.082.572.572.572,1.962,0,3.76-.082,5.64-.082a2.4,2.4,0,0,0,1.8-.736c.082-.082.245-.082.49-.245a2.221,2.221,0,0,1,0,.736c-.082,1.553-.245,3.106-.327,4.741,0,.245-.245.327-.327.572-.082-.245-.245-.327-.327-.572-.245-1.8-.572-2.289-2.452-2.452-1.716-.082-3.27,0-4.986,0,0,.245-.082.49-.082.736v8.01a7.065,7.065,0,0,0,.082,1.226,1.63,1.63,0,0,0,1.716,1.716,39.618,39.618,0,0,0,5.395-.082c1.308-.082,1.962-1.226,2.207-2.534a1.7,1.7,0,0,1,.49-.817c.082.327.327.736.245.981-.082,1.063-.245,2.289-.327,3.351-.082.981-.327,1.226-1.471,1.226-2.452,0-4.823-.082-7.111-.082h-7.683c-.327-.082-.572-.245-.981-.327.327-.082.572-.245.981-.327,1.308-.082,1.8-.327,1.962-1.716.082-2.207.245-4.5.245-6.621,0-5.068,0-10.3-.082-15.367,0-1.8-.572-2.452-2.452-2.534a5.286,5.286,0,0,1-1.063-.327,4.993,4.993,0,0,1,1.063-.245h13.16A24.408,24.408,0,0,0,584.1,99.7Z" transform="translate(-535.794 -25.074)" fill="#fff"/>
      <path id="Path_2489" data-name="Path 2489" d="M545.391,127.346h-8.174c-.245-.082-.327-.245-.49-.327a.932.932,0,0,1,.49-.245c2.207-.245,2.289-.327,2.452-2.534.082-1.471.082-2.779.082-4.25,0-5.64,0-11.443-.082-17.165,0-1.8-.572-2.452-2.452-2.452-.245,0-.572-.245-.817-.327a3.45,3.45,0,0,1,.981-.245h10.054c.245,0,.327.245.572.327-.245.082-.327.327-.572.327-2.534,0-2.779.736-2.779,3.024v17.737a11.494,11.494,0,0,0,.245,2.289,1.7,1.7,0,0,0,1.553,1.716,21.427,21.427,0,0,0,6.049.082,2.641,2.641,0,0,0,2.207-1.8c.082-.327.245-.817.327-1.226.082-.245.245-.327.327-.49.082.245.327.327.327.572-.082.981-.082,1.962-.245,2.861-.327,2.207-.327,2.289-2.7,2.289h-7.029C545.391,127.509,545.391,127.346,545.391,127.346Z" transform="translate(-530.188 -25.092)" fill="#fff"/>
      <path id="Path_2490" data-name="Path 2490" d="M560.4,53.2h5.231v.082c-.082,0-.327.082-.49.082-.572.082-.981.327-.981.981v4.332c0,.245.327.49.572.49h6.539a.559.559,0,0,0,.572-.572c0-1.471-.082-2.779-.082-4.25,0-.981-.817-.981-1.553-1.063h5.231v.082c-.082,0-.245.082-.327.082-.736,0-.981.49-1.063,1.063,0,1.063-.082,2.043-.082,3.106v7.111c0,1.962,0,1.962,1.8,2.452h-5.558a.491.491,0,0,1,.327-.082c.736,0,.981-.49,1.063-1.063.082-1.308.082-2.534.082-3.842,0-2.043,0-2.043-2.043-2.043H564.9c-.572,0-.817.245-.817.817v4.5c0,1.471.082,1.553,1.553,1.8.082,0,.082,0,.245.082h-5.395c1.471-.082,1.308-1.226,1.308-2.207V55.325C561.953,53.69,561.953,53.69,560.4,53.2Z" transform="translate(-534.571 -16.582)" fill="#93c446"/>
      <path id="Path_2491" data-name="Path 2491" d="M590.2,60.069a7.051,7.051,0,0,1,6.866-7.275,9.682,9.682,0,0,1,4.823.736,6.37,6.37,0,0,1,3.515,6.621,6.722,6.722,0,0,1-4.25,6.376,8.281,8.281,0,0,1-8.337-.736A6.645,6.645,0,0,1,590.2,60.069Zm2.37-.327h0c.082.082.082.327.082.49.082,3.024,1.716,5.558,4.25,6.294,2.289.736,4.741,0,5.558-2.452a7.66,7.66,0,0,0,.572-2.779c.082-2.534-.327-4.986-2.534-6.621a4.591,4.591,0,0,0-7.356,2.289A7.66,7.66,0,0,0,592.57,59.742Z" transform="translate(-540.013 -16.503)" fill="#93c446"/>
      <path id="Path_2492" data-name="Path 2492" d="M653.691,64.925a18.352,18.352,0,0,1-.245,1.962c-.082.245-.327.572-.572.572-2.7,0-5.313,0-8.092-.082,1.471-.082,1.471-1.063,1.471-2.043v-9.89c0-1.716,0-1.716-1.553-2.043h8.582c-.082.736-.082,1.471-.245,2.289-.327-1.716-1.716-1.308-2.861-1.471-1.716-.082-1.716-.082-1.716,1.553v3.106a.761.761,0,0,0,.327.572,9.545,9.545,0,0,0,4.005-.327c-.082.817-.082,1.8-.245,2.7-.245-1.471-1.308-1.471-2.452-1.471-1.8,0-1.8,0-1.8,1.8v3.106a1.147,1.147,0,0,0,1.063,1.308h2.534a1.519,1.519,0,0,0,1.308-1.553A2.288,2.288,0,0,1,653.691,64.925Z" transform="translate(-549.966 -16.618)" fill="#93c446"/>
      <path id="Path_2493" data-name="Path 2493" d="M622.342,67.322c1.308-.49,1.471-.49,1.471-1.962,0-3.515,0-7.029.082-10.544,0-.736-.245-.817-.817-.817a17.085,17.085,0,0,1-2.043.082c-.981,0-1.962,0-2.289,1.308-.082-.082-.082-.082-.245-.082.082-.736.245-1.553.327-2.207h12.179v2.452c-.327-1.226-1.226-1.308-2.207-1.308a19.919,19.919,0,0,1-2.207-.082c-.49,0-.572.245-.572.572V65.279c0,1.553.082,1.716,1.716,1.962.082,0,.082.082.245.082Z" transform="translate(-545.181 -16.563)" fill="#93c446"/>
      <path id="Path_2494" data-name="Path 2494" d="M676.827,64.625a.824.824,0,0,0,.082.245c-.327,2.779.082,2.534-2.7,2.534-2.207,0-4.5,0-6.784-.082,1.471-.082,1.471-1.226,1.471-2.207V55.307c0-1.716-.082-1.716-1.8-2.207h5.558a.08.08,0,0,1-.082.082c-1.308.082-1.471.245-1.471,1.716v9.4c0,1.716.327,1.962,2.043,2.043h.981C676.009,66.423,676.009,66.341,676.827,64.625Z" transform="translate(-554.057 -16.563)" fill="#93c446"/>
      <path id="Path_2495" data-name="Path 2495" d="M696.96,61.89H684.536c-.245,0-.49-.245-.736-.245a2.6,2.6,0,0,1,.736-.245c3.6,0,7.275,0,10.871.082a6.683,6.683,0,0,1,1.716.245C696.96,61.809,696.96,61.809,696.96,61.89Z" transform="translate(-557.107 -18.079)" fill="#fff"/>
      <path id="Path_2496" data-name="Path 2496" d="M541,61.527c.981-.082,2.043-.082,3.024-.245,3.106,0,6.13-.082,9.318-.082.245,0,.49.245.736.245a2.6,2.6,0,0,1-.736.245H541C541,61.772,541,61.609,541,61.527Z" transform="translate(-531.028 -18.043)" fill="#fff"/>
      <path id="Path_2497" data-name="Path 2497" d="M593.1,59.935a14.032,14.032,0,0,1,.49-2.779,4.6,4.6,0,0,1,7.356-2.289c2.207,1.716,2.7,4.087,2.534,6.621a7.66,7.66,0,0,1-.572,2.779c-1.063,2.7-3.27,3.106-5.558,2.452-2.452-.736-4.005-3.27-4.25-6.294q.123-.368,0-.49Z" transform="translate(-540.542 -16.696)"/>
    </g>
  </g>
</svg>
