<?xml version="1.0" encoding="utf-8"?>
<!-- Generator: Adobe Illustrator 22.1.0, SVG Export Plug-In . SVG Version: 6.00 Build 0)  -->
<svg version="1.1" id="Layer_1" xmlns="http://www.w3.org/2000/svg" xmlns:xlink="http://www.w3.org/1999/xlink" x="0px" y="0px"
	 viewBox="0 0 152.7 152.2" style="enable-background:new 0 0 152.7 152.2;" xml:space="preserve">
<style type="text/css">
	.st0{fill:url(#Ellipse_865_1_);}
	.st1{fill:#FFFFFF;}
</style>
<g id="Group_3404" transform="translate(6232.999 11771.001)">
	
		<linearGradient id="Ellipse_865_1_" gradientUnits="userSpaceOnUse" x1="-6797.8086" y1="-10837.21" x2="-6798.8765" y2="-10838.417" gradientTransform="matrix(109 0 0 -109 734853.875 -1193007.125)">
		<stop  offset="0" style="stop-color:#4AF7DC"/>
		<stop  offset="0.512" style="stop-color:#4E92F6"/>
		<stop  offset="1" style="stop-color:#1E4688"/>
	</linearGradient>
	<circle id="Ellipse_865" class="st0" cx="-6156.5" cy="-11695.5" r="54.5"/>
	<path id="Intersection_4" class="st1" d="M-6156.9-11671.9c6.6-1.9,13-3.6,19.6-5.5c-1.2,3-2.4,5.8-3.6,8.7
		c9.9,2,19.2,0.6,27.8-4.6c3.4-2,6.4-4.5,9-7.4c-1.1,4-2.7,7.9-4.7,11.5c-10.1,6.7-22.6,8.8-34.4,5.9c-1.2,2.9-2.4,5.9-3.8,9.1
		C-6150.4-11660.1-6153.6-11665.9-6156.9-11671.9z M-6165.4-11735.6l-5.9-7.5c6.9,0,13.5-0.1,20.3-0.1c-1.6,6.6-3.1,13.1-4.7,19.8
		l-6-7.6c-10.9,11.7-14.9,35.5,2.4,52.7c-1.3,1.3-2.5,2.7-3.8,4C-6177.9-11687.5-6183.4-11715.1-6165.4-11735.6z M-6126.6-11683.3
		c-4.9-0.8-9.4-2.7-13.4-5.7c0.7-1.6,1.2-3.3,2-4.9c0.4-0.7,0.2-1.5-0.4-2c-1.3-1.6-2.6-3.2-3.8-4.9c-0.3-0.7-1.1-1-1.8-0.8
		c-1.4,0.3-2.9,0.5-4.4,0.6c-0.4,0-0.9-0.2-1.1-0.6c-1.9-4.6-2.6-9.7-1.9-14.6c1.8-0.3,3.5-0.5,5.3-0.7c0.7,0,1.3-0.5,1.4-1.2
		c0.7-2,1.5-4,2.4-5.9c0.4-0.6,0.3-1.4-0.2-1.9c-0.9-1.1-1.7-2.2-2.6-3.3c-0.5-0.4-0.6-1.1-0.2-1.6c0,0,0.1-0.1,0.1-0.1
		c2.9-3.6,6.5-6.4,10.6-8.3c0.5-0.4,1.2-0.2,1.6,0.3c0,0,0,0.1,0.1,0.1c0.8,1.2,1.8,2.2,2.6,3.4c0.4,0.6,1.1,0.9,1.8,0.7
		c2.1-0.4,4.3-0.7,6.4-0.9c0.6,0,1.1-0.3,1.3-0.9c11.9,10.3,18.7,25.3,18.7,41.1c0,1.6-0.1,3.2-0.2,4.8c-0.6,0.5-1.2,1-1.8,1.5
		c-1.8,1.4-3.7,2.5-5.7,3.5c-0.5,0.4-1.3,0.3-1.7-0.3c0,0-0.1-0.1-0.1-0.1c-0.9-1.2-1.8-2.3-2.7-3.5c-0.4-0.4-0.8-0.5-1.3-0.5
		c-2.5,0.4-5,0.8-7.8,1.3c-0.5,1.3-1.2,3-1.9,4.7c-0.2,0.6-0.5,0.9-1,0.9C-6126.3-11683.3-6126.5-11683.3-6126.6-11683.3z
		 M-6128.7-11721.1L-6128.7-11721.1c-4.8,3.7-5.7,10.5-2,15.2c0,0,0,0,0,0c3.7,4.7,10.5,5.6,15.2,1.9c4.7-3.7,5.6-10.5,1.9-15.2l0,0
		c-2.1-2.6-5.2-4.2-8.6-4.2C-6124.5-11723.3-6126.8-11722.5-6128.7-11721.1L-6128.7-11721.1z"/>
</g>
</svg>
