<?xml version="1.0" encoding="utf-8"?>
<!-- Generator: Adobe Illustrator 22.1.0, SVG Export Plug-In . SVG Version: 6.00 Build 0)  -->
<svg version="1.1" id="Layer_1" xmlns="http://www.w3.org/2000/svg" xmlns:xlink="http://www.w3.org/1999/xlink" x="0px" y="0px"
	 viewBox="0 0 152.7 152.2" style="enable-background:new 0 0 152.7 152.2;" xml:space="preserve">
<style type="text/css">
	.st0{fill:url(#Subtraction_53_1_);}
	.st1{fill:#FFFFFF;}
</style>
<g id="Group_3410" transform="translate(6438.999 11170.001)">
	<g id="Group_3409" transform="translate(-812 291)">
	</g>
	
		<linearGradient id="Subtraction_53_1_" gradientUnits="userSpaceOnUse" x1="-7003.8096" y1="-10236.208" x2="-7004.8779" y2="-10237.415" gradientTransform="matrix(109.0225 0 0 -109.0418 757259.5625 -1127325)">
		<stop  offset="0" style="stop-color:#4AF7DC"/>
		<stop  offset="0.512" style="stop-color:#4E92F6"/>
		<stop  offset="1" style="stop-color:#1E4688"/>
	</linearGradient>
	<path id="Subtraction_53" class="st0" d="M-6362.5-11040c-4.3,0-8.5-0.5-12.6-1.5c-8-1.9-15.4-5.6-21.8-10.8
		c-3.1-2.5-6-5.4-8.5-8.6h9.2v4.3h10.3v-4.3h31.4c1.1,0,2-0.9,2-2v-3.2h-6.7c-0.2,0.4-0.5,0.6-0.9,0.6h-48.5
		c-5.5-8.7-8.4-18.8-8.4-29.1c0-3.7,0.4-7.3,1.1-10.9h55.9c0.6,0,1,0.4,1,1v6.5h6.6v-10.1c0-1.1-0.9-2-2-2h-60.3
		c8.5-28.9,38.8-45.3,67.7-36.8c5.3,1.6,10.4,4,15,7.1c8.8,5.9,15.6,14.2,19.7,24c7.2,17,5.3,36.4-5,51.7
		c-5.9,8.8-14.2,15.6-24,19.7C-6348-11041.4-6355.2-11040-6362.5-11040z"/>
	<path id="Union_202" class="st1" d="M-6345-11057.5c-1.1,0-2-0.9-2-2v-19.8c0-1.1,0.9-2,2-2h8.5c1.1,0,2,0.9,2,2v19.8
		c0,1.1-0.9,2-2,2H-6345z M-6344.8-11078v17.1c0,0.6,0.4,1,1,1h6c0.6,0,1-0.4,1-1v-17.1c0-0.6-0.4-1-1-1h-6
		C-6344.3-11079-6344.8-11078.5-6344.8-11078C-6344.8-11078-6344.8-11078-6344.8-11078z M-6348.9-11068.7h-20.5c-1.1,0-2-0.9-2-2
		v-22.8c0-1.1,0.9-2,2-2h30.6c1.1,0,2,0.9,2,2v10.3h-3.5v-7.9c0-0.6-0.4-1-1-1h-25.5c-0.6,0-1,0.4-1,1v18c0,0.6,0.4,1,1,1h17.9
		L-6348.9-11068.7L-6348.9-11068.7L-6348.9-11068.7z"/>
</g>
</svg>
