<svg xmlns="http://www.w3.org/2000/svg" xmlns:xlink="http://www.w3.org/1999/xlink" width="200" height="150" viewBox="0 0 200 150">
  <defs>
    <clipPath id="clip-jungle_retreat">
      <rect width="200" height="150"/>
    </clipPath>
  </defs>
  <g id="jungle_retreat" clip-path="url(#clip-jungle_retreat)">
    <g id="Group_941" data-name="Group 941" transform="translate(9.3 0.155)">
      <path id="Path_2483" data-name="Path 2483" d="M-121.446,102.91c-.271-1.264-1.806-.722-1.806-.722.9-.181,1.535,1.535,1.535,1.535s1.715-.451,2.257.632A1.725,1.725,0,0,0-121.446,102.91Zm-3.34,2.708c-.271-1.264-3.7-.722-3.7-.722s2.8.632,3.34,2.257c1.535-.722,3.972,1.715,3.972,1.715,0-.361-1.174-3.069-3.611-3.25Zm10.563-80.71c-10.111-14.354-21.577-3.25-21.577-3.25s13.181-2.438,19.771,11.014c11.646-5.778,20.674,10.292,20.674,10.292S-94,23.826-114.224,24.909ZM-134.717,48.2c-15.347-26.362-34.487-6.139-34.577-5.778.181-.181,18.688-6.771,28.98,14.264C-121.446,51.9-109.8,71.854-109.8,71.854s-.451-27.174-24.917-23.653Zm-39.091,27.987.9-3.7c0,.181-1.354,3.34-3.792,4.153-2.438.9-3.069,7.945-3.069,7.945.181,1.083,2.257,4.243,4.875,1.806C-170.558,82.056-173.808,76.188-173.808,76.188ZM-188.162,67.7c0-.451-1.986-3.25-1.986-3.34,0,.181,1.806,2.889-.9,4.875-2.8,2.167-1.806,8.577-1.806,8.577.9,1.806,3.7,3.34,5.778-1.083,2.076-4.333-1.264-8.486-1.083-9.028Zm-17.514.09c-.9-.722,1.806-3.7,1.264-3.7-.632,0-4.153,5.507-4.875,6.771s.722,7.222.722,7.222c1.535,3.521,5.236.271,5.778-3.25a7.66,7.66,0,0,0-2.889-7.042ZM-221.3,76.729s-.451-.451.9-2.618c-9.3,8.577-1.535,14.716-1.535,14.716a1.289,1.289,0,0,0,.632.271c7.674-.813,0-12.368,0-12.368Zm35.57,9.75c-10.563-7.042-26.362-.271-30.153,4.243-3.792,4.6-2.889,7.674-2.8,9.028.181,1.535,2.438,1.083,2.438,1.083a25.461,25.461,0,0,1,12.1-11.917c26.632-5.688,22.028,13.813,22.389,20.223s-9.028,21.125-18.868,19.139c-4.243-.181-6.771-5.507-7.042-9.931s7.313-9.479,7.313-9.479c-5.778.271-9.84,7.313-9.84,9.208,0,1.806-2.618,9.028,9.208,13s19.861-15.167,21.125-16.973C-178.683,112.48-175.162,93.7-185.725,86.479Zm123.683,36.563c-3.16-2.438-.451-6.681-.451-6.681a62.875,62.875,0,0,0,11.646-.181c6.41-.722-1.083-7.222-1.083-7.222s-5.688-.451-7.222-.451c-1.715,0-5.958,6.41-5.958,6.41h-2.8l-1.264,1.715s2.257-.451,3.521.632c-2.618,11.014,13.632,11.827,13.632,11.827s5.958.271,8.757-1.806C-49.132,129.543-58.792,125.57-62.042,123.043Zm.181-8.667s1.806-3.34,3.34-3.792c1.715-.451,7.042-.181,7.042-.181s2.257,3.069.181,4.243c-.722.632-9.931.271-9.931.271S-62.223,115.279-61.862,114.376Zm-11.375,21.757c-.632-1.354-4.153-7.493-4.153-7.493l-.451-69.425-3.792-4.785v4.243l.451,2.618.451,67.078c0,.09,8.757,10.292,7.493,7.764Zm-21.216-19.5s-9.84,4.153-9.84,1.806c.181-2.257,2.257-6.41,5.688-6.861a39.2,39.2,0,0,1,5.688-.451l-.181-1.986a66.522,66.522,0,0,0-8.125.181c-1.806.271-8.577,5.958-7.222,9.3s11.646,3.25,12.82,1.986c1.264-1.264,3.25,0,2.257,1.535-.9,1.535-3.972,31.056-18.507,43.334-1.806,1.715.722.451.722.451s19.861-17.153,20.674-49.112C-91.112,115.73-94.453,116.633-94.453,116.633Zm-23.292,8.306c-2.257-2.618-9.931-14.716-12.278-14.264-3.521.722-9.479,12.278-9.479,12.278s-3.25-2.438-3.792-11.195l.722,14.986s1.264,1.715,1.986,1.986c.722.181,7.313-12.82,8.577-13.632,1.806-1.083,2.618-1.986,7.945,5.958,3.34,4.875,5.326,7.674,7.042,7.313s3.25-3.7,3.25-3.7S-115.307,127.376-117.745,124.938Zm-25.549-13.181-.181-1.986a7.744,7.744,0,0,1,.181,1.986Zm-19.32,11.465c-3.521-3.792-5.056-13.181-5.056-13.181s-.9-1.354-1.715.181c0,0,.451,15.438,7.764,18.417,3.34,1.354,5.326-5.507,5.326-5.507s2.257.271,2.8,3.25c.451,2.889.271-7.764.271-7.764l1.083-1.806a14.93,14.93,0,0,1,.722-5.778c1.083-2.618-7.674,16.07-11.195,12.188Z" transform="translate(224.964 -17.562)" fill="#5b3d4c"/>
      <text id="Retreat" transform="translate(32.196 132.425)" fill="#5b3d4c" font-size="25" font-family="BradleyHandITCTT-Bold, Bradley Hand" font-weight="700"><tspan x="0" y="0">Retreat</tspan></text>
    </g>
  </g>
</svg>
