<svg xmlns="http://www.w3.org/2000/svg" xmlns:xlink="http://www.w3.org/1999/xlink" width="200" height="150" viewBox="0 0 200 150">
  <defs>
    <clipPath id="clip-m_star">
      <rect width="200" height="150"/>
    </clipPath>
  </defs>
  <g id="m_star" clip-path="url(#clip-m_star)">
    <g id="m_Star-2" data-name="m_Star" transform="translate(-27.8 -12.4)">
      <path id="Path_11328" data-name="Path 11328" d="M59.841,63H63.7l8.552,14.621L80.669,63h3.724l1.241,28H81.772l-.966-21.517L72.945,82.724H70.876l-7.586-13.1L62.324,91H58.6Z" transform="translate(11.683 0.986)" fill="#f7a823"/>
      <path id="Path_11329" data-name="Path 11329" d="M97.41,84.341c.414.414.828.966,1.241,1.379l1.655,1.241a13.919,13.919,0,0,0,2.069.966,7.637,7.637,0,0,0,2.483.276,6.581,6.581,0,0,0,4.276-1.241,4.07,4.07,0,0,0,1.517-3.448,3.67,3.67,0,0,0-1.793-3.448,15.177,15.177,0,0,0-5.1-1.931,15.552,15.552,0,0,1-3.31-1.1,7.827,7.827,0,0,1-2.483-1.655,9.062,9.062,0,0,1-1.655-2.345A7.423,7.423,0,0,1,95.755,70a10.744,10.744,0,0,1,.552-2.9A6.384,6.384,0,0,1,98.1,64.617a9.922,9.922,0,0,1,2.9-1.655,9.717,9.717,0,0,1,4-.552,15.9,15.9,0,0,1,3.586.414,8.044,8.044,0,0,1,2.483,1.1l1.655,1.241c.414.414.69.828.965,1.1l-2.621,2.483c-.138-.276-.414-.414-.828-.828A7.581,7.581,0,0,0,109,66.962c-.552-.276-1.241-.552-1.793-.828a6.833,6.833,0,0,0-2.345-.276,7.006,7.006,0,0,0-2.345.414,10.288,10.288,0,0,0-1.655.966,7.581,7.581,0,0,0-.965,1.241,4.9,4.9,0,0,0-.276,1.379,4.247,4.247,0,0,0,.414,1.793,3.56,3.56,0,0,0,1.241,1.241,13.919,13.919,0,0,0,2.069.966q1.241.414,2.9.828a25.738,25.738,0,0,1,3.034.966,8.483,8.483,0,0,1,2.621,1.655,6.741,6.741,0,0,1,1.931,2.483,7.935,7.935,0,0,1,.69,3.586,6.931,6.931,0,0,1-.828,3.31,9.663,9.663,0,0,1-2.069,2.621,7.036,7.036,0,0,1-3.172,1.655,12.46,12.46,0,0,1-3.862.552A15.033,15.033,0,0,1,101,91.1a13.094,13.094,0,0,1-2.9-1.241A9.061,9.061,0,0,1,95.755,88.2L94.1,86.548Z" transform="translate(25.148 0.749)" fill="#f7a823"/>
      <path id="Path_11330" data-name="Path 11330" d="M124.469,66.448H114.4V63h24v3.586h-9.931V91h-4V66.448Z" transform="translate(32.848 0.986)" fill="#f7a823"/>
      <path id="Path_11331" data-name="Path 11331" d="M144,63h4.138l11.034,28h-4.552l-2.9-7.862H140.134L137.238,91H133.1Zm6.483,16.828-4.552-12.276-4.552,12.276Z" transform="translate(39.941 0.986)" fill="#f7a823"/>
      <path id="Path_11332" data-name="Path 11332" d="M158.2,63h8.966a13.051,13.051,0,0,1,4.552.69,8.766,8.766,0,0,1,3.034,1.931,8.484,8.484,0,0,1,1.655,2.621,7.423,7.423,0,0,1,.552,3.034,9.173,9.173,0,0,1-1.241,4.69A7.821,7.821,0,0,1,171.855,79l6.483,12h-4.552l-6.069-11.448H162.2V91h-3.862Zm9.379,13.1a5.789,5.789,0,0,0,4-1.241,4.287,4.287,0,0,0,1.241-3.448,4.486,4.486,0,0,0-1.379-3.586,5.9,5.9,0,0,0-3.862-1.241h-5.241v9.655Z" transform="translate(49.462 0.986)" fill="#f7a823"/>
      <path id="Path_11333" data-name="Path 11333" d="M45.428,69.917A74.739,74.739,0,0,0,41.014,60.4,100.208,100.208,0,0,0,36.6,69.917c1.517-.138,2.9-.138,4.414-.138S44.048,69.917,45.428,69.917Z" transform="translate(3.338 0)" fill="#f7a823"/>
      <path id="Path_11334" data-name="Path 11334" d="M47.734,75.9c-1.1.966-2.345,1.793-3.448,2.621S41.941,80.176,40.7,81a100.631,100.631,0,0,0,9.1,5.1h0C49.252,82.659,48.562,79.21,47.734,75.9Z" transform="translate(4.893 5.879)" fill="#f7a823"/>
      <path id="Path_11335" data-name="Path 11335" d="M59.524,69.379c-.552-.138-.966-.138-1.517-.276l-.69-.138a12.073,12.073,0,0,0-2.207-.276,12.073,12.073,0,0,1-2.207-.276c-.828,0-1.517-.138-2.207-.138l-1.517-.138C47.524,68,46.007,68,44.352,68a30,30,0,0,0-3.586.138,3.819,3.819,0,0,0-1.241.138h-.69l-1.517.138c-1.517.138-2.9.276-4.414.414l-1.517.276c-1.241.276-2.483.414-3.586.552l2.069,2.069a14.764,14.764,0,0,0,2.207,1.931c1.517,1.241,2.9,2.621,4.552,3.862-.138.69-.414,1.517-.552,2.207a12.914,12.914,0,0,1-.552,2.207c-.138.552-.138.966-.276,1.517s-.138.966-.276,1.517c-.276,1.517-.552,2.9-.69,4.276h0c.828-.414,1.793-.828,2.621-1.241l.828-.414c.414-.138.69-.414,1.1-.552.828-.552,1.655-.966,2.483-1.517,1.1-.552,2.069-1.241,3.172-1.931.966-.69,2.069-1.379,3.034-2.069l.966-.69a18.543,18.543,0,0,0,1.931-1.517c.69-.552,1.241-.966,1.931-1.517a3.718,3.718,0,0,0,1.1-.966c1.931-1.655,3.724-3.172,5.517-4.966l2.069-2.069A6.218,6.218,0,0,0,59.524,69.379Z" transform="translate(0 2.883)" fill="#f7a823"/>
      <path id="Path_11336" data-name="Path 11336" d="M58.9,90.7h1.655v4.69h6.069V90.7h1.655v11.172H66.624v-5.1H60.555v5.1H58.9V90.7Z" transform="translate(11.797 11.493)" fill="#959595"/>
      <path id="Path_11337" data-name="Path 11337" d="M78.955,102.262a5.718,5.718,0,0,1-2.207-.414,5.249,5.249,0,0,1-1.793-1.241,5.786,5.786,0,0,1-1.241-1.931,6.851,6.851,0,0,1,0-4.69,5.786,5.786,0,0,1,1.241-1.931,5.249,5.249,0,0,1,1.793-1.241,6.465,6.465,0,0,1,4.552,0,5.249,5.249,0,0,1,1.793,1.241,5.786,5.786,0,0,1,1.241,1.931,6.851,6.851,0,0,1,0,4.69,5.785,5.785,0,0,1-1.241,1.931,5.249,5.249,0,0,1-1.793,1.241A7.006,7.006,0,0,1,78.955,102.262Zm0-1.517a3.672,3.672,0,0,0,1.655-.414,4.3,4.3,0,0,0,1.241-.966,3.675,3.675,0,0,0,.828-1.379,5.1,5.1,0,0,0,0-3.31,2.862,2.862,0,0,0-.828-1.379,7.579,7.579,0,0,0-1.241-.965,2.374,2.374,0,0,0-1.655-.276,6.923,6.923,0,0,0-1.655.276,4.3,4.3,0,0,0-1.241.965,7.306,7.306,0,0,0-.828,1.379,3.5,3.5,0,0,0-.276,1.655,6.923,6.923,0,0,0,.276,1.655,2.862,2.862,0,0,0,.828,1.379,7.579,7.579,0,0,0,1.241.966,3.672,3.672,0,0,0,1.655.414Z" transform="translate(17.259 11.379)" fill="#959595"/>
      <path id="Path_11338" data-name="Path 11338" d="M91.7,92.079h-4V90.7h9.655v1.379h-4v9.793H91.7Z" transform="translate(22.721 11.493)" fill="#959595"/>
      <path id="Path_11339" data-name="Path 11339" d="M102,90.7h7.034v1.379h-5.379v3.31h4.138v1.517h-4.138v3.586h5.793v1.517H102Z" transform="translate(28.145 11.493)" fill="#959595"/>
      <path id="Path_11340" data-name="Path 11340" d="M115,90.7h1.655v9.793h5.793v1.379H115Z" transform="translate(33.076 11.493)" fill="#959595"/>
    </g>
  </g>
</svg>
