<svg xmlns="http://www.w3.org/2000/svg" xmlns:xlink="http://www.w3.org/1999/xlink" width="200" height="150" viewBox="0 0 200 150">
  <defs>
    <clipPath id="clip-motel_6">
      <rect width="200" height="150"/>
    </clipPath>
  </defs>
  <g id="motel_6" clip-path="url(#clip-motel_6)">
    <g id="Group_943" data-name="Group 943" transform="translate(32.135 -0.073)">
      <rect id="Rectangle_858" data-name="Rectangle 858" width="142.463" height="149.991" transform="translate(0)" fill="#1476c6"/>
      <path id="Path_2498" data-name="Path 2498" d="M435.482,160.96H372.72a51.582,51.582,0,0,1-15.384-22.994,66.832,66.832,0,0,1-3.109-14.32,109.029,109.029,0,0,1-.164-14.484c.9-7.2,3.519-19.066,7.528-28.067,4.746-10.638,13.42-22.257,19.066-28.967a98.79,98.79,0,0,1,28.067-22.585c4.91-2.537,9.574-4.992,14.893-6.383a13.682,13.682,0,0,1,6.792-.327,6.234,6.234,0,0,1,3.682,9.41,17.873,17.873,0,0,1-4.173,4.419c-4.01,3.437-7.937,6.628-11.947,10.229a85.483,85.483,0,0,0-13.583,16.12,2.24,2.24,0,0,0-.327.573v.164a19.214,19.214,0,0,0,2.046-.327c11.047-.9,20.784,2.373,29.376,9.41,7.855,6.464,12.683,14.893,15.629,24.385a58.323,58.323,0,0,1,2.619,15.466c.409,10.474-1.064,20.7-5.319,30.277C444.892,153.677,435.482,160.96,435.482,160.96ZM395.8,69.8c-.164.164-.164,0,0,0a.507.507,0,0,1-.164-.327c0-.164.164-.327.164-.409a89.988,89.988,0,0,1,21.275-27.331c3.273-2.946,6.628-5.646,10.065-8.428a45.384,45.384,0,0,0,3.437-3.437,2.329,2.329,0,0,0,.573-2.209,2.757,2.757,0,0,0-2.618-2.046,15.025,15.025,0,0,0-5.728.9,68.814,68.814,0,0,0-15.629,7.528,111.329,111.329,0,0,0-38.541,40.178,84.867,84.867,0,0,0-11.211,36.659,65.342,65.342,0,0,0,.409,13.256,64.052,64.052,0,0,0,3.437,13.911,46.9,46.9,0,0,0,17.266,22.421,1.925,1.925,0,0,0,1.309.409h48.606a1.774,1.774,0,0,0,1.146-.409,45.211,45.211,0,0,0,14.484-16.693c4.419-8.592,6.219-17.757,6.383-27.331a74.429,74.429,0,0,0-.9-11.374,52.062,52.062,0,0,0-6.383-18,42.788,42.788,0,0,0-16.2-16.2A35.489,35.489,0,0,0,413.8,66.694a26.917,26.917,0,0,0-7.692,0,25.852,25.852,0,0,0-9.574,3.109A1.848,1.848,0,0,0,395.8,69.8Z" transform="translate(-328.696 -10.887)" fill="#fff"/>
      <path id="Path_2499" data-name="Path 2499" d="M340.541,84.958v-1.8c.327,0,.409-.164.736-.164-1.473-2.046-1.309-3.437.409-5.155a3.2,3.2,0,0,1-1.309-2.373c-.327-2.209.9-3.682,3.273-3.682,2.046-.164,4.01,0,6.055,0,.327,0,.573.164.409.409v.164c0,1.146,0,1.146-1.146,1.146h-5.155c-1.309,0-1.882.573-2.046,1.473-.164,1.146.409,1.882,1.8,2.209.327,0,.736.164,1.064.164h4.255c1.146,0,1.473.409,1.146,1.637,0,.164-.409.327-.573.327h-4.992a3.6,3.6,0,0,0-1.309.164,1.563,1.563,0,0,0-1.309,1.309,1.7,1.7,0,0,0,.9,1.882,3.431,3.431,0,0,0,1.8.409h4.91c.573,0,.9.164.736.736,0,1.064,0,1.064-1.064,1.064h-7.692A3.068,3.068,0,0,1,340.541,84.958Z" transform="translate(-326.221 -19.823)" fill="#fff"/>
      <path id="Path_2500" data-name="Path 2500" d="M345.783,46.987a3.073,3.073,0,0,0,2.782-1.8c.736-1.882,0-3.437-1.8-4.419a11.612,11.612,0,0,1,.9-1.473,5.063,5.063,0,0,1,2.782,5.155c-.327,1.882-1.146,3.437-3.109,4.01a5.106,5.106,0,0,1-5.483-1.064c-1.637-1.309-1.8-3.273-1.309-5.155a4.467,4.467,0,0,1,3.846-3.273c1.637-.327,1.309-.164,1.309,1.146C345.783,42.486,345.783,44.7,345.783,46.987Zm-1.555-5.973a2.929,2.929,0,0,0-2.373,3.109,2.872,2.872,0,0,0,2.373,2.537Z" transform="translate(-326.226 -13.846)" fill="#fff"/>
      <path id="Path_2501" data-name="Path 2501" d="M340.3,62.519a5,5,0,1,1,4.828,5.319A5.141,5.141,0,0,1,340.3,62.519Zm4.992,3.6a3.222,3.222,0,0,0,3.437-3.437,3.286,3.286,0,0,0-3.437-3.519,3.527,3.527,0,0,0-3.519,3.437A3.6,3.6,0,0,0,345.291,66.119Z" transform="translate(-326.225 -17.186)" fill="#fff"/>
      <path id="Path_2502" data-name="Path 2502" d="M341.31,52.682h7.528c.409,0,.736.164.573.573v.409c.164.573-.164.736-.736.736h-7.2c-.164,1.146-.164,1.146-1.637,1.064V55.3c-.164-.9-.164-.9-1.064-.9H336.4V52.6h2.537c.9,0,.9,0,.9-.9v-.9c.573,0,1.309,0,1.473.327C341.637,51.373,341.31,52.109,341.31,52.682Z" transform="translate(-325.517 -16.023)" fill="#fff"/>
      <path id="Path_2503" data-name="Path 2503" d="M336.284,36.8v-.327C336.12,35,336.12,35,337.593,35H348.64a2.418,2.418,0,0,1,.736.164,4.451,4.451,0,0,1,0,1.473,2.1,2.1,0,0,1-.409.164H336.529C336.448,36.964,336.284,36.8,336.284,36.8Z" transform="translate(-325.483 -13.152)" fill="#fff"/>
      <path id="Path_2504" data-name="Path 2504" d="M466.436,182.3a1.637,1.637,0,1,1-1.637,1.637A1.545,1.545,0,0,1,466.436,182.3Zm1.146,1.637a1.268,1.268,0,0,0-1.146-1.309,1.165,1.165,0,0,0-1.146,1.309,1.117,1.117,0,0,0,1.146,1.146C467.173,185.246,467.582,184.673,467.582,183.937Z" transform="translate(-348.849 -39.919)" fill="#fff"/>
      <path id="Path_2505" data-name="Path 2505" d="M396.34,70.6c.327-.164.409-.164.736-.327a33.639,33.639,0,0,1,9.574-3.109,30.249,30.249,0,0,1,7.692,0,36.463,36.463,0,0,1,13.174,4.173,41.675,41.675,0,0,1,16.2,16.2,53.279,53.279,0,0,1,6.383,18,59.251,59.251,0,0,1,.9,11.374c-.164,9.574-1.882,18.739-6.383,27.331a44.672,44.672,0,0,1-14.484,16.693,1.466,1.466,0,0,1-1.146.327H380.384a1.968,1.968,0,0,1-1.309-.327,47.286,47.286,0,0,1-17.266-22.421,57.7,57.7,0,0,1-3.437-13.911,65.337,65.337,0,0,1-.409-13.256,84.868,84.868,0,0,1,11.211-36.659,110,110,0,0,1,38.541-40.178,72.434,72.434,0,0,1,15.629-7.528,13.6,13.6,0,0,1,5.728-.9,2.68,2.68,0,0,1,2.618,2.046,2.33,2.33,0,0,1-.573,2.209,45.4,45.4,0,0,1-3.437,3.437c-3.273,2.782-6.792,5.483-10.065,8.428A97.008,97.008,0,0,0,396.34,69.538c0,.164-.164.327-.164.409A1.237,1.237,0,0,1,396.34,70.6Zm-14.074,46.642a106.184,106.184,0,0,0,1.146,15.957,36.164,36.164,0,0,0,4.01,11.947c2.373,4.255,5.728,7.528,10.474,8.837a22.691,22.691,0,0,0,10.474.573,17.042,17.042,0,0,0,10.638-5.646A24.953,24.953,0,0,0,424,140.074a48.569,48.569,0,0,0,2.618-14.729c.327-3.846.164-7.692.164-11.538a63.473,63.473,0,0,0-1.064-11.21A46.809,46.809,0,0,0,422.2,90.813a18.354,18.354,0,0,0-10.229-9.574A21.828,21.828,0,0,0,401.5,80.176a17.5,17.5,0,0,0-12.684,7.365,31.135,31.135,0,0,0-4.991,11.7A100.225,100.225,0,0,0,382.266,117.244Z" transform="translate(-329.405 -11.522)" fill="#ee2722"/>
      <path id="Path_2506" data-name="Path 2506" d="M344.572,41.5v5.646a2.788,2.788,0,0,1-2.373-2.537A3.041,3.041,0,0,1,344.572,41.5Z" transform="translate(-326.57 -14.333)" fill="#1476c6"/>
      <path id="Path_2507" data-name="Path 2507" d="M345.636,66.555a3.286,3.286,0,0,1-3.437-3.519,3.425,3.425,0,0,1,3.519-3.437,3.33,3.33,0,0,1,3.437,3.519A3.375,3.375,0,0,1,345.636,66.555Z" transform="translate(-326.57 -17.622)" fill="#1476c6"/>
      <path id="Path_2508" data-name="Path 2508" d="M387.6,129.391a78.677,78.677,0,0,1,1.8-18.166,36.145,36.145,0,0,1,4.992-11.7,17.5,17.5,0,0,1,12.683-7.365,22.772,22.772,0,0,1,10.474,1.064c4.746,1.8,7.937,5.155,10.229,9.574A37.009,37.009,0,0,1,431.3,114.58a74.233,74.233,0,0,1,1.064,11.211c0,3.846,0,7.692-.164,11.538a59.173,59.173,0,0,1-2.619,14.729,23.615,23.615,0,0,1-4.992,8.837,17.669,17.669,0,0,1-10.638,5.646,23.783,23.783,0,0,1-10.474-.573A17.806,17.806,0,0,1,393,157.131a38.857,38.857,0,0,1-4.01-11.947A78.209,78.209,0,0,1,387.6,129.391Zm3.764.164a100.591,100.591,0,0,0,1.146,15.466,35.794,35.794,0,0,0,3.437,10.474,13.878,13.878,0,0,0,8.428,7.2,19.475,19.475,0,0,0,7.856.573,13.457,13.457,0,0,0,8.674-4.01,23.8,23.8,0,0,0,5.482-10.31,60.488,60.488,0,0,0,2.046-14.32,86.344,86.344,0,0,0-1.064-20.048,36.619,36.619,0,0,0-3.682-11.047,14.457,14.457,0,0,0-8.1-6.955,18.044,18.044,0,0,0-6.955-.736,13.694,13.694,0,0,0-10.638,5.319c-2.537,3.109-3.846,6.792-4.91,10.638A73.923,73.923,0,0,0,391.364,129.555Z" transform="translate(-334.821 -23.505)" fill="#fff"/>
      <path id="Path_2509" data-name="Path 2509" d="M392.2,130.413a71.531,71.531,0,0,1,1.8-17.757,25.833,25.833,0,0,1,4.91-10.638A13.819,13.819,0,0,1,409.548,96.7a21.892,21.892,0,0,1,6.955.736,13.675,13.675,0,0,1,8.1,6.955,37.392,37.392,0,0,1,3.682,11.047,96.978,96.978,0,0,1,1.064,20.048,60.494,60.494,0,0,1-2.046,14.32,22.967,22.967,0,0,1-5.483,10.31,13.84,13.84,0,0,1-8.674,4.01,19.582,19.582,0,0,1-7.855-.573c-3.846-1.146-6.464-3.846-8.428-7.2a34.983,34.983,0,0,1-3.437-10.474A77.714,77.714,0,0,1,392.2,130.413Z" transform="translate(-335.656 -24.364)" fill="#1476c6"/>
      <text id="R" transform="translate(116.964 143.26)" fill="#fff" font-size="1" font-family="Palanquin-Medium, Palanquin" font-weight="500"><tspan x="0" y="0">R</tspan></text>
    </g>
  </g>
</svg>
