<svg xmlns="http://www.w3.org/2000/svg" xmlns:xlink="http://www.w3.org/1999/xlink" width="200" height="150" viewBox="0 0 200 150">
  <defs>
    <clipPath id="clip-parlour">
      <rect width="200" height="150"/>
    </clipPath>
  </defs>
  <g id="parlour" clip-path="url(#clip-parlour)">
    <g id="all_client_logos" data-name="all client logos" transform="translate(-7351.269 -229.175)">
      <g id="Group_939" data-name="Group 939" transform="translate(7352.269 256.176)">
        <path id="Path_2510" data-name="Path 2510" d="M1399.526,111.308c0,.613-.1.715,0,.92,3.27,4.6,3.474,9.706,1.533,15.019a6.7,6.7,0,0,0,1.226,6.13c.409.715.715,1.839,1.328,3.167-2.861-.715-4.189-2.146-4.8-4.189-.409-1.533-1.226-1.941-2.656-2.146a23,23,0,0,1-3.576-.92v-.715c.613-.1,1.022-.307,1.635-.409,2.963-.409,3.883-1.533,4.5-4.5,1.022-4.8.409-9.093-3.27-12.567-2.35-2.248-4.5-1.941-5.415,1.226s-1.635,6.437-2.248,9.6a9.144,9.144,0,0,0,.613,3.167c.1.613.307,1.328.409,1.839l-8.071-2.248c3.474-3.474,4.087-7.969,4.6-12.567a8.892,8.892,0,0,0-.715-3.167,3.044,3.044,0,0,0-1.328.1,31.9,31.9,0,0,0-1.022,3.269c-2.146.409-3.167-.307-2.656-2.861a4.709,4.709,0,0,1,4.8-4.189c2.248-.1,2.963-1.328,3.576-3.167.715-2.35,1.533-4.6,2.248-7.05.92-2.861.1-4.8-2.35-6.028,1.839-2.146,2.861-2.248,4.394-.1,1.226,1.839,2.35,1.839,4.393,1.226,4.9-1.839,9.093-.307,12.873,3.269,3.269,3.167,4.5,6.743,3.167,11.137-1.328,4.189-4.393,6.437-8.991,6.743Zm-1.124-4.8a19.594,19.594,0,0,0,4.9-1.533c2.35-1.226,3.474-4.189,2.248-6.335-1.635-2.963-4.393-4.189-7.663-4.393-2.963-.1-3.78,2.248-4.8,4.393-2.248,5.722-.92,7.663,5.313,7.867Z" transform="translate(-1214.802 -51.845)"/>
        <path id="Path_2511" data-name="Path 2511" d="M1294.554,114.553l-7.969,1.328c1.022-4.189.307-8.276-.92-12.465-.1-.409-.307-.92-.409-1.328a14.849,14.849,0,0,0-1.941-2.35,4.054,4.054,0,0,0-1.226.715c-.1.92,0,1.941,0,3.474-.409,0-1.635.613-2.248.1-.715-.409-1.022-1.839-1.022-2.861a5.012,5.012,0,0,1,2.963-4.8c1.328-.613,1.635-1.533,1.532-2.963-.307-2.656-.409-5.415-.613-8.071-.307-3.167-1.635-4.8-4.8-5.109.92-2.656,1.839-3.167,3.883-1.839,1.635,1.022,2.861.715,4.189-.613,3.78-3.78,8.889-4.393,14.508-1.839a9.884,9.884,0,0,1,6.028,10.217c-.1,3.882-2.35,6.335-5.824,7.969a22.405,22.405,0,0,0-2.963,1.635c1.022.715,1.839,1.328,2.554,1.839a12.193,12.193,0,0,1,5.109,8.276c.409,3.78,1.226,7.356,5.109,9.093.409.1.613.92,1.022,1.533a3.841,3.841,0,0,1-4.8-.92c-1.635-1.839-3.167-2.146-5.211-1.022a7.647,7.647,0,0,1-2.656.1v-.715c1.533-1.226,3.78-1.941,3.576-4.393-.1-3.474-1.022-6.845-3.78-9.4a15.191,15.191,0,0,0-5.108-2.963c-2.35-.92-4.087.1-3.883,2.554.307,4.9,0,10.217,4.393,13.793A1.553,1.553,0,0,1,1294.554,114.553ZM1287.4,86.661a13.661,13.661,0,0,0,.613,4.087,4.2,4.2,0,0,0,1.941,1.839,10.467,10.467,0,0,0,9.6-4.5,4.494,4.494,0,0,0-.715-6.335c-2.656-2.146-5.722-2.146-8.684-.92-2.759,1.022-2.656,3.474-2.759,5.824Z" transform="translate(-1217.006 -52.127)"/>
        <path id="Path_2512" data-name="Path 2512" d="M1237.406,112.618c3.167,4.5,5.824,8.991,9.093,13.078,1.022,1.328,3.474,1.839,5.415,2.656-.409.307-1.022,1.226-1.839,1.022-3.167-.1-6.028.1-7.765,3.269.409-7.356-5.109-11.341-7.969-16.756-2.554,2.146-2.656,3.269-.409,6.641-1.226-.1-2.656,0-3.269-.613a6.181,6.181,0,0,1-1.533-3.882c0-1.022,1.022-2.35,1.941-3.269,1.226-1.226,1.022-1.941.306-3.269a67.414,67.414,0,0,1-3.78-7.152,6.239,6.239,0,0,0-5.211-4.087c-1.226-.1-2.35-.1-4.087-.307a8.076,8.076,0,0,1,5.211-2.963,6.683,6.683,0,0,0,2.35-1.328A18.214,18.214,0,0,0,1228.109,93c4.5-5.211,9.6-6.13,16.96-2.861,5.109,2.35,6.641,9.706,2.861,14.508-1.941,2.554-4.9,4.393-7.459,6.335C1239.858,111.392,1238.734,111.8,1237.406,112.618Zm-1.43-2.452a60.028,60.028,0,0,0,4.5-4.9,42.937,42.937,0,0,0,3.576-5.211,4.087,4.087,0,0,0-.92-4.9c-1.941-1.839-6.028-1.941-8.684-.1-2.554,1.635-3.78,4.189-2.554,7.152A59.48,59.48,0,0,0,1235.976,110.166Z" transform="translate(-1218.3 -51.827)"/>
        <path id="Path_2513" data-name="Path 2513" d="M1285.151,117.071l-9.4,2.861c1.941-4.189,1.226-7.663-2.146-10.83a2.937,2.937,0,0,0-1.839-.715c-2.963,0-6.028.307-9.093.409,0,3.269-.306,6.335.1,9.3.1,1.226,1.635,2.248,2.656,3.167a4.1,4.1,0,0,0,2.146.715v.715c-1.226.307-2.35.92-3.576.715a2.974,2.974,0,0,0-3.167,1.022c-1.532,1.533-3.269,1.533-5.211.307,2.963-1.328,2.35-3.882,2.35-6.335v-9.3l-3.474,2.656c-.307-2.248,1.226-3.474,2.248-4.8a7.231,7.231,0,0,0,1.328-2.861c.1-5.415.307-10.626.307-16.041,0-.715,0-1.533-.1-2.656l-2.656,1.328c-.715-2.963,1.226-4.189,5.517-3.474,2.146-2.861,2.656-2.963,4.394-1.635a19.137,19.137,0,0,0,.307,3.882c3.882,10.217,9.706,19.515,15.632,28.608C1282.086,115.64,1283.721,116.253,1285.151,117.071Zm-22.273-11.647a45.522,45.522,0,0,0,5.109-.307c1.635-.1,1.941-1.328,1.328-2.656-1.941-3.78-3.883-7.458-6.028-11.239l-.409.1v14.1Z" transform="translate(-1217.515 -51.988)"/>
        <path id="Path_2514" data-name="Path 2514" d="M1375.405,84.178c2.35.307,3.474,1.635,3.474,3.576l6.845-2.554c-.409,1.022-.409,1.328-.613,1.328-4.8,3.269-7.05,8.071-8.072,13.589-.715,3.78-1.635,7.458-2.35,11.341-.307,1.328-.409,2.554-.613,3.882-.307,2.963.409,5.517,3.883,6.335-1.941,3.269-4.9,2.861-8.072-.92-8.583,3.269-14.713-3.78-13.384-12.26.613-3.474,1.839-6.845,2.554-10.319,1.328-5.517,1.941-11.239.613-16.96a1.741,1.741,0,0,1,.1-.715c3.167.409,4.5,2.35,5.109,5.415,1.941-1.839,3.883-2.963,6.845-2.248a12.318,12.318,0,0,0-1.635,1.533c-2.963,2.861-5.517,6.13-6.437,10.217-1.022,4.8-1.941,9.6-2.554,14.508a10.741,10.741,0,0,0,1.226,5.824,4.119,4.119,0,0,0,4.5,2.656,3.653,3.653,0,0,0,3.576-3.269c1.839-8.276,3.576-16.449,5.211-24.725C1375.916,88.469,1375.405,86.426,1375.405,84.178Z" transform="translate(-1215.305 -51.994)"/>
        <path id="Path_2515" data-name="Path 2515" d="M1334,98.053c.613-5.517,1.532-10.626,4.393-15.428,1.941-3.269,4.5-6.335,8.685-5.824,4.189.409,6.13,3.576,7.458,7.05a30.1,30.1,0,0,1-2.146,25.645c-1.839,3.269-4.393,6.13-8.583,5.824-4.393-.307-6.437-3.474-7.663-7.152C1335.124,105.1,1334.715,101.424,1334,98.053Zm4.8,0a79.512,79.512,0,0,0,1.635,8.582c.409,1.941,1.328,4.189,3.882,4.393,2.35.1,3.474-1.839,4.393-3.576a30.858,30.858,0,0,0,1.941-22.375c-.613-2.146-1.328-4.393-4.087-4.5-2.656-.1-3.576,2.146-4.6,3.882-2.043,4.291-2.759,8.787-3.167,13.589Z" transform="translate(-1215.789 -52.076)"/>
        <path id="Path_2516" data-name="Path 2516" d="M1333.843,106.46a6.335,6.335,0,0,0,.919,6.641,1.771,1.771,0,0,1-.306,1.839c-.307.307-1.533.1-1.839-.1-1.022-1.226-2.248-.92-3.78-.715a30.683,30.683,0,0,1-6.845-.1,9.209,9.209,0,0,0-5.517.1,12.933,12.933,0,0,1-2.656.409,7.038,7.038,0,0,1-.1-.715c2.248-2.554,1.839-5.517,1.839-8.684,0-7.05.306-14.2.409-21.251,0-1.022-.1-2.146-.1-3.269,0-1.941-.715-3.269-2.861-3.576,1.839-2.146,2.248-1.941,6.13,1.839,1.941-1.226,3.269-3.78,6.13-3.474,0,.409.1.613,0,.613a20.264,20.264,0,0,0-4.393,10.932c-.715,6.335-1.941,12.567.306,18.7a7.373,7.373,0,0,0,5.415,5.211c2.145.409,3.576,0,4.6-1.941a14.291,14.291,0,0,1,1.635-2.656Z" transform="translate(-1216.245 -52.106)"/>
        <path id="Path_2517" data-name="Path 2517" d="M1322.2,120.608c3.474-.715,3.474-.613,4.5,2.656l5.415,18.6c.919-2.963.409-19.31-.613-21.251h2.963c-.1,1.328-.613,2.656-.613,3.882v22.988c-3.167.715-3.269.715-4.087-2.146-1.532-5.211-2.963-10.524-4.5-15.734a3.815,3.815,0,0,0-1.022-2.146v17.573a9.414,9.414,0,0,0,1.022,2.554l-2.861.1c.1-1.941.409-3.576.613-5.211v-18.7C1322.813,122.958,1322.506,121.936,1322.2,120.608Z" transform="translate(-1216.045 -51.132)"/>
        <path id="Path_2518" data-name="Path 2518" d="M1309.871,147.888H1306.7c.1-1.941.409-3.78.409-5.517V124.083a20.292,20.292,0,0,0-.613-3.269c2.554-1.226,3.474-.715,4.393,2.146,1.839,6.13,3.576,12.465,5.517,18.9,1.022-3.78.613-19.31-.715-21.149l3.167-.1a29.2,29.2,0,0,0-.613,4.9v22.273c-2.248.715-3.474.307-4.087-1.941-1.532-6.028-3.269-11.852-5.108-17.982C1307.93,131.235,1308.441,145.947,1309.871,147.888Z" transform="translate(-1216.385 -51.133)"/>
        <path id="Path_2519" data-name="Path 2519" d="M1347.117,129.442l-10.217.1c15.428-6.028,27.688,2.146,40.153,9.4,1.532-2.146.409-2.861-1.328-3.269v-.715c1.022.1,2.35-.1,3.27.409,1.635,1.226.919,2.861,0,4.6,3.78,2.146,7.663,4.087,12.158,3.882a5.074,5.074,0,0,0,2.963-1.635c.307-.307-.307-1.533-.613-2.554.613.307,1.533.409,1.635,1.022a2.3,2.3,0,0,1-.307,2.146,5.182,5.182,0,0,1-5.415,1.941c-3.474-.92-6.845-2.146-10.319-3.167a3.859,3.859,0,0,0-2.35-.409,11.692,11.692,0,0,1-10.524-2.554c-2.146-1.635-4.189-3.576-6.028-5.109a30.679,30.679,0,0,1-.307,4.393c-.1.409-.92.92-1.328,1.022-1.635.307-2.554-.409-2.656-1.839,1.022,0,2.861.307,2.861,0a4.538,4.538,0,0,0,.1-3.474c-1.328-2.963-4.189-4.189-7.152-4.8a16.6,16.6,0,0,0-3.883-.307,2.822,2.822,0,0,0-.715.92Zm28.4,10.217-16.449-8.991-.307.613c2.656,2.35,5.415,4.8,8.276,7.05,2.35,1.737,5.109,2.963,8.48,1.328Z" transform="translate(-1215.726 -50.975)"/>
        <path id="Path_2520" data-name="Path 2520" d="M1287.734,129.742c-.307-.307-.613-1.022-.715-1.022-3.883,0-7.663.613-10.319,3.576a4.556,4.556,0,0,0-1.328,2.35,4.167,4.167,0,0,0,.715,2.861c.307.307,1.635-.307,2.861-.613-.409.613-.715,1.635-1.328,1.941s-2.146.307-2.248-.1c-.715-1.533-1.022-3.167-1.533-4.6l-3.78,3.269c-3.576,3.269-7.663,5.211-12.771,3.882a4.938,4.938,0,0,0-2.146.613c-3.269,1.022-6.743,2.248-10.217,3.167a5.123,5.123,0,0,1-5.415-1.839,2.261,2.261,0,0,1-.307-2.146c.1-.409,1.022-.715,1.635-1.022-.307,1.226-.92,2.35-.409,2.656a5.074,5.074,0,0,0,2.963,1.635c4.393,0,7.969-1.941,11.137-3.576.307-2.146.307-3.78.92-5.109.307-.613,2.146-.409,3.269-.307-1.532.92-2.861,1.533-1.532,3.78,1.226-.613,2.35-1.328,3.576-1.941,6.334-3.576,12.465-7.356,19.821-8.889a32.728,32.728,0,0,1,15.734.92c.307.1.715.307,1.022.409.1,0,.1.307.409.715a33.989,33.989,0,0,0-4.8-1.022,19.09,19.09,0,0,0-5.211.409Zm-29.323,10.217a8.562,8.562,0,0,0,8.889-1.533c2.963-2.248,5.823-4.8,8.684-7.356l-.306-.613Z" transform="translate(-1217.849 -50.969)"/>
        <path id="Path_2521" data-name="Path 2521" d="M1299.1,120.4h3.883c-.1,1.635-.409,3.167-.613,4.6v19.208a16.645,16.645,0,0,0,.613,3.474H1299.1c.1-1.941.409-4.087.409-6.13V123.976C1299.508,122.954,1299.2,121.933,1299.1,120.4Z" transform="translate(-1216.546 -51.128)"/>
        <path id="Path_2522" data-name="Path 2522" d="M1292.351,62.553c1.226,1.533,1.941,2.963,3.167,3.882a2.814,2.814,0,0,0,4.087-1.022,6.07,6.07,0,0,0,0-3.576c-.1-.307-1.839-.1-2.656-.1v2.248l.409-.1.409-1.941a5.141,5.141,0,0,1,1.328.409c0,.715-.1,1.941-.409,2.146a4.121,4.121,0,0,1-2.554-.1,5.092,5.092,0,0,1,0-3.269c1.022-1.635,3.78-1.328,4.9.613a4.895,4.895,0,0,1-2.656,7.152,20.733,20.733,0,0,1-6.641.715c-2.248.1-4.393-.1-5.721,2.146-1.533-2.146-.715-2.963,1.839-3.474.1-.715.1-1.635.307-1.635a11.12,11.12,0,0,1,3.167.307c1.226.307,2.248.92,3.474,1.328a3.476,3.476,0,0,0,1.022.1l-3.576-2.248Z" transform="translate(-1216.847 -52.438)"/>
        <path id="Path_2523" data-name="Path 2523" d="M1336.7,64.5a7.416,7.416,0,0,0,.613-2.248c-.1-.409-1.022-1.226-1.532-1.022-.715.1-1.941.715-1.941,1.328-.1,1.022,0,2.656.715,3.269a4.61,4.61,0,0,0,3.78.613c1.226-.715,1.941-2.35,2.963-3.882a32.932,32.932,0,0,0,.613,3.576l-3.474,2.146.1.307a21.086,21.086,0,0,1,3.78-1.635,11.954,11.954,0,0,1,3.269-.409,6.516,6.516,0,0,1,.613,1.635c2.248.409,2.656.92,1.941,3.576-2.146-3.167-5.109-2.146-7.765-2.248a12.357,12.357,0,0,1-5.415-1.226c-2.861-1.328-3.78-5.109-1.941-7.152,1.022-1.226,2.554-1.839,3.882-.715a3.426,3.426,0,0,1,1.226,2.963c-.1,1.533-1.533,1.941-2.861,1.226-.613-.307-.715-1.328-.92-2.146a6.347,6.347,0,0,1,1.533-.613Z" transform="translate(-1215.83 -52.443)"/>
        <path id="Path_2524" data-name="Path 2524" d="M1310.3,54.235l1.635-1.635v6.437c1.941-1.328,3.78-2.146,5.415-.409,2.554,2.656,1.022,5.415-.1,7.969l1.226,1.226-3.167.409a17.708,17.708,0,0,0,1.226-2.656,9.943,9.943,0,0,0,.409-4.189,3.921,3.921,0,0,0-2.656-2.248c-1.532-.1-2.35,1.022-2.35,2.656v6.13l-1.635.1Z" transform="translate(-1216.303 -52.6)"/>
        <path id="Path_2525" data-name="Path 2525" d="M1324.168,65.878c2.35,1.533,4.189,1.328,5.824-.715-.409,2.35-2.35,3.474-5.109,2.861-2.554-.409-2.554-.409-2.146,1.839l-.613.1c-.1-.613-.306-1.226-.409-1.839,0-.715.307-1.839,0-2.35-1.226-2.656-1.022-5.211.92-7.05,1.839-1.635,3.576-1.635,6.743-.1Zm-.715-.715.409-.409a35.735,35.735,0,0,0,2.35-3.576,9.978,9.978,0,0,0,.613-2.35c-1.022,0-2.35-.307-3.167.1-1.839,1.022-1.839,3.882-.2,6.232Z" transform="translate(-1216.072 -52.494)"/>
        <path id="Path_2526" data-name="Path 2526" d="M1303.9,58.087A43.288,43.288,0,0,1,1305.841,54c.409,1.839.715,2.963,1.022,4.6-1.022.92-1.226,6.13.1,8.889-1.328.715-1.941.409-2.146-1.022-.307-1.941-.1-4.087-.307-6.028A5.371,5.371,0,0,0,1303.9,58.087Z" transform="translate(-1216.442 -52.57)"/>
        <path id="Path_2527" data-name="Path 2527" d="M1346.713,129.5a8.93,8.93,0,0,1,2.554,1.533,2.062,2.062,0,0,1,0,3.269,2.014,2.014,0,0,1-3.167-.409l2.248-1.022a20.53,20.53,0,0,0-1.635-3.372Z" transform="translate(-1215.526 -50.931)"/>
        <path id="Path_2528" data-name="Path 2528" d="M1286.774,129.7c-.409.307-1.226.613-1.328,1.022-.307.613-.613,1.635-.307,2.146s1.328.613,2.146,1.022a1.861,1.861,0,0,1-2.861.715,2.017,2.017,0,0,1-.613-3.167,7.843,7.843,0,0,1,2.963-1.737Z" transform="translate(-1216.89 -50.927)"/>
      </g>
    </g>
  </g>
</svg>
