<?xml version="1.0" encoding="utf-8"?>
<!-- Generator: Adobe Illustrator 22.1.0, SVG Export Plug-In . SVG Version: 6.00 Build 0)  -->
<svg version="1.1" id="Layer_1" xmlns="http://www.w3.org/2000/svg" xmlns:xlink="http://www.w3.org/1999/xlink" x="0px" y="0px"
	 viewBox="0 0 152.7 152.2" style="enable-background:new 0 0 152.7 152.2;" xml:space="preserve">
<style type="text/css">
	.st0{fill:url(#Path_11269_1_);}
	.st1{fill:#FFFFFF;}
</style>
<g id="Group_3407" transform="translate(6232.999 11461.001)">
	
		<linearGradient id="Path_11269_1_" gradientUnits="userSpaceOnUse" x1="-6797.8086" y1="-10527.21" x2="-6798.8765" y2="-10528.417" gradientTransform="matrix(109 0 0 -109 734853.875 -1158907.125)">
		<stop  offset="0" style="stop-color:#4AF7DC"/>
		<stop  offset="0.512" style="stop-color:#4E92F6"/>
		<stop  offset="1" style="stop-color:#1E4688"/>
	</linearGradient>
	<path id="Path_11269" class="st0" d="M-6156.5-11440c30.1,0,54.5,24.4,54.5,54.5s-24.4,54.5-54.5,54.5s-54.5-24.4-54.5-54.5
		S-6186.6-11440-6156.5-11440z"/>
	<path id="Intersection_5" class="st1" d="M-6181.6-11346.4c-5.1-0.4-9.1-4.6-9.1-9.8v-27.8c0.1-5.1,4.1-9.3,9.2-9.7
		c0.5,0,1,0,1.5,0h50.4c-1.4,1-2.8,2.2-4,3.4h-46.9c-3.2-0.1-6,2.1-6.6,5.2c0,0.2,0,0.3,0,0.5h49.1c-1.6,2.7-2.8,5.7-3.4,8.9
		c-14.9,0-29.7,0-44.6,0c-1.3,0-1.3,0-1.3,1.3v17.8c-0.2,3.6,2.5,6.6,6.1,6.8c0.3,0,0.5,0,0.8,0c15.2,0,30.5,0,45.7,0
		c1.1,1.3,2.3,2.4,3.6,3.5h-44.5c-1.1,0-2.2,0-3.2,0C-6179.7-11346.3-6180.7-11346.3-6181.6-11346.4z M-6116.8-11349.7
		c0.1-1.1,0-2.2,0-3.3c0-0.4-0.2-0.7-0.6-0.9c-1.6-0.9-3.3-1.8-5.2-2.8c-0.9,0.5-2.1,1.2-3.3,1.9c-0.5,0.3-0.8,0.4-1.3-0.1
		c-2.5-2.7-4.3-6-5.3-9.6c1.1-0.7,2.3-1.4,3.4-2c0.5-0.2,0.8-0.8,0.7-1.4c-0.1-1.6-0.1-3.1,0-4.7c0.1-0.6-0.2-1.1-0.7-1.3
		c-1-0.5-1.9-1.1-2.9-1.7c-0.3-0.2-0.4-0.5-0.4-0.9c1-3.6,3-6.9,5.7-9.6c1.2,0.7,2.4,1.3,3.5,2c0.4,0.3,1,0.3,1.4-0.1
		c1.3-0.9,2.7-1.7,4.1-2.4c0.5-0.2,0.8-0.7,0.8-1.2c0-1.1,0-2.1,0-3.2c0-0.6,0.1-0.9,0.8-1c3.4-0.8,6.8-0.8,10.2,0
		c0.5,0,0.8,0.4,0.8,0.9c0,0,0,0.1,0,0.1c0,1.1,0,2.1,0,3.2c-0.1,0.5,0.2,1,0.8,1.2c0.8,0.4,1.6,0.8,2.4,1.3c0,4-0.5,8-1.4,12
		c-1.2-3.1-4.2-5.1-7.5-5.2h-0.1c-4.5,0-8.2,3.6-8.2,8.1c0,4.5,3.6,8.2,8.1,8.2c1.5,0,3-0.4,4.3-1.2c-2.4,5.3-5.6,10.3-9.6,14.6
		C-6116.7-11348.9-6116.9-11349.1-6116.8-11349.7z M-6183.1-11362.3c0.1-1.4,0.1-2.9,0-4.3c0-0.9,0.4-0.9,1-0.9c9.7,0,19.3,0,29,0
		c3.7,0,7.4,0,11.1,0c0.1,2.1,0.5,4.2,1.1,6.2c-13.7,0-27.4,0-41.1,0C-6182.9-11361.2-6183.2-11361.5-6183.1-11362.3z
		 M-6130.1-11397.5c-11.6,0-23.2,0-34.7,0c-0.8,0-1.6-0.4-2-1.1c-2.7-4-2.2-9.3,1.2-12.6c6.4-6.4,12.9-12.9,19.3-19.3
		c3.8-3.9,10-4.1,13.9-0.3c0.1,0,0.1,0.1,0.2,0.2c9.1,9,18.1,18.1,27.2,27.2c0.6,1.8,1.2,3.7,1.6,5.6c-7-2.2-14.5-1.7-21.2,1.3
		C-6126.3-11397.2-6128.2-11397.5-6130.1-11397.5L-6130.1-11397.5z M-6141.3-11424.8c-1.1,1.1-2.2,2.2-3.3,3.3
		c-1.4,1.3-1.5,3.6-0.1,5c0,0,0,0,0,0c2.5,2.6,5,5.1,7.5,7.5c1.4,1.4,3.6,1.4,5,0c0,0,0,0,0.1-0.1c1.1-1,2.2-2.1,3.3-3.2
		c0.7-0.8,1.1-1.7,1.3-2.7c-0.3-0.8-0.7-1.6-1.1-2.3c-2.5-2.6-5.1-5.2-7.7-7.7c-0.6-0.6-1.5-0.9-2.3-0.9
		C-6139.7-11425.9-6140.6-11425.5-6141.3-11424.8L-6141.3-11424.8z"/>
</g>
</svg>
