<svg xmlns="http://www.w3.org/2000/svg" xmlns:xlink="http://www.w3.org/1999/xlink" width="200" height="150" viewBox="0 0 200 150">
  <defs>
    <clipPath id="clip-sanger_inn">
      <rect width="200" height="150"/>
    </clipPath>
  </defs>
  <g id="sanger_inn" clip-path="url(#clip-sanger_inn)">
    <g id="Group_946" data-name="Group 946" transform="translate(0 44.596)">
      <path id="Path_2529" data-name="Path 2529" d="M1204.7,89.016a72.716,72.716,0,0,1-7.645,3.512c-7.851,2.789-16.012,2.686-24.07,1.859a30.336,30.336,0,0,0-20.971,5.269,85.871,85.871,0,0,1-14.049,7.231c-2.583,1.033-5.475,1.033-8.574,1.756l2.376,3.616c-5.372,1.033-10.124,0-13.843-3-1.859,4.855-3.822,9.3-5.372,13.843a9.155,9.155,0,0,0,.1,5.268c1.446,3.616-.1,6.3-2.066,8.987-.413.723-1.653.93-2.583,1.033-2.169.1-4.132,0-6.3,0-3.616,0-7.231-3.926-6.095-7.128,2.066-5.372.31-9.711-1.859-14.463-1.033-2.273-1.343-4.752-2.066-7.541-4.132,2.686-8.574,4.442-14.153,3l2.376-3.616c-.31-.31-.516-.413-.723-.413-6.2.1-11.673-2.273-16.942-5.372-.827-.413-1.446-.93-2.273-1.343-8.368-6.715-18.078-8.058-28.305-6.715-7.231.93-14.256-.31-21.177-2.686a28.579,28.579,0,0,1-5.785-3.2c3.822.826,7.438,1.859,11.157,2.376,8.368,1.24,16.528-.31,24.69-1.653a28.674,28.674,0,0,1,17.872,3.1c3.616,1.859,7.128,3.822,10.95,5.475,6.818,3.1,13.43,2.273,19.938-1.859s13.223-5.888,20.971-3.822a40.881,40.881,0,0,1,9.3,4.029c6.715,4.029,13.843,4.752,21.177.93,2.376-1.24,4.958-2.376,7.438-3.822a32.472,32.472,0,0,1,23.037-3.822c8.058,1.446,16.425,2.376,24.69.826,2.789-.517,5.372-1.446,8.264-2.169Z" transform="translate(-1004.7 -62.364)" fill="#8b4c20"/>
      <path id="Path_2530" data-name="Path 2530" d="M1035.914,69.915c-.517-1.033-.93-1.859-1.343-2.789a4.95,4.95,0,0,0-4.855-3.1,3.187,3.187,0,0,0-3.1,2.583,4.585,4.585,0,0,0,2.169,5.269,53.126,53.126,0,0,1,5.268,3,6.842,6.842,0,0,1-.413,11.88,11.9,11.9,0,0,1-6.508,1.033c-4.339-.723-5.165-2.686-3-7.128a10.3,10.3,0,0,1,.413,2.066c.516,2.169,1.446,4.029,4.029,4.339a4.253,4.253,0,0,0,4.959-2.789,5.618,5.618,0,0,0-1.343-6.508,29.854,29.854,0,0,0-4.546-2.789c-3.616-2.066-4.752-4.132-3.925-7.438.723-2.686,3-4.132,6.715-4.339h1.24C1036.017,63.3,1037.257,65.163,1035.914,69.915Z" transform="translate(-1004.096 -63.2)"/>
      <path id="Path_2531" data-name="Path 2531" d="M1130.249,86.806a5.77,5.77,0,0,1-7.025-1.859c-1.446-1.756-2.789-3.616-4.442-5.785-1.446,4.752-.826,6.611,2.376,7.645H1113.1c2.376-.413,2.273-2.169,2.169-3.926-.1-3.409,0-6.611,0-10.124l-2.169-.826.1-.723c3.822.1,7.645-1.033,11.363,1.033,2.066,1.033,2.066,4.029.31,5.682a16.989,16.989,0,0,1-2.273,1.446C1124.36,82.57,1126.22,85.463,1130.249,86.806Zm-11.983-7.645c1.24-.31,2.169-.31,3.1-.517,1.859-.723,2.273-2.169,1.859-3.926a2.974,2.974,0,0,0-3.409-2.583c-.516,0-1.446.826-1.446,1.24A52.066,52.066,0,0,0,1118.266,79.161Z" transform="translate(-1001.119 -62.943)"/>
      <path id="Path_2532" data-name="Path 2532" d="M1073.9,83.069c0-3.512.1-6.3-.1-9.194-.1-.826-1.24-1.446-1.859-2.273h5.372l.1.31-2.376.826V86.994l-.826.413c-4.029-4.132-8.058-8.471-12.5-13.223,0,4.029-.1,7.541.1,11.054,0,.517,1.343,1.033,2.066,1.653H1058.4c2.376-.31,2.376-2.066,2.273-3.926,0-2.583.1-4.959.1-7.541,0-1.446.31-3.2-2.273-3.512,2.376-.517,4.442-.826,6.3,1.343C1067.387,76.561,1070.486,79.453,1073.9,83.069Z" transform="translate(-1002.925 -62.925)"/>
      <path id="Path_2533" data-name="Path 2533" d="M1175.8,87h-5.682c3.1-.826,2.169-3.2,2.273-5.268.1-1.859.1-3.822.1-5.682.1-1.859.413-3.822-2.789-4.339,3.409-.826,5.372-.31,7.438,2.066,2.583,3,5.785,5.372,8.574,7.851,0-2.273.1-5.269-.1-8.264,0-.723-1.343-1.24-2.169-1.859h5.475c0,.1,0,.31.1.31l-2.376.826V86.9l-.723.31-12.5-13.223c0,4.029-.1,7.644.1,11.157C1173.522,85.761,1174.865,86.278,1175.8,87Z" transform="translate(-999.249 -62.931)"/>
      <path id="Path_2534" data-name="Path 2534" d="M1091.079,79.26h5.165a12.49,12.49,0,0,0-.723,3.822,2.78,2.78,0,0,1-2.376,3.512,33.686,33.686,0,0,1-7.851.723,6.259,6.259,0,0,1-5.785-5.269,8.03,8.03,0,0,1,2.583-8.368c3.409-2.789,7.231-3.1,11.363-1.859,2.583.826,1.343,3.1,1.24,4.959-.826-4.442-4.029-4.959-7.541-4.545a6.073,6.073,0,0,0-3.2,1.446c-2.066,2.066-2.169,6.611-.517,9.3a7.021,7.021,0,0,0,7.851,3.1,2.252,2.252,0,0,0,1.446-1.756C1092.422,82.669,1093.971,80.293,1091.079,79.26Z" transform="translate(-1002.237 -62.938)"/>
      <path id="Path_2535" data-name="Path 2535" d="M1149.3,71.913c2.789-.826,4.959-.31,6.818,2.066a108.363,108.363,0,0,0,8.368,8.781V72.636l-1.86-.723V71.5h6.2l-3.1,1.24V87l-.723.31-12.5-13.223c0,4.029-.1,7.644.1,11.157,0,.517,1.343.93,2.273,1.653H1149.4c2.686-.517,2.169-2.686,2.169-4.442,0-2.376,0-4.855.1-7.231C1151.469,73.669,1151.159,72.326,1149.3,71.913Z" transform="translate(-999.922 -62.926)"/>
      <path id="Path_2536" data-name="Path 2536" d="M1143.392,85.907l2.789.93-.1.413H1137.5a.621.621,0,0,0-.1-.413l3.1-.93c0-6.611.1-13.223-.1-19.938,0-.723-1.653-1.446-2.583-2.169h8.264c-3.616.517-2.686,3.2-2.686,5.475C1143.185,74.854,1143.392,80.225,1143.392,85.907Z" transform="translate(-1000.316 -63.18)"/>
      <path id="Path_2537" data-name="Path 2537" d="M1042.282,85.889l2.169,1.033H1039.7a19.577,19.577,0,0,0,2.273-3.409q2.634-5.269,4.959-10.537a13.249,13.249,0,0,1,1.446-2.376c.723,1.343,1.033,2.066,1.446,2.789,1.653,3.512,3.1,7.128,4.752,10.64a18.418,18.418,0,0,0,2.169,2.789h-6.3l1.86-1.033c-.827-1.653-.723-3.926-3.616-3.822C1043.625,82.17,1043.625,82.067,1042.282,85.889Zm8.264-4.649-3.1-7.128c-1.033,2.686-2.066,4.752-3.1,7.128Z" transform="translate(-1003.543 -62.955)"/>
      <path id="Path_2538" data-name="Path 2538" d="M1103.955,78.531v7.231a5.66,5.66,0,0,0,6.818-2.686c-.31,3.2-.93,4.029-3.616,4.029h-7.128a12.707,12.707,0,0,0,.93-3.512c.1-2.789,0-5.682,0-8.471,0-1.446.413-3.1-1.859-3.409,3.409-.1,6.612-.413,9.917-.413,1.653,0,1.86,1.446.517,3.926-.31-.826-.413-1.653-.723-2.583h-4.959v5.578l4.339-1.033v2.583Z" transform="translate(-1001.581 -62.932)"/>
    </g>
  </g>
</svg>
