<?xml version="1.0" encoding="utf-8"?>
<!-- Generator: Adobe Illustrator 22.1.0, SVG Export Plug-In . SVG Version: 6.00 Build 0)  -->
<svg version="1.1" id="Layer_1" xmlns="http://www.w3.org/2000/svg" xmlns:xlink="http://www.w3.org/1999/xlink" x="0px" y="0px"
	 viewBox="0 0 152.7 152.2" style="enable-background:new 0 0 152.7 152.2;" xml:space="preserve">
<style type="text/css">
	.st0{fill:url(#Ellipse_867_1_);}
	.st1{fill:#FFFFFF;}
</style>
<g id="Group_3406" transform="translate(5626.999 11461.001)">
	
		<linearGradient id="Ellipse_867_1_" gradientUnits="userSpaceOnUse" x1="-6191.8086" y1="-10527.21" x2="-6192.8765" y2="-10528.417" gradientTransform="matrix(109 0 0 -109 669405.875 -1158907.125)">
		<stop  offset="0" style="stop-color:#4AF7DC"/>
		<stop  offset="0.512" style="stop-color:#4E92F6"/>
		<stop  offset="1" style="stop-color:#1E4688"/>
	</linearGradient>
	<circle id="Ellipse_867" class="st0" cx="-5550.5" cy="-11385.5" r="54.5"/>
	<path id="Intersection_2" class="st1" d="M-5576-11337.3c12.2,2.1,24.7-1.7,33.7-10.2l5.5,5.9c-5,4.7-11.1,8.3-17.6,10.5
		C-5562-11331.7-5569.3-11333.8-5576-11337.3z M-5538.8-11351.2c1.7-2,3.1-4.2,4.4-6.5l7.1,3.8c-1.5,2.8-3.2,5.4-5.3,7.9
		L-5538.8-11351.2z M-5531.2-11365.6c0.7-2.5,1.2-5.1,1.4-7.7l8,0.6c-0.2,3.1-0.8,6.3-1.7,9.3L-5531.2-11365.6z M-5557.6-11364.9
		c-1,0-1.9-0.8-1.9-1.9c0,0,0,0,0,0v-5.3h-10.4c-1,0-1.9-0.8-1.9-1.9c0,0,0,0,0,0v-1.3c0-0.4,0.1-0.8,0.3-1.1l11.4-16.3
		c0.3-0.5,0.9-0.8,1.5-0.8h0.6c0,0,0.1,0,0.1,0c0,0,0.1,0,0.2,0h1.8c1,0,1.9,0.8,1.9,1.9v14.5h1.8c1,0,1.9,0.8,1.9,1.9v1.2
		c0,1-0.8,1.9-1.9,1.9c0,0,0,0,0,0h-1.8v5.3c0,1-0.8,1.9-1.9,1.9c0,0,0,0,0,0L-5557.6-11364.9z M-5565-11377h5.6v-8.2
		C-5561.2-11382.6-5563.6-11379.1-5565-11377z M-5586.7-11364.9c-1,0-1.9-0.8-1.9-1.9l0,0v-1.1c0-0.5,0.2-1,0.6-1.3l2.5-2.5
		c6.4-6.1,9.5-9.4,9.5-13c0-2.7-1.4-4.1-4.2-4.1c-1.5,0-3,0.5-4.2,1.5c-0.8,0.6-2,0.4-2.6-0.5c-0.1-0.1-0.1-0.2-0.2-0.3l-0.5-1
		c-0.4-0.8-0.1-1.7,0.6-2.2c2.2-1.6,4.9-2.5,7.6-2.5c6.3,0,9.1,4.4,9.1,8.7c0,5.4-3.9,9.6-9.4,14.9l-0.2,0.2h8.4
		c1,0,1.9,0.8,1.9,1.9c0,0,0,0,0,0v1.4c0,1-0.8,1.9-1.9,1.9c0,0,0,0,0,0L-5586.7-11364.9z M-5531.9-11389.4l7.6-2.6
		c1,3,1.8,6.1,2.2,9.2l-8,1.1C-5530.5-11384.4-5531.1-11386.9-5531.9-11389.4z M-5595.6-11416.1c6.8-4.5,14.6-7.2,22.8-7.8v-4.9
		c0-0.7,0.5-1.2,1.2-1.2c0.2,0,0.5,0.1,0.7,0.2l14.3,9.6c0.6,0.4,0.7,1.1,0.3,1.7c-0.1,0.1-0.2,0.2-0.3,0.3l-14.3,9.6
		c-0.6,0.4-1.3,0.2-1.7-0.3c-0.1-0.2-0.2-0.4-0.2-0.7v-6.3c-13.2,1.2-24.9,8.8-31.3,20.5
		C-5602.7-11402.8-5599.8-11409.9-5595.6-11416.1z M-5540.3-11403.3l5.9-5.5c2.1,2.3,4.1,4.8,5.7,7.5l-6.8,4.2
		C-5536.9-11399.3-5538.5-11401.4-5540.3-11403.3z M-5553.5-11412.7l3.2-7.4c2.9,1.3,5.7,2.8,8.2,4.6l-4.6,6.6
		C-5548.8-11410.3-5551.1-11411.6-5553.5-11412.7z"/>
</g>
</svg>
