<?xml version="1.0" encoding="utf-8"?>
<!-- Generator: Adobe Illustrator 22.1.0, SVG Export Plug-In . SVG Version: 6.00 Build 0)  -->
<svg version="1.1" id="Layer_1" xmlns="http://www.w3.org/2000/svg" xmlns:xlink="http://www.w3.org/1999/xlink" x="0px" y="0px"
	 viewBox="0 0 152.7 152.2" style="enable-background:new 0 0 152.7 152.2;" xml:space="preserve">
<style type="text/css">
	.st0{fill:url(#Path_11268_1_);}
	.st1{fill:#FFFFFF;}
</style>
<g id="Group_3405" transform="translate(5626.999 11771.001)">
	
		<linearGradient id="Path_11268_1_" gradientUnits="userSpaceOnUse" x1="-6191.8086" y1="-10837.21" x2="-6192.8765" y2="-10838.417" gradientTransform="matrix(109 0 0 -109 669405.875 -1193007.125)">
		<stop  offset="0" style="stop-color:#4AF7DC"/>
		<stop  offset="0.512" style="stop-color:#4E92F6"/>
		<stop  offset="1" style="stop-color:#1E4688"/>
	</linearGradient>
	<path id="Path_11268" class="st0" d="M-5550.5-11750c30.1,0,54.5,24.4,54.5,54.5s-24.4,54.5-54.5,54.5s-54.5-24.4-54.5-54.5
		S-5580.6-11750-5550.5-11750z"/>
	<path id="Intersection_3" class="st1" d="M-5559.3-11641.7c3.2-3.7,6.4-7.3,9.5-11c0.3-0.5,0.9-0.7,1.5-0.7c0.5,0,0.9,0,1.4,0
		c0.9-0.1,1.8-0.1,2.6,0.2c1.1,0.5,1.9,1.9,2.8,2.9c2.1,2.4,4.3,4.8,6.4,7.1c-1.5,0.5-3.1,0.8-4.7,1.2c-2.1-2.2-4.1-4.5-6.2-6.7
		c-0.2-0.2-0.4-0.4-0.7-0.7c-0.6,0.7-1.2,1.3-1.8,2c-1.9,2.1-3.8,4.2-5.7,6.3C-5555.9-11641.2-5557.7-11641.4-5559.3-11641.7z
		 M-5592.7-11661v-9.9h-3.2c-2.1,0-3.4-1.2-3.4-3.3c0-6.9-0.1-13.7,0-20.6c-0.1-2.8,2.2-5.2,5-5.2c0,0,0,0,0,0
		c1.5-0.1,2.9-0.1,4.4,0c0.4,0.1,0.8,0.3,1,0.6c1.4,1.9,3.1,3.5,5.1,4.8c0.6,0.4,1.4,0.5,2,0.1c2.3-1.1,4.2-2.8,5.6-4.9
		c0.2-0.3,0.6-0.5,1-0.5c8.5,0,17,0,25.5,0c1.3-0.1,2.6,0.7,2.9,2c0.6,1.9,0.6,3.9,0,5.7c-0.3,1.2-1.5,2-2.7,1.8
		c-1.1-0.1-2.1-0.1-3.2-0.1c-2.5,0-5,0-7.5,0c-3.4,0-6.8,0-10.1,0c-0.9,0-1.2,0.2-1.2,1.1c0,14.8,0,29.5,0,44.3
		C-5579.8-11648.7-5587-11654.1-5592.7-11661z M-5534.9-11655.5h-31.9v-6.4h40.3c0.4,0,0.8,0,1.2-0.1c3-0.4,4.4-2,4.4-5
		c0-12.1,0-24.2,0-36.3c0-2.3-0.7-4.3-3.1-5.2c-0.8-0.3-1.6-0.4-2.4-0.4c-13.1,0-26.2,0-39.3,0h-1.1v-6.9h12.9
		c0.1-0.3,0.1-0.6,0.1-0.9c0-1.9,1.3-3.5,3.1-4.1c2.5-0.8,5.2-0.9,7.7-0.1c1.9,0.5,3.2,2.3,3.1,4.2c0,0.2,0,0.5,0.1,0.7h1.1
		c6,0,12,0,18,0c4.2,0.1,6.4,2.4,6.4,6.6v47.1c0,0.7,0,1.4-0.1,2.1c-0.6,2.9-2.6,4.4-5.8,4.4c-1.6,0-3.2,0-4.9,0
		C-5528.4-11655.5-5531.7-11655.5-5534.9-11655.5L-5534.9-11655.5z M-5591.4-11712.3c0-5,4-9,9-8.9s9,4,8.9,9c0,5-4,9-9,8.9
		c0,0,0,0-0.1,0C-5587.4-11703.4-5591.4-11707.4-5591.4-11712.3z"/>
</g>
</svg>
